<?xml version="1.0" standalone="no"?>
<!DOCTYPE svg PUBLIC "-//W3C//DTD SVG 1.1//EN" "http://www.w3.org/Graphics/SVG/1.1/DTD/svg11.dtd">
<svg xmlns="http://www.w3.org/2000/svg">
<metadata>Copyright (C) 2021 by original authors @ fontello.com</metadata>
<defs>
<font id="fontello" horiz-adv-x="1000" >
<font-face font-family="fontello" font-weight="400" font-stretch="normal" units-per-em="1000" ascent="850" descent="-150" />
<missing-glyph horiz-adv-x="1000" />
<glyph glyph-name="report" unicode="&#xe800;" d="M483 60h-43a57 57 0 0 1-56-56h0a57 57 0 0 1 56-56h43a57 57 0 0 1 56 56h0a57 57 0 0 1-56 56z m0-86h-43a27 27 0 0 0-28 28 28 28 0 0 0 28 29h43a27 27 0 0 0 28-29 29 29 0 0 0-28-28z m226-13a15 15 0 0 0-15-15h-84a15 15 0 1 0 0 30h84a16 16 0 0 0 15-15z m85 84a15 15 0 0 0-15-14h-169a15 15 0 0 0 0 29h169a15 15 0 0 0 15-15z m0 84a15 15 0 0 0-15-14h-382a15 15 0 1 0 0 29h381a15 15 0 0 0 16-15z m0 192v-85a15 15 0 0 0-29 0v71h-56v-71a15 15 0 0 0-30 0v85a15 15 0 0 0 15 14h84a15 15 0 0 0 16-14z m-148 148v-233a15 15 0 0 0-30 0v218h-56v-219a15 15 0 0 0-29 0v234a15 15 0 0 0 14 15h85a15 15 0 0 0 16-15z m-149-84v-149a15 15 0 0 0-29 0v134h-56v-134a15 15 0 0 0-30 0v149a15 15 0 0 0 15 15h86a15 15 0 0 0 14-15z m-295-50h-43a67 67 0 0 1-67-67h0a69 69 0 0 1 69-68h42a67 67 0 0 1 67 67h0a70 70 0 0 1-68 68z m37-68a39 39 0 0 0-38-39h-43a39 39 0 0 0-39 39h0a39 39 0 0 0 39 39h43a39 39 0 0 0 38-39z m30 139a15 15 0 0 0-15-15h-148a15 15 0 0 0 0 30h148a16 16 0 0 0 15-15z m-64 254v-148a15 15 0 0 0-30 0v133h-56v-133a15 15 0 0 0-29 0v148a15 15 0 0 0 14 15h85a15 15 0 0 0 16-15z m148 84v-105a15 15 0 1 0-29 0v92h-55v-219a15 15 0 0 0-30 0v232a15 15 0 0 0 15 15h84a15 15 0 0 0 15-15z m148-62v-43a15 15 0 1 0-29 0v28h-56v-28a15 15 0 1 0-30 0v43a15 15 0 0 0 15 14h84c10-1 16-6 16-14z m86 109v-152a15 15 0 1 0-29 0v148a27 27 0 0 1-29 28h-466a27 27 0 0 1-28-28v-636a28 28 0 0 1 28-28h170a15 15 0 0 0 0-30h-174a54 54 0 0 0-54 54v644a54 54 0 0 0 54 54h473a54 54 0 0 0 55-54z m238-191h-471a57 57 0 0 1-56-56v-635a54 54 0 0 1 54-54h473a54 54 0 0 1 53 54v638a54 54 0 0 1-53 53z m25-687a28 28 0 0 0-28-28h-466a27 27 0 0 0-28 28v631a28 28 0 0 0 28 28h466a27 27 0 0 0 28-28z" horiz-adv-x="884" />

<glyph glyph-name="loading" unicode="&#xe801;" d="M93 127v593a130 130 0 0 0 130 130h1009a130 130 0 0 0 130-130v-593h35a58 58 0 0 0 58-58v-57a162 162 0 0 0-161-162h-1132a162 162 0 0 0-162 162v57a58 58 0 0 0 58 58h35z m1304-58h-1339v-57a103 103 0 0 1 104-104h1132a103 103 0 0 1 103 104v57z m-742-110h145a29 29 0 1 1 0 59h-145a29 29 0 0 1 0-59z m649 168v593a72 72 0 0 1-72 72h-1009a72 72 0 0 1-71-72v-593h1152z m-575 185v-79a28 28 0 1 1 56 0v79a28 28 0 0 1-56 0z m-74 49l-67-67a28 28 0 0 1 40-39l67 67a28 28 0 1 1-40 39z m165-39l46-46a28 28 0 0 1 39 40l-45 45a28 28 0 1 1-40-39z m98 130h-49a28 28 0 1 1 0-56h49a28 28 0 1 1 0 56z m-272 0h-109a28 28 0 1 1 0-56h109a28 28 0 1 1 0 56z m198 98l-24-24a28 28 0 0 1 40-39l23 23a28 28 0 0 1-39 40z m-277 24l88-87a28 28 0 0 1 40 39l-88 88a28 28 0 1 1-40-40z m162 100v-139a28 28 0 1 1 56 0v139a28 28 0 0 1-56 0z" horiz-adv-x="1455" />

<glyph glyph-name="budget" unicode="&#xe802;" d="M1349 467a390 390 0 0 1-81 63v76a24 24 0 0 1-14 22l53 117a75 75 0 0 1-68 105h-332a75 75 0 0 1-68-105l53-117a24 24 0 0 1-14-22v-76a390 390 0 0 1-150-156 195 195 0 0 1-380 13h-24a195 195 0 1 1-258 0h-42a24 24 0 0 1-24-25v-488a24 24 0 0 1 25-24h682a24 24 0 0 1 25 23 118 118 0 0 1 70-23h542a119 119 0 0 1 119 119v223a388 388 0 0 1-114 276z m-1300 66a146 146 0 1 0 146-146 146 146 0 0 0-146 146z m293-634h-293v48h293z m0 97h-293v49h293z m0 98h-293v49h293z m0 98h-293v48h293z m0 97h-293v49h293z m195 195a146 146 0 1 0-147-146 146 146 0 0 0 147 146z m-147-275a197 197 0 0 1 18-17h-18z m293-310h-293v48h293z m0 97h-293v49h293z m0 98h-293v49h293z m0 98h-17a197 197 0 0 1 17 18c0-6 0-12 0-18z m201 573a26 26 0 0 0 23 36h332a26 26 0 0 0 24-36l-61-134h-257z m336-183v-49h-293v49h293z m195-613a70 70 0 0 0-71-70h-542a70 70 0 0 0-70 70v223a341 341 0 0 0 166 293 25 25 0 0 1 5-1h341a25 25 0 0 1 4 1 342 342 0 0 0 167-293z m-342 466a244 244 0 1 1 244-243 244 244 0 0 1-244 243z m0-439a195 195 0 1 0 195 195 195 195 0 0 0-195-195z m-24 269h97a24 24 0 0 1 0 48h-48a24 24 0 0 1-49 0 73 73 0 1 1 0-146h49a24 24 0 0 0 0-49h-98a24 24 0 1 1 0-48h49a24 24 0 0 1 49 0 73 73 0 0 1 0 146h-49a24 24 0 0 0 0 49z m-842 219h-61a24 24 0 1 1 0-49h25a24 24 0 1 1 49 0v2a61 61 0 0 1-13 120h-24a12 12 0 0 0 0 25h61a24 24 0 0 1 0 49h-24a24 24 0 1 1-49 0v-2a61 61 0 0 1 12-120h24a12 12 0 0 0 0-25z m342-195h-61a24 24 0 1 1 0-49h24a24 24 0 1 1 49 0v2a61 61 0 0 1-12 120h-24a12 12 0 0 0 0 25h60a24 24 0 0 1 0 48h-24a24 24 0 0 1-49 0v-1a61 61 0 0 1 13-121h24a12 12 0 0 0 0-24z" horiz-adv-x="1463" />

<glyph glyph-name="fire-brigade" unicode="&#xe803;" d="M767 211a109 109 0 0 1 109 109c0 80-96 175-100 179a12 12 0 0 1-9 3 12 12 0 0 1-8-3c-4-4-101-104-101-179a109 109 0 0 1 109-109z m0 24a38 38 0 0 0-38 38c0 25 23 55 38 72a123 123 0 0 0 38-72 38 38 0 0 0-38-38z m0 238c24-25 85-96 85-153a84 84 0 0 0-23-59 62 62 0 0 1 1 12c0 49-52 96-55 98a12 12 0 0 1-16 0c-2-2-54-51-54-98a62 62 0 0 1 1-12 84 84 0 0 0-23 59c0 53 61 127 84 153z m196-57c-97 74-55 304-40 373a40 40 0 0 1-39 48h-110a39 39 0 0 1-38-31 412 412 0 0 0-472-1 39 39 0 0 1-38 32h-110a40 40 0 0 1-39-48c15-69 57-299-40-373a63 63 0 0 1-24-50v-428a75 75 0 0 1 75-75h289a75 75 0 0 1 74 63h98a75 75 0 0 1 74-63h289a75 75 0 0 1 75 75v428a63 63 0 0 1-24 50z m-391-286h391v-115h-391z m202 683h110a15 15 0 0 0 12-6 15 15 0 0 0 3-13c-20-92-56-317 49-397a38 38 0 0 0 15-31v-212h-391v214a177 177 0 0 0 64 135c53 44 117 131 123 295a15 15 0 0 0 15 15z m-273-105a443 443 0 0 1 232 67c-10-139-66-214-112-253a201 201 0 0 1-73-154v-418h-96v418a201 201 0 0 1-72 154c-47 39-102 114-113 253a459 459 0 0 1 234-67z m-463-578h390v-115h-390z m14 267c105 80 70 305 49 397a15 15 0 0 0 3 13 15 15 0 0 0 12 6h110a15 15 0 0 0 15-15c6-164 70-250 123-294a177 177 0 0 0 64-136v-214h-390v213a38 38 0 0 0 14 30z m325-510h-289a51 51 0 0 0-50 51v53h390v-53a51 51 0 0 0-51-51z m535 0h-289a51 51 0 0 0-51 51v53h391v-53a51 51 0 0 0-51-51z" horiz-adv-x="1000" />

<glyph glyph-name="emergenc" unicode="&#xe804;" d="M369 806a34 34 0 0 0 34 34h342a34 34 0 0 0 34-34v-124q34-1 69-2c32-2 61-3 87-4 9-1 17-1 24-2l9 0a175 175 0 0 0 162-159c0-2 0-6 1-13 1-11 2-24 3-41 2-47 3-109 3-188s-1-141-3-189c-1-16-2-30-3-41-1-6-1-10-1-12a175 175 0 0 0-162-160l-9 0c-7 0-15-1-24-1-26-2-55-3-87-4-91-4-184-6-274-6s-183 2-274 6c-32 1-61 2-87 4-10 0-18 1-25 1l-8 0a175 175 0 0 0-162 159c0 3-1 7-1 13-1 11-2 25-3 41-2 48-4 110-4 189s2 141 4 188c1 17 2 30 3 41 0 6 1 10 1 13a175 175 0 0 0 162 159l8 0c7 1 15 1 24 2 27 1 56 2 88 4q34 1 69 2z m-317-294c0-3-1-7-1-13-1-10-2-23-3-40-2-46-4-108-4-186s2-140 4-187c1-16 2-29 3-40 0-6 1-10 1-12a141 141 0 0 1 130-128l8-1c7 0 15-1 24-1 26-1 55-3 87-4 91-3 184-6 273-6s182 2 273 6c31 1 60 3 86 4l24 1 9 1a141 141 0 0 1 130 129c0 1 0 5 1 11 1 11 2 24 2 40 3 47 4 108 4 187s-1 140-4 186c0 16-1 30-2 40-1 6-1 10-1 13a141 141 0 0 1-130 128l-9 0c-7 1-15 1-24 1-26 2-55 3-87 4-90 4-183 6-272 6s-182-2-273-6c-32-1-61-2-87-4-9 0-17 0-24-1l-8 0a141 141 0 0 1-130-128z m522 173c55 0 113-1 171-2v123q0-1-342 0s0-41 0-123c58 1 115 2 171 2z m-86-326v103a34 34 0 0 0 34 34h103a34 34 0 0 0 34-34v-103h103a34 34 0 0 0 34-35v-103a34 34 0 0 0-34-34h-103v-104a34 34 0 0 0-34-34h-103a34 34 0 0 0-34 34v104h-102a34 34 0 0 0-34 34v103a34 34 0 0 0 34 35z m35 103s0-40 0-120a17 17 0 0 0-18-18h-119s0-34 0-103h119a17 17 0 0 0 18-17v-120h102s0 40 0 120a17 17 0 0 0 17 17h120s0 35 0 103h-120a17 17 0 0 0-17 18v120z" horiz-adv-x="1147" />

<glyph glyph-name="covid-app" unicode="&#xe805;" d="M770 75c-2 1-62 28-62 138v134a378 378 0 0 1-85 238l-103 126a31 31 0 0 1-22 12 31 31 0 0 1-23-9 107 107 0 0 1-11-12v57a84 84 0 0 1-84 83h-43a1 1 0 0 1 0 0c-1 0-1 0-1 0h-201a2 2 0 0 1 0 0c0 0 0 0-1 0h-43a84 84 0 0 1-83-84v-669a84 84 0 0 1 83-84h210a421 421 0 0 1 163-82 204 204 0 0 0 90-61 11 11 0 0 1 9-4 10 10 0 0 1 6 2 10 10 0 0 1 2 15 222 222 0 0 1-101 68 431 431 0 0 0-135 62h45a84 84 0 0 1 84 84v386l64-47a139 139 0 0 0-5-41 11 11 0 1 1 20-6 159 159 0 0 1 6 51 10 10 0 0 1 0 4 159 159 0 0 1-22 75l-52 87a82 82 0 0 0-11 39v1a82 82 0 0 0 25 61 10 10 0 0 0 7 3 10 10 0 0 0 7-4l104-126a357 357 0 0 0 80-225v-134c0-125 72-156 75-158a11 11 0 0 1 4 0 11 11 0 0 1 4 20z m-625 746h181v-21a12 12 0 0 0-11-12h-158a12 12 0 0 0-12 12z m235-795h-289a63 63 0 0 0-62 63v670a63 63 0 0 0 62 62h33v-21a33 33 0 0 1 33-33h158a33 33 0 0 1 32 33v21h33a63 63 0 0 0 63-63v-669a63 63 0 0 0-63-63z m129 474a138 138 0 0 0 17-44l-62 45v75z m11-173a11 11 0 0 1-14-6 152 152 0 0 1 16-133 11 11 0 1 1 19 11 132 132 0 0 0-16 114 11 11 0 0 1-5 14z m-118 121a18 18 0 0 1-15-9c-1 0-1 1-3 1h-25a126 126 0 0 1-6 29l14 5c1 1 1 2 2 3a18 18 0 0 1 17-3 18 18 0 1 1-14 33 18 18 0 0 1-10-13 8 8 0 0 1-3 0l-14-6a127 127 0 0 1-16 24l17 17c0 1 0 2 1 3a18 18 0 0 1 17 4 18 18 0 0 1-25 25 18 18 0 0 1-5-17c-1 0-2 0-3-1l-17-17a128 128 0 0 1-24 17l10 23c1 2 0 3 0 4a18 18 0 0 1 14 10 18 18 0 1 1-33 14 18 18 0 0 1 2-17c-1-1-2-1-2-2l-10-24a125 125 0 0 1-29 5v11c0 1-1 1-1 3a18 18 0 0 1 9 14 18 18 0 0 1-36 0 18 18 0 0 1 8-14c0-2-1-2-1-3v-10a126 126 0 0 1-28-6l-9 20c0 1-1 2-2 2a18 18 0 0 1 3 17 18 18 0 1 1-33-13 18 18 0 0 1 13-11 8 8 0 0 1 0-3l8-20a130 130 0 0 1-24-16l-11 11c-1 1-2 1-3 2a18 18 0 0 1-5 16 18 18 0 0 1-25-25 18 18 0 0 1 17-4c1-1 1-2 1-3l12-12a125 125 0 0 1-16-24l-24 10a8 8 0 0 1-3 0 18 18 0 0 1-11 14 18 18 0 1 1-14-33 18 18 0 0 1 18 2c0-1 1-2 2-2l23-10a124 124 0 0 1-5-29h-18c-1 0-2-1-3-1a18 18 0 0 1-15 9 18 18 0 1 1 0-36 18 18 0 0 1 15 9c1-1 2-2 3-2h18a127 127 0 0 1 5-28l-9-4a9 9 0 0 1-4-3 18 18 0 1 1-3-31 17 17 0 0 1 11 13 11 11 0 0 1 3 1l11 4a127 127 0 0 1 16-24l-17-16c-1-1-1-2-1-3a18 18 0 0 1-17-5 18 18 0 0 1 25-25 18 18 0 0 1 4 17c1 0 3 0 3 1l17 17a127 127 0 0 1 24-16l-10-24a8 8 0 0 1 0-3 18 18 0 0 1-13-11 18 18 0 1 1 33-14 18 18 0 0 1-2 17 10 10 0 0 1 2 3l10 23a126 126 0 0 1 28-5v-22c0-1 1-2 2-3a18 18 0 1 1 18 0c1 1 2 2 2 3v22a125 125 0 0 1 28 5l14-35a10 10 0 0 1 2-3 18 18 0 0 1-2-16 18 18 0 1 1 33 13 18 18 0 0 1-13 11c0 1 0 2 0 3l-15 35a127 127 0 0 1 24 17l15-16c1 0 2 0 3-1a18 18 0 0 1 5-17 18 18 0 0 1 25 26 18 18 0 0 1-17 4c-1 1-1 2-1 3l-15 15a127 127 0 0 1 16 24l23-10a9 9 0 0 1 4 0 18 18 0 0 1 10-13 18 18 0 1 1 14 33 17 17 0 0 1-17-3c-1 1-1 2-3 3l-23 10a127 127 0 0 1 5 28h26c1 0 2 1 3 1a18 18 0 0 1 15-8 18 18 0 1 1 0 35z m-170-125a107 107 0 0 0-41 205h0a106 106 0 0 0 82 0h0a107 107 0 0 0-41-205z m-22 112a36 36 0 1 1-36-36 36 36 0 0 1 36 36z m-36-15a15 15 0 1 0 15 15 15 15 0 0 0-15-15z m98-39a14 14 0 1 1 10-4 14 14 0 0 1-10 4z m-67 0a14 14 0 1 1 10-4 14 14 0 0 1-10 4z" horiz-adv-x="785" />

<glyph glyph-name="covid-alert" unicode="&#xe806;" d="M457 222l19-18a20 20 0 0 1 28 0 20 20 0 0 1 0 28l-18 18a259 259 0 0 1 55 141h30a20 20 0 1 1 0 40h-32a258 258 0 0 1-59 137l22 22a20 20 0 0 1-28 28l-23-22a229 229 0 0 1-136 57v32a20 20 0 1 1-41 0v-32a257 257 0 0 1-140-53l-18 18a20 20 0 0 1-29-28l19-18a266 266 0 0 1-61-141h-23a20 20 0 1 1 0-40h23a253 253 0 0 1 59-147l-13-12a20 20 0 0 1 0-28 20 20 0 0 1 29 0l12 12a248 248 0 0 1 147-59v-20a20 20 0 1 1 40 0v22a230 230 0 0 1 138 63z m-164 392a207 207 0 1 0-143-357c0 2-2 4-4 6s-4 2-6 4a195 195 0 0 0-57 138 209 209 0 0 0 210 209z m455 112a20 20 0 1 0 0-40 27 27 0 0 1-26-27 20 20 0 1 0-41 0 65 65 0 0 0 67 67z m346-797l-273 472a51 51 0 0 1-89 0l-273-472a46 46 0 0 1 0-51 53 53 0 0 1 45-26h545a53 53 0 0 1 45 26 56 56 0 0 1 0 51z m-37-30c0-2-4-6-10-6h-543a13 13 0 0 0-10 6 9 9 0 0 0 0 10l272 472a14 14 0 0 0 11 6 11 11 0 0 0 10-6l272-472a9 9 0 0 0-2-10z m-305 158v141a22 22 0 0 0 45 0v-141a22 22 0 0 0-45 0z m59-81a35 35 0 1 0-34 35 36 36 0 0 0 34-35z m-657 486a101 101 0 0 0 102 102 20 20 0 0 0 0-41 60 60 0 0 1-61-61 20 20 0 1 0-41 0z m82-71a92 92 0 1 1 91 91 91 91 0 0 1-91-91z m91 51a51 51 0 1 0-51-51 50 50 0 0 0 51 51z m265 203h0a161 161 0 0 1 32-81 24 24 0 0 1 0-29 20 20 0 0 1 29 0 161 161 0 0 1 81-32h0a20 20 0 1 1 40 0v2a146 146 0 0 1 76 36l6-6a20 20 0 0 1 28 0 20 20 0 0 1 0 29l-8 8a152 152 0 0 1 26 73h15a20 20 0 1 1 0 41h-17a135 135 0 0 1-30 67l12 12a20 20 0 0 1-28 28l-12-12a168 168 0 0 1-68 31v16a20 20 0 0 1-40 0v-14a152 152 0 0 1-73-27l-8 8a20 20 0 1 1-29-28l6-6a163 163 0 0 1-36-75h-2a20 20 0 1 1 0-41z m270 14a116 116 0 0 0-116-116 112 112 0 0 0-75 29 14 14 0 0 1-12 12 123 123 0 0 0-29 75 116 116 0 0 0 232 0z" horiz-adv-x="1102" />

<glyph glyph-name="medicine" unicode="&#xe807;" d="M22-119h90a89 89 0 0 1 87 68l268-91a100 100 0 0 1 33-6 102 102 0 0 1 51 14l406 236a79 79 0 0 1-31 147c2 5 5 10 7 16 31 10 65 6 65 31v100a20 20 0 0 1-15 19l-50 13c-3 7-6 14-9 21l26 44a20 20 0 0 1-2 24l-71 71a20 20 0 0 1-24 3l-45-27c-7 3-14 6-21 9l-12 50a20 20 0 0 1-19 15h-100a20 20 0 0 1-19-15l-13-50q-11-4-21-9l-44 27c-23 14-34-19-95-74a20 20 0 0 1-3-24l27-44q-5-10-9-21c-33-11-65-7-65-32v-100a20 20 0 0 1 15-19l50-12q4-11 9-21l-12-20h-23a107 107 0 0 0-85 42 147 147 0 0 1-116 57h-58a89 89 0 0 1-81 53h-91a20 20 0 0 1-20-19v-456a20 20 0 0 1 20-20z m431 431v68c36 12 55 8 60 25 11 36 23 40 14 55l-24 40 48 49c34-18 44-34 61-25a200 200 0 0 0 35 14 20 20 0 0 1 13 15l12 45h68l11-45a20 20 0 0 1 14-15 200 200 0 0 0 35-14 20 20 0 0 1 19 0l41 25 48-49-24-40a20 20 0 0 1-1-20 221 221 0 0 0 15-35 20 20 0 0 1 14-13l46-12v-68l-46-11c-16-4-11-17-29-49a20 20 0 0 1-2-11l-238-96a80 80 0 0 1-79 79h-42l5 8c9 15-3 20-14 55a20 20 0 0 1-14 14z m-251-29h50a107 107 0 0 0 84-41c55-73 137-56 150-58 1 0 0 0 2 0h76a40 40 0 0 0 0-80h-149a20 20 0 1 1 0-40h149a78 78 0 0 1 62 31l278 112a39 39 0 0 0 54-36c0-41-25-29-427-271a62 62 0 0 0-51-5l-278 95z m-160 53h70a49 49 0 0 0 49-39v-321a20 20 0 0 1 1-6v0a49 49 0 0 0-50-49h-70z m664-131a141 141 0 1 1-142 141 142 142 0 0 1 142-141z m0 243a102 102 0 1 0-102-102 102 102 0 0 0 102 102z m-689 100l39-10q3-7 6-13l-21-34a20 20 0 0 1 3-25l57-57a20 20 0 0 1 24-3l34 21c5-2 9-4 14-6l9-38a20 20 0 0 1 20-16h81a20 20 0 0 1 19 16l10 38c4 2 9 4 13 6l34-21a20 20 0 0 1 25 3c41 48 73 59 60 82l-21 34c2 4 4 9 6 13 22 9 54 5 54 29v81a20 20 0 0 1-15 19l-39 10c-2 5-4 9-6 14l21 34a20 20 0 0 1-3 24l-57 57a20 20 0 0 1-25 3l-34-20c-4 2-9 4-13 5l-10 39a20 20 0 0 1-19 15h-81a20 20 0 0 1-19-15l-10-39c-5-2-9-3-14-5l-34 20a20 20 0 0 1-24-3l-57-57a20 20 0 0 1-3-25l21-34c-3-4-4-8-6-13l-39-10a20 20 0 0 1-15-19v-81a20 20 0 0 1 15-19z m25 84l34 9a20 20 0 0 1 14 13 157 157 0 0 0 12 28 20 20 0 0 1-1 20l-18 30 35 35 30-18a20 20 0 0 1 20-1 160 160 0 0 0 28 12 20 20 0 0 1 13 14l9 34h49l9-34a20 20 0 0 1 13-14 153 153 0 0 0 28-12 20 20 0 0 1 20 1l30 18 35-35-19-30a20 20 0 0 1 0-20 168 168 0 0 0 12-28c5-17 23-13 48-22v-49l-34-9a20 20 0 0 1-14-13 160 160 0 0 0-12-28 20 20 0 0 1 0-20l19-30-35-35-31 19a20 20 0 0 1-19 0 153 153 0 0 0-28-11 20 20 0 0 1-14-15l-8-34h-50l-8 34a20 20 0 0 1-13 15 153 153 0 0 0-28 11 20 20 0 0 1-20 0l-30-19-35 35 18 30a20 20 0 0 1 1 20 162 162 0 0 0-12 28 20 20 0 0 1-14 13l-34 9v49z m200-141a116 116 0 1 1-116 117 117 117 0 0 1 116-117z m0 193a77 77 0 1 0-76-76 77 77 0 0 0 76 76z" horiz-adv-x="1000" />

<glyph glyph-name="pc" unicode="&#xe808;" d="M1131 843h-1065a59 59 0 0 1-59-59v-710a59 59 0 0 1 59-59h397l-85-92a40 40 0 0 1 29-66h383a40 40 0 0 1 29 66l-84 92h396a59 59 0 0 1 60 59v710a59 59 0 0 1-60 59z m-1065-39h1065a20 20 0 0 0 20-20v-572h-1105v572a20 20 0 0 0 20 20z m725-908h-384l109 119h165z m340 158h-1065a20 20 0 0 0-20 20v98h1105v-98a20 20 0 0 0-20-20z m-572 59a40 40 0 1 1 40 40 40 40 0 0 1-40-40z" horiz-adv-x="1197" />

<glyph glyph-name="assignment-return" unicode="&#xe809;" d="M743 638v-628c0-19 0-38 0-57v0a26 26 0 0 0 0-3 28 28 0 0 0 0-3c-1-1-1-2-1-3 1 3 1 4 1 2a113 113 0 0 0-4-13 15 15 0 0 0-1-4l0 1a81 81 0 0 0-3-7c-2-2-3-4-4-6s0-1 1 1c-1-1-2-2-3-2a94 94 0 0 0-10-10c-3-3 3 1 1 0-1-1-2-1-3-2-2-1-4-2-6-3-2-1-5-4-6-3 0 0 4 1 1 0-2 0-3-1-4-1a50 50 0 0 0-7-2c-1 0-3-1-4-1-3-1 1 0 1 0-1-1-8 0-9 0h-581c-2 0-4 0-6 0-5 0 4-1-1 0 0 0-1 0-2 1-3 0-5 1-7 1-1 1-2 1-4 1a15 15 0 0 0-1 1c-3 1-2 1 1 0-2-1-5 2-7 3-1 0-3 2-5 3l-3 2c-3 2 1-1 1-1-2 0-4 4-6 5a53 53 0 0 0-5 5l-1 2c-4 4 2-4-1 0a104 104 0 0 0-6 12c-1 2-1 5-1 0 0 1 0 2-1 3 0 2-1 4-2 7s-1 4-1 6c-1 5 0-3 0 0 0 2 0 3 0 5s0 4 0 6v682c0 2 0 5 0 8 0 4 0-2 0-2-1 1 0 4 0 4 1 3 1 5 2 7 1 2 1 4 2 6 1 3-2-4 0 0 0 1 1 2 2 4a55 55 0 0 0 3 5l2 3c1 2 0 3 0 0 0 2 3 4 4 5a64 64 0 0 0 5 5c1 1 2 2 3 3 3 2-1-1-1-1 0 1 5 3 6 4 2 1 4 2 6 3 1 1 2 1 3 1 2 1 1 1-2 0l3 1a78 78 0 0 0 13 3c2 0 3 0-1 0a15 15 0 0 1 3 0c2 0 4 1 6 1h182a21 21 0 0 1 21 20c0 3 0 6 0 9 0 0 1 5 0 2s1 0 1 1a109 109 0 0 0 4 16c0 1 1 2 1 3 1 3 0 3 0 0 0 2 2 5 3 7a99 99 0 0 0 8 13l1 1c1 2 1 2-1 0 0 0 2 2 2 2 2 2 4 4 5 6s4 3 5 4c1 1 2 2 3 3l3 2c-3-2-3-2-2-1 4 2 8 5 12 8 2 1 5 2 7 3a11 11 0 0 0 3 1c-3-1-3-1-1 0l2 1a92 92 0 0 0 15 4c1 0 2 0 3 0 0 1 1 1 1 1 3 0 2 0-1 0 1 1 7 0 9 0a136 136 0 0 0 16 0c5-1-5 1 0 0 1 0 2-1 3-1 3 0 6-1 9-2 2-1 5-1 7-2a19 19 0 0 0 4-2c-1 1-4 2-1 1a114 114 0 0 0 14-8c2-1 4-3 6-4 4-2-4 3 0 0 1-1 2-2 3-2a113 113 0 0 0 10-11c1-1 3-3 3-3-2 2-2 3-1 1l2-2c1-3 3-5 4-7s3-5 4-8c1-1 1-2 2-3 2-4-1 3 0 0a145 145 0 0 0 5-18c0-1 1-3 1-4 1-4 0 5 0 0 0-3 0-7 1-10a21 21 0 0 1 20-21h183c1 0 3 0 4 0a26 26 0 0 1 3 0c5-1-5 1 0 0a101 101 0 0 0 12-3l3-1c5-2-4 2 0 0 2-1 4-2 6-3s4-2 5-4a18 18 0 0 1 3-1c2-1-3 3-1 0a95 95 0 0 0 10-9l2-2c3-3-1 2 0 0s2-3 3-5c1-2 2-4 3-6a27 27 0 0 0 2-3c1-3-2 3-1 1a107 107 0 0 0 4-13c0-1 0-2 1-3 1-5-1 5 0 0 0-3 0-5 0-8a21 21 0 0 1 42 0 102 102 0 0 1-58 91 105 105 0 0 1-44 10h-182l21-20a131 131 0 0 1-86 120 129 129 0 0 1-140-38 132 132 0 0 1-32-83l21 21h-180a103 103 0 0 1-90-52 110 110 0 0 1-13-54v-678a103 103 0 0 1 31-74 104 104 0 0 1 73-29h568a125 125 0 0 1 40 5 103 103 0 0 1 70 96v685a21 21 0 1 1-41 0z m-346 79c0-5 1 4 0 0 0-1-2-4 0-2 1 4-1-1-1-1-1-2 2 3 0 0-4-2 4 3 0 0-1 0-4-2-1 0s-1 0-2-1c-4-1 5 0 0 0s4-1 0 0c-1 1-4 2-1 1s-1 0-1 0c-4 2 3-2 0 0-3 3 1-2 0 0 0 0-3 5-1 1 1-2 0 1 0 2-2 4 0-5 0 0-1 4-1-3 0-1a25 25 0 0 0 1 4c-2-3-2-4-1-2a7 7 0 0 0 1 2c2 4-3-4 0 0 2 2-3-2-1-1a29 29 0 0 0 3 2c-3-1-3-1-2-1a14 14 0 0 0 2 1c4 1-4-1 0-1 4 0-2 2 0 1a26 26 0 0 0 3-1c-2 1-3 1-2 0a16 16 0 0 0 2-1c3-1-2 2 0 1 3-3-1 0-1 1a23 23 0 0 0 2-4c-1 3-1 4 0 2a15 15 0 0 1 0-2c1-4 0 4 0 0a21 21 0 0 1 42 0 46 46 0 0 1-31 43 45 45 0 0 1-49-13 45 45 0 1 1 80-30 21 21 0 0 1-21 21 21 21 0 0 1-21-21z m177-433q-34-33-67-66-52-52-104-104c-8-8-16-16-24-24h29q-33 33-66 66-53 52-105 104c-8 8-16 16-24 24-5-12-10-24-15-36h125a21 21 0 0 1 21 21v231l-21-21h140l-21 21v-231a21 21 0 0 1 21-21h125a21 21 0 1 1 0 42h-125l21-21v231a21 21 0 0 1-21 21h-140a21 21 0 0 1-21-21v-231l21 21h-125a21 21 0 0 1-14-36q33-32 66-65 52-52 105-104c8-8 16-16 24-24a21 21 0 0 1 29 0q33 32 66 65 53 52 105 104c8 8 16 16 24 24a21 21 0 0 1 0 30 22 22 0 0 1-29 0z" horiz-adv-x="786" />

<glyph glyph-name="contractor-management" unicode="&#xe80a;" d="M222 454a169 169 0 0 1 252-146v8l-17 22-2 1a128 128 0 0 0-66-17 132 132 0 0 0-40 257 82 82 0 0 0 18 41 166 166 0 0 1-145-166z m21-262a16 16 0 0 1-19-1l-37-25a501 501 0 0 0-89 89l27 40a18 18 0 0 1 1 18 283 283 0 0 0-25 62 17 17 0 0 1-14 13l-48 9a454 454 0 0 0 0 125l52 11a17 17 0 0 1 14 12 262 262 0 0 0 24 56 16 16 0 0 1-1 19l-30 44a501 501 0 0 0 89 89l48-32a18 18 0 0 1 18-1 335 335 0 0 0 53 22 17 17 0 0 1 13 14l10 55a454 454 0 0 0 125 0l11-54a237 237 0 0 0 31 27l-9 46a17 17 0 0 1-15 14 537 537 0 0 1-162 0 19 19 0 0 1-15-14l-11-58a262 262 0 0 1-39-15l-48 34a17 17 0 0 1-21 0 529 529 0 0 1-114-114 17 17 0 0 1 0-21l31-47c-7-14-13-27-18-41l-55-11a17 17 0 0 1-14-15 537 537 0 0 1 0-161 19 19 0 0 1 14-16l50-9a337 337 0 0 1 19-47l-28-42a17 17 0 0 1 0-21 529 529 0 0 1 113-114 17 17 0 0 1 21 0l40 27c10-6 22-11 32-15a278 278 0 0 0 16 32 167 167 0 0 0-40 16z m751-113l-7 31v1a155 155 0 0 1-73 101c-1 0-1 1-2 1a9 9 0 0 1-5 3c-2 1-3 2-6 2-1 0-1 1-2 1a57 57 0 0 1-8 4h-5l-76 26h0a58 58 0 0 0-3-14l-5-20 61-21-14-122v-5h-122l6 25h-7a64 64 0 0 0-29 8l-10-47h0l-6-27v-140h-21v251l-18 18-17-18v-251h-21v139l-16 74a54 54 0 0 0-35-9l6-24h-126v5l-12 123 61 21-6 21a58 58 0 0 0-2 14h0l-77-27h-4l-7-4c-1 0-3-1-4-1-2-1-3-1-6-2s-3-2-5-4c-1 0-1-1-3-1a155 155 0 0 1-73-102l-38-175a18 18 0 0 1 11-21c10-4 18-6 27-10 3-1 5-1 7-2 7-2 15-5 22-7 3-1 5-1 6-2 9-2 17-5 27-7h1l28-7c1 0 2 0 2-1h2c3 0 4-1 6-1l18-4c3-1 7-1 11-2 7-1 13-3 20-4 5-1 9-1 14-2 7-1 13-2 20-4 3 0 7-1 11-1 6-1 12-1 18-2 3 0 7-1 10-1a207 207 0 0 1 27-3h1c9-1 19-1 29-2h7c8 0 15-1 23-1h71a156 156 0 0 1 23 1h7a226 226 0 0 1 28 2h1c10 2 19 2 27 3 4 0 7 1 10 1 6 1 12 1 18 2 3 0 8 1 12 1 5 2 12 3 18 4 5 1 9 1 15 2 7 1 13 3 20 4 3 1 8 1 12 2l17 4c2 0 3 1 6 1 1 0 2 0 2 1 1 0 2 0 2 1l28 7h1c10 2 18 5 27 7 2 1 4 1 6 2 7 3 15 5 22 7 2 1 5 1 7 3 9 3 19 5 27 9a18 18 0 0 1 11 21z m-44-149a27 27 0 0 0-9-2 326 326 0 0 0-36-10h-1l-19 153 12 109a9 9 0 0 1 4-3c2-1 3-1 4-2 2-2 5-3 7-6 2-1 3-3 6-4l3-4a51 51 0 0 0 7-8c1-1 2-2 2-3 3-3 4-6 6-9 1-2 3-3 4-5s2-4 3-6c1-4 4-7 5-11 0-1 0-1 1-2l3-14 35-160c-13-5-25-8-37-13z m-96 101l4-36h-141v26l2 10z m-137-72h146l6-49c-3 0-4-1-6-1-1 0-4-1-5-1-12-2-26-5-39-7-2 0-5-1-7-1a335 335 0 0 0-34-5c-2 0-6-1-8-1-13-1-25-2-39-3h-14z m-150-71h-14c-13 1-26 3-40 4-2 0-5 1-8 1-11 1-22 3-33 4-3 0-5 2-7 2-13 2-27 4-40 7-2 0-3 1-6 1s-3 1-5 1l5 49h147v-69z m-2 143l2-10v-26h-143l5 36z m-168 40l-18-153h-1c-12 4-24 6-36 10a27 27 0 0 1-10 2 327 327 0 0 0-36 12h0l35 160 4 14c0 1 0 1 1 2a41 41 0 0 0 4 11c2 2 3 3 4 6s2 3 3 5c3 3 4 6 6 9 1 1 3 2 3 3 2 2 4 6 6 8l4 4 6 5c2 3 4 4 7 6 1 1 2 1 3 3a9 9 0 0 0 5 2z m375 202a185 185 0 0 0-38-29l-17-63-41 42a176 176 0 0 0-70 0l-40-42-18 63a185 185 0 0 0-38 29v-22a7 7 0 0 1 1-5l29-106a18 18 0 0 1 13-12h5a19 19 0 0 1 12 5l61 63h22l60-63a17 17 0 0 1 18-4 18 18 0 0 1 12 12l29 106c0 1 2 4 2 5v21z m-286 87l33-44a156 156 0 0 1 122-61 153 153 0 0 1 122 61l34 44a156 156 0 0 1 31 80v46h-36v-33a94 94 0 0 0-1-19 123 123 0 0 0-22-52l-34-44a116 116 0 0 0-185 0l-34 44a122 122 0 0 0-25 71v33h-37v-33a157 157 0 0 1 32-93z m-60 163h430a44 44 0 0 1 0 89h-1a218 218 0 0 1-151 174 43 43 0 0 1-40 24h-46a44 44 0 0 1-39-25 215 215 0 0 1-149-173h-1a43 43 0 0 1-42-44 40 40 0 0 1 39-45z m0 53h429c3 0 6-4 6-8a8 8 0 0 0-6-9h-427c-4 0-6 4-6 9-1 4 1 8 4 8z m147 169v-37a17 17 0 0 1 17-17 18 18 0 0 1 18 17v58a8 8 0 0 0 8 8h46a8 8 0 0 0 8-8v-58a17 17 0 0 1 18-17 18 18 0 0 1 17 17v38a180 180 0 0 0 109-134h-349a179 179 0 0 0 108 133z" horiz-adv-x="1024" />

<glyph glyph-name="audit-contractors" unicode="&#xe80b;" d="M644 711h-67a160 160 0 0 1-157 139 162 162 0 0 1-159-139h-65a70 70 0 0 1-70-69v-57h-57a69 69 0 0 1-69-69v-597a70 70 0 0 1 69-69h447a70 70 0 0 1 70 69v57h57a70 70 0 0 1 69 70v596a68 68 0 0 1-68 69z m-224 95a117 117 0 1 0-117-117 117 117 0 0 0 117 117z m123-886a26 26 0 0 0-26-25h-446a26 26 0 0 0-27 25v597a26 26 0 0 0 26 25h57v-496a70 70 0 0 1 70-70h347v-56z m126 126a26 26 0 0 0-25-26h-448a26 26 0 0 0-26 26v596a27 27 0 0 0 26 26h65a160 160 0 0 1 317 0h66a26 26 0 0 0 25-26z m-105 212h-290a22 22 0 0 1 0-44h290a22 22 0 0 1 22 22 22 22 0 0 1-22 22z m0-107h-290a22 22 0 0 1 0-44h290a22 22 0 0 1 22 22 22 22 0 0 1-22 22z m0 215h-290a22 22 0 0 1 0-44h290a22 22 0 0 1 0 44z m0 108h-290a22 22 0 0 1 0-44h290a22 22 0 0 1 22 22 22 22 0 0 1-22 22z m-177 163a22 22 0 0 1 16-8 19 19 0 0 1 16 8l59 64a22 22 0 0 1-31 29l-44-47-16 17a22 22 0 1 1-32-30z" horiz-adv-x="712" />

<glyph glyph-name="conference" unicode="&#xe80c;" d="M1083 405h-65a222 222 0 0 1-116 143 167 167 0 1 1-194 0 222 222 0 0 1-116-143h-73a222 222 0 0 1-117 143 167 167 0 1 1-194 0 222 222 0 0 1-116-143h-64a28 28 0 0 1-28-27v-111a28 28 0 0 1 28-28h28v-361a28 28 0 0 1 27-28h944a28 28 0 0 1 28 28v361h28a28 28 0 0 1 28 27v111a28 28 0 0 1-28 28z m-389 278a111 111 0 1 0 111-111 111 111 0 0 0-111 111z m111-167a167 167 0 0 0 156-111h-312a167 167 0 0 0 156 111z m-611 167a111 111 0 1 0 111-111 111 111 0 0 0-111 111z m111-167a167 167 0 0 0 157-111h-313a167 167 0 0 0 156 111z m-194-611v56h888v-56z m888 112h-888v222h888z m56 277h-999v56h999z" horiz-adv-x="1110" />

<glyph glyph-name="medical" unicode="&#xe80d;" d="M200 396h102v-102a12 12 0 0 1 13-12h149a12 12 0 0 1 12 12v102h102a12 12 0 0 1 12 12v149a12 12 0 0 1-12 13h-102v102a12 12 0 0 1-12 12h-149a12 12 0 0 1-13-12v-102h-102a12 12 0 0 1-12-13v-149a12 12 0 0 1 12-12z m13 149h102a12 12 0 0 1 12 12v102h125v-102a12 12 0 0 1 12-12h102v-125h-102a12 12 0 0 1-12-12v-102h-125v102a12 12 0 0 1-12 12h-102z m-97 293a104 104 0 0 1-104-104v-768a104 104 0 0 1 104-104h546a104 104 0 0 1 105 104v768a104 104 0 0 1-105 104z m626-104v-768a80 80 0 0 0-80-80h-546a80 80 0 0 0-80 80v768a80 80 0 0 0 80 80h546a80 80 0 0 0 80-80z m-112-570h-482a12 12 0 0 1 0-25h482a12 12 0 0 1 0 25z m0-95h-482a12 12 0 0 1 0-25h482a12 12 0 0 1 0 25z" horiz-adv-x="778" />

<glyph glyph-name="mail" unicode="&#xe80e;" d="M244 570a64 64 0 0 1-64-64v-319a64 64 0 0 1 64-64h526a64 64 0 0 1 64 64v319a64 64 0 0 1-64 64z m0-32h526a32 32 0 0 0 13-3l-256-228a28 28 0 0 0-39 0l-257 228a32 32 0 0 0 13 3z m-32-29l184-163-181-173a33 33 0 0 0-3 14v319c0 1 0 2 0 3z m590 0c0-1 0-2 0-3v-319a33 33 0 0 0-3-14l-180 173 183 163z m-207-184l176-170h-528l177 169 46-41a61 61 0 0 1 82 0l47 42z" horiz-adv-x="1000" />

<glyph glyph-name="movil" unicode="&#xe80f;" d="M660 52a442 442 0 0 0-440 440 139 139 0 0 0 138 138h0a137 137 0 0 0 69-19 120 120 0 0 0 18-13 24 24 0 0 0 8-14l24-149a24 24 0 0 0-3-17 130 130 0 0 0-29-32 240 240 0 0 1 109-110 130 130 0 0 0 33 29 24 24 0 0 0 16 4l149-24a24 24 0 0 0 14-8 123 123 0 0 0 13-18 137 137 0 0 0-118-207z m-302 530a90 90 0 0 1-90-90 393 393 0 0 1 392-392 90 90 0 0 1 90 90 88 88 0 0 1-12 44c-1 2-2 4-3 5l-130 21a89 89 0 0 1-22-26 24 24 0 0 0-30-10 288 288 0 0 0-161 161 24 24 0 0 0 10 30 90 90 0 0 1 26 22l-21 130c-1 1-3 2-5 3a88 88 0 0 1-44 12z" horiz-adv-x="1000" />

<glyph glyph-name="managing" unicode="&#xe810;" d="M951 467a46 46 0 0 1-45-39l-11-80a59 59 0 0 1-12 6 60 60 0 0 1-74-26l-32-59a204 204 0 0 0-64-57 202 202 0 0 1-35-27c-67-64-63-143-61-181v-13a31 31 0 0 1-17-9 30 30 0 0 1-7-24l10-80a30 30 0 0 1 31-26h176a30 30 0 0 1 30 30v80a30 30 0 0 1-30 30h-9a40 40 0 0 0 20 29c45 22 175 109 175 208v193a45 45 0 0 1-45 45z m-142-584h-175l-10 78 185 1z m156 346c0-76-109-155-158-181a72 72 0 0 1-37-54 10 10 0 0 1 0-2h-122v13c-1 36-4 103 52 157a165 165 0 0 0 29 22 237 237 0 0 1 74 67l33 60a30 30 0 0 0 25 15 28 28 0 0 0 28-27l-4-32a55 55 0 0 0-15-31l-24-23a115 115 0 0 1-32-64 16 16 0 0 1 15-18h0a16 16 0 0 1 16 13 85 85 0 0 0 24 47l23 23a85 85 0 0 1 24 49l21 161a14 14 0 0 0 28-2z m-304-320a14 14 0 1 1-14 14 14 14 0 0 1 14-14z m-280 83v13c1 38 5 116-61 180a191 191 0 0 1-35 27 204 204 0 0 0-64 58l-33 59a60 60 0 0 1-74 26 55 55 0 0 1-12-7l-10 80a45 45 0 0 1-90-6v-193c0-99 130-186 175-208a40 40 0 0 0 20-29h-9a30 30 0 0 1-30-30v-80a30 30 0 0 1 30-30h177a31 31 0 0 1 30 26l10 80a30 30 0 0 1-8 24 31 31 0 0 1-16 10z m-190 56c-49 25-158 105-158 181v193a14 14 0 0 0 14 14 14 14 0 0 0 14-12l21-159a85 85 0 0 1 25-50l23-23a85 85 0 0 0 24-47 16 16 0 0 1 15-13h0a16 16 0 0 1 16 18 116 116 0 0 1-33 64l-23 23a55 55 0 0 0-16 31l-4 31a28 28 0 0 0 23 27 30 30 0 0 0 31-16l32-58 1-1a236 236 0 0 1 73-67 155 155 0 0 0 30-22c56-55 53-121 51-157v-13h-122v2a72 72 0 0 1-37 54z m174-165h-176v78l185 1z m-28 26a14 14 0 1 1-14 14 14 14 0 0 1 14-14z m161 799a140 140 0 1 1 140-140 140 140 0 0 1-140 140z m0-249a109 109 0 1 0 109 109 109 109 0 0 0-109-109z m156-113a16 16 0 0 1 20 2l44 44a16 16 0 0 1 2 19l-33 50a219 219 0 0 1 21 49l58 11a16 16 0 0 1 12 16v62a16 16 0 0 1-12 16l-58 11a219 219 0 0 1-21 50l33 47a16 16 0 0 1-2 20l-44 45a16 16 0 0 1-20 2l-49-33a219 219 0 0 1-49 21l-11 58a16 16 0 0 1-16 12h-62a16 16 0 0 1-16-12l-11-58a219 219 0 0 1-49-21l-49 33a16 16 0 0 1-19-2l-45-44a16 16 0 0 1-2-20l33-50a219 219 0 0 1-21-49l-58-10a16 16 0 0 1-12-16v-62a16 16 0 0 1 12-16l58-11a219 219 0 0 1 21-50l-33-49a16 16 0 0 1 2-20l44-44a16 16 0 0 1 20-2l49 33a219 219 0 0 1 49-20l11-58a16 16 0 0 1 16-12h62a16 16 0 0 1 16 12l11 58a219 219 0 0 1 50 20z m-115 40a16 16 0 0 1-12-12l-11-55h-36l-11 55a16 16 0 0 1-12 12 190 190 0 0 0-59 24 16 16 0 0 1-16 0l-47-31-26 26 31 47a16 16 0 0 1 0 16 190 190 0 0 0-24 59 16 16 0 0 1-12 12l-55 11v36l55 11a16 16 0 0 1 12 12 190 190 0 0 0 24 59 16 16 0 0 1 0 16l-31 47 26 26 47-31a16 16 0 0 1 17 0 190 190 0 0 0 58 24 16 16 0 0 1 12 12l11 55h36l11-55a16 16 0 0 1 12-12 190 190 0 0 0 59-24 16 16 0 0 1 17 0l46 31 26-26-31-47a16 16 0 0 1 0-17 190 190 0 0 0 24-58 16 16 0 0 1 13-12l54-11v-37l-54-11a16 16 0 0 1-13-12 190 190 0 0 0-24-58 16 16 0 0 1 0-17l31-47-26-25-46 31a16 16 0 0 1-17 0 190 190 0 0 0-59-24z" horiz-adv-x="998" />

<glyph glyph-name="arrow-gst-rigth" unicode="&#xe811;" d="M794 277l-638-405a95 95 0 0 0-156 73l0 810a95 95 0 0 0 156 73l638-405a96 96 0 0 0 0-146z" horiz-adv-x="827" />

<glyph glyph-name="quotation-mark" unicode="&#xe812;" d="M1232-150a253 253 0 0 1 252 252v173a253 253 0 0 1-252 252h-94a2033 2033 0 0 0 53 261 51 51 0 0 1-46 62c-54 0-94-33-130-74a733 733 0 0 1-102-149c-60-114-107-243-107-341v-184a253 253 0 0 1 252-252z m-807 0a253 253 0 0 1 252 252v173a253 253 0 0 1-252 252h-94a2033 2033 0 0 0 54 261 51 51 0 0 1-46 62c-54 0-94-33-131-74a733 733 0 0 1-101-149c-61-114-107-243-107-341v-184a253 253 0 0 1 252-252z m807 97h-173a154 154 0 0 0-156 155v184c0 64 40 192 96 296a694 694 0 0 0 70 107c-14-67-26-133-36-203a51 51 0 0 1 48-55h151a154 154 0 0 0 155-156v-173a154 154 0 0 0-155-155z m-807 0h-173a154 154 0 0 0-155 155v184c0 64 40 192 95 296a694 694 0 0 0 71 107c-15-67-27-133-37-203a51 51 0 0 1 48-55h151a154 154 0 0 0 156-156v-173a154 154 0 0 0-156-155z" horiz-adv-x="1484" />

<glyph glyph-name="management" unicode="&#xe813;" d="M500 744a15 15 0 0 1 15 15v19a15 15 0 0 1-30 0v-18a15 15 0 0 1 15-16z m15-263v19a15 15 0 1 1-30 0v-19a15 15 0 0 1 30 0z m77 225a15 15 0 0 1 10 5l14 13a15 15 0 0 1-21 21l-14-13a15 15 0 0 1 11-26z m-194-157l-14-14a15 15 0 0 1 22-21l13 13a15 15 0 0 1-21 22z m217 81a15 15 0 0 1 15-15h19a15 15 0 1 1 0 30h-19a15 15 0 0 1-15-15z m-230 0a15 15 0 0 1-15 15h-19a15 15 0 1 1 0-30h19a15 15 0 0 1 15 15z m210-116a15 15 0 0 1 21 21l-14 14a15 15 0 0 1-21-22z m-189 231a15 15 0 1 1-22-21l14-13a15 15 0 0 1 21 21z m109-119v87a15 15 0 1 1-30 0v-80l-30-27a15 15 0 1 1 20-22l35 31a15 15 0 0 1 5 11z m-497-773h275a15 15 0 0 1 15 15v71a99 99 0 0 1-90 96c0 0 0 0 0 0a15 15 0 0 1-4 0 15 15 0 0 1-2-1 15 15 0 0 1-3-1 15 15 0 0 1-2-1 15 15 0 0 1-2-3 15 15 0 0 1-2-2c0 0 0 0 0-1a52 52 0 0 0-95 0c0 1 0 1 0 1a14 14 0 0 1-1 2 15 15 0 0 1-3 3c0 0 0 0-1 0a15 15 0 0 1-4 2 15 15 0 0 1-1 1 15 15 0 0 1-4 0c0 0-1 0-1 0a99 99 0 0 1-90-96v-71a15 15 0 0 1 15-15z m15 86a68 68 0 0 0 54 64 82 82 0 0 1 137 0 68 68 0 0 0 54-64v-56h-34v41a15 15 0 0 1-31 0v-41h-115v41a15 15 0 0 1-30 0v-41h-35z m123 90c49 0 85 65 85 109a85 85 0 1 1-171 0c0-44 36-109 86-109z m0 165a55 55 0 0 0 55-56c0-33-28-79-55-79s-56 46-56 79a55 55 0 0 0 56 56z m0 58a15 15 0 0 1 15 15v53h654v-53a15 15 0 1 1 30 0v68a15 15 0 0 1-15 15h-325v63a218 218 0 1 1-30 0v-63h-329a15 15 0 0 1-15-15v-68a15 15 0 0 1 15-15z m157 378a187 187 0 1 0 187-188 188 188 0 0 0-187 188z m589-595a15 15 0 0 1-3 0 15 15 0 0 1-2-1 15 15 0 0 1-4-1 15 15 0 0 1-1-1 15 15 0 0 1-3-3 15 15 0 0 1-1-2c0 0 0 0-1 0a52 52 0 0 0-94 0c0 0 0 0 0 0a14 14 0 0 1-2 2 17 17 0 0 1-7 5 16 16 0 0 1-2 1 15 15 0 0 1-4 0c0 0 0 0 0 0a99 99 0 0 1-91-96v-71a15 15 0 0 1 15-15h276a15 15 0 0 1 15 15v71a99 99 0 0 1-90 96c0 0-1 0-1 0z m61-96v-56h-35v41a15 15 0 1 1-30 0v-41h-116v41a15 15 0 0 1-30 0v-41h-35v56a68 68 0 0 0 54 64 82 82 0 0 1 138 0 68 68 0 0 0 54-64z m-208 199c0-44 36-109 85-109s86 65 86 109a85 85 0 1 1-171 0z m141 0c0-33-28-79-56-79s-55 46-55 79a55 55 0 1 0 110 0z" horiz-adv-x="996" />

<glyph glyph-name="centric" unicode="&#xe814;" d="M501 500a151 151 0 1 1 151-151 152 152 0 0 1-151 151z m0-228a78 78 0 1 0 77 77 78 78 0 0 0-77-77z m185 225h156a37 37 0 0 1 0 74h-66l199 200a37 37 0 0 1-52 52l-200-199v66a37 37 0 1 1-73 0v-156a35 35 0 0 1 36-37z m-460 75h-66a37 37 0 1 1 0-74h156a37 37 0 0 1 37 37v155a37 37 0 1 1-74 0v-66l-200 199a35 35 0 0 1-52 0 35 35 0 0 1 0-52z m90-371h-156a37 37 0 0 1 0-73h66l-199-201a37 37 0 0 1 27-63 39 39 0 0 1 26 11l199 200v-67a37 37 0 0 1 74 0v156a37 37 0 0 1-37 37z m460-74h66a37 37 0 0 1 0 73h-156a37 37 0 0 1-37-37v-156a37 37 0 0 1 73 0v67l200-200a37 37 0 0 1 26-11 39 39 0 0 1 27 11 37 37 0 0 1 0 52z" horiz-adv-x="998" />

<glyph glyph-name="check" unicode="&#xe815;" d="M1192 850l-74-74c-203-204-420-436-623-643l-281 232-81 66-132-161 80-67 355-292 74-61 67 67c225 226 468 490 689 711l74 74z" horiz-adv-x="1340" />

<glyph glyph-name="solution" unicode="&#xe816;" d="M20 222h129a96 96 0 0 1 189 0h130a16 16 0 0 1 16 16v176a16 16 0 0 1-16 16 64 64 0 0 0 0 128 16 16 0 0 1 16 16v176a16 16 0 0 1-16 16h-130a96 96 0 0 1-189 0h-129a16 16 0 0 1-16-16v-512a16 16 0 0 1 16-16z m16 512h128a16 16 0 0 1 16 16 64 64 0 1 0 128 0 16 16 0 0 1 16-16h128v-145a96 96 0 0 1 0-190v-145h-128a16 16 0 0 1-16-16 64 64 0 0 0-128 0 16 16 0 0 1-16 16h-128z m944-336h-144a16 16 0 0 1-16-16 64 64 0 1 0-128 0 16 16 0 0 1-16 16h-128a16 16 0 0 1-16-16v-161a96 96 0 0 1 0-190v-161a16 16 0 0 1 16-16h128a16 16 0 0 1 16 16 64 64 0 0 0 128 0 16 16 0 0 1 16-16h144a16 16 0 0 1 15 16v512a16 16 0 0 1-15 16z m-16-512h-113a96 96 0 0 1-190 0h-97v160a16 16 0 0 1-16 16 64 64 0 1 0 0 128 16 16 0 0 1 16 16v160h97a96 96 0 0 1 189 0h114z" horiz-adv-x="1000" />

<glyph glyph-name="innovation" unicode="&#xe817;" d="M736 381a267 267 0 1 1-456-188 170 170 0 0 0 49-100h-14a20 20 0 0 1-20-20v-72a78 78 0 0 1 72-78v-4a70 70 0 0 1 69-69h65a70 70 0 0 1 69 69v4a78 78 0 0 1 72 78v72a20 20 0 0 1-20 20h-14a159 159 0 0 0 46 96 265 265 0 0 1 82 192z m-206-461a30 30 0 0 0-29-30h-64a30 30 0 0 0-30 30v3h123z m73 81a38 38 0 0 0-39-38h-191a38 38 0 0 0-38 38v52h268z m-35 92h-79v193l77 77a20 20 0 1 1-28 28l-69-69-69 69a20 20 0 1 1-29-28l78-77v-193h-79a209 209 0 0 1-62 128 227 227 0 1 0 318-3 200 200 0 0 1-58-125z m-79 643v94a20 20 0 1 1-40 0v-94a20 20 0 1 1 40 0z m-271-124a20 20 0 0 1 14 34l-66 67a20 20 0 0 1-29-29l67-66a20 20 0 0 1 14-6z m-218-231a20 20 0 0 1 20-20h94a20 20 0 1 1 0 40h-94a20 20 0 0 1-20-20z m137-331a20 20 0 0 1 29 0l66 67a20 20 0 0 1-28 28l-67-67a20 20 0 0 1 0-28z m663 663a20 20 0 0 1-28 0l-67-67a20 20 0 1 1 28-28l67 66a20 20 0 0 1 0 29z m137-332a20 20 0 0 1-20 20h-94a20 20 0 0 1 0-40h94a20 20 0 0 1 20 20z m-165-331a20 20 0 0 1 28 28l-66 67a20 20 0 0 1-29-28z" horiz-adv-x="937" />

<glyph glyph-name="inplant" unicode="&#xe818;" d="" horiz-adv-x="1000" />

<glyph glyph-name="software" unicode="&#xe819;" d="M365 321a78 78 0 1 1 77-78 77 77 0 0 1-77 78z m0-109a31 31 0 1 0 31 31 32 32 0 0 0-31-31z m597 285h-472a24 24 0 0 1-24-24v-39a216 216 0 0 1-319-191 217 217 0 0 1 218-217 215 215 0 0 1 102 27v-40a24 24 0 0 1 24-23h472a24 24 0 0 1 24 23v462a26 26 0 0 1-25 22z m-597-424a170 170 0 1 0 102 306v-273a178 178 0 0 0-102-33z m573-37h-424v415h424z m-317 132a23 23 0 0 1 33 0 23 23 0 0 1 0 34l-45 45 45 45a24 24 0 1 1-33 34l-62-62a23 23 0 0 1 0-34z m177 0a23 23 0 0 1 33 0l62 62a23 23 0 0 1 0 34l-62 62a24 24 0 1 1-33-34l45-45-45-45a25 25 0 0 1 0-34z m-98-35c2 0 3-2 6-2a23 23 0 0 1 22 18l42 175a24 24 0 0 1-18 29 23 23 0 0 1-28-18l-42-175a25 25 0 0 1 18-27z m387 717h-1042a45 45 0 0 1-45-45v-910a45 45 0 0 1 45-45h1042a45 45 0 0 1 45 45v910a45 45 0 0 1-45 45z m-1-45v-170h-1041v169z m-1039-909l-2 693h1041v-691z" horiz-adv-x="1132" />

<glyph glyph-name="automated" unicode="&#xe81a;" d="M200 575h-125a75 75 0 0 0-75 75v125a75 75 0 0 0 75 75h125a75 75 0 0 0 75-75v-125a75 75 0 0 0-75-75z m-125 236a36 36 0 0 1-36-36v-125a36 36 0 0 1 36-36h125a36 36 0 0 1 36 36v125a36 36 0 0 1-36 36z m125-599h-125a75 75 0 0 0-75 76v125a75 75 0 0 0 75 75h125a75 75 0 0 0 75-75v-126a75 75 0 0 0-75-75z m-125 236a36 36 0 0 1-36-35v-125a36 36 0 0 1 36-36h125a36 36 0 0 1 36 36v125a36 36 0 0 1-36 35z m125-598h-125a75 75 0 0 0-75 75v125a75 75 0 0 0 75 75h125a75 75 0 0 0 75-75v-125a75 75 0 0 0-75-75z m-125 236a36 36 0 0 1-36-36v-125a36 36 0 0 1 36-36h125a36 36 0 0 1 36 36v125a36 36 0 0 1-36 36z m545 154c-16-44-19-47-49-47-31-1-41 18-43 49-27-26-50-24-72 2-18 22-8 40 8 61-33 2-50 15-49 48 1 31 20 40 46 42-19 45-19 49 5 71 21 20 40 10 58-4 7 13 10 29 20 37a71 71 0 0 0 40 8c19-1 24-9 36-46 26 23 50 21 71-7 18-21 7-39-8-58 33-3 52-18 47-52a52 52 0 0 0-13-29 104 104 0 0 0-33-12c17-21 24-41 2-64-23-23-44-18-66 1z m34 16c13 7 15 13 6 25-18 27-8 50 24 57 7 2 15 1 14 13 0 11-7 10-14 12-32 6-42 29-24 56 9 13 6 20-7 25a214 214 0 0 0-20-11 31 31 0 0 0-43 13c-3 7-3 14-6 21a16 16 0 0 1-11 8c-4 0-8-5-11-9-2-1-1-5-2-7a33 33 0 0 0-54-23c-5 3-10 6-14 9-13-8-14-14-6-26a33 33 0 0 0-21-56c-8-1-17 1-18-12 0-14 11-12 18-13a33 33 0 0 0 23-54c-2-3-6-6-6-9a17 17 0 0 1 3-13 16 16 0 0 1 12-2c4 1 8 5 12 7a32 32 0 0 0 50-20c1-4 1-10 3-13a18 18 0 0 1 12-8c3 0 7 5 10 8 2 2 1 6 2 9a33 33 0 0 0 54 22c5-3 9-6 14-9z m-19 95a62 62 0 1 0-63 62 63 63 0 0 0 63-62z m-32 0a30 30 0 0 1-30 30 31 31 0 0 1-30-32 30 30 0 0 1 30-28 29 29 0 0 1 30 30z m-30 178a20 20 0 0 0-20 20c0 61-16 104-48 128-54 40-138 17-139 17a20 20 0 0 0-11 37c4 2 103 30 173-23 43-32 65-85 65-159a20 20 0 0 0-20-20z m20-378c0-74-21-127-62-159a167 167 0 0 0-103-32 262 262 0 0 0-47 5l44-43a20 20 0 0 0 0-28 19 19 0 0 0-14-6 20 20 0 0 0-14 6l-82 79a20 20 0 0 0 0 29l82 79a20 20 0 1 0 28-28l-49-47c13-3 84-20 132 17 31 24 46 67 46 128a20 20 0 0 0 19 20 19 19 0 0 0 20-20z" horiz-adv-x="731" />

<glyph glyph-name="audit" unicode="&#xe81b;" d="M703 52l-160 189a252 252 0 1 1-135-75l78-237a125 125 0 1 1 217 122z m-522 261a203 203 0 1 0 122-97 204 204 0 0 0-122 97z m498-354a78 78 0 0 0-148-14l-77 235a239 239 0 0 1 53 29l158-187a78 78 0 0 0 14-63z m-422 534h204a24 24 0 1 1 0 48h-204a24 24 0 1 1 0-48z m0-104h204a24 24 0 1 1 0 47h-204a24 24 0 1 1 0-47z m228-81a24 24 0 0 1-24 24h-204a24 24 0 1 1 0-47h204a24 24 0 0 1 24 23z m-397-276a41 41 0 0 0-40 41v689a41 41 0 0 0 40 40h544a41 41 0 0 0 40-40v-613l48-56v669a89 89 0 0 1-88 88h-544a89 89 0 0 1-88-88v-689a89 89 0 0 1 88-89h338l-15 48z" horiz-adv-x="728" />

<glyph glyph-name="arrow-gst-left" unicode="&#xe81c;" d="M33 277l638-405a95 95 0 0 1 156 73l0 810a95 95 0 0 1-156 73l-638-405a96 96 0 0 1 0-146z" horiz-adv-x="827" />

<glyph glyph-name="youtube" unicode="&#xe81d;" d="M714 850s-446 0-559-29a185 185 0 0 1-126-127 2043 2043 0 0 1 0-688 182 182 0 0 1 126-126c113-30 559-30 559-30s448 0 560 29a178 178 0 0 1 125 127 1844 1844 0 0 1 30 343 1787 1787 0 0 1-30 345 176 176 0 0 1-125 125c-112 31-560 31-560 31z m-142-286l372-214-372-214z" horiz-adv-x="1429" />

<glyph glyph-name="down-arrow" unicode="&#xe81e;" d="M1815 177l-312-39-40-6-272-34 109 162-42 27a496 496 0 0 1-82 48l-86 41a862 862 0 0 1-89 30l-45 14c-15 4-30 5-46 8a678 678 0 0 1-94 13 838 838 0 0 1-390-67 1074 1074 0 0 1-351-239 1137 1137 0 0 0 291 341 1027 1027 0 0 0 429 201 881 881 0 0 0 122 18c20 2 42 5 62 6l62-2c41-2 85 0 125-6l122-21a685 685 0 0 0 120-30l119-37c2-1 3-1 4-2l124 183z" horiz-adv-x="1815" />

<glyph glyph-name="arrow-left" unicode="&#xe81f;" d="M18 303l409-432a77 77 0 0 1 100-5 71 71 0 0 1 0 99l-301 317 978 0a68 68 0 0 1 0 136l-978 0 300 317a70 70 0 0 1 0 99 75 75 0 0 1-99-6l-409-432a69 69 0 0 1 0-93z" horiz-adv-x="1272" />

<glyph glyph-name="training" unicode="&#xe820;" d="M1066-4h-141a35 35 0 0 0 0 71h141a142 142 0 0 1 142 142v424a142 142 0 0 1-142 142h-849a142 142 0 0 1-141-142v-283a35 35 0 0 0-71 0v283a213 213 0 0 0 212 212h849a213 213 0 0 0 212-212v-424a213 213 0 0 0-212-213z m-672 566a106 106 0 1 1 106-106 106 106 0 0 1-106 106m0 71a177 177 0 1 0-177-177 177 177 0 0 0 177 177z m177-495h-354a142 142 0 0 1-141-142 71 71 0 0 1 70-71h496a71 71 0 0 1 70 71 142 142 0 0 1-141 142m0 71a212 212 0 0 0 212-213 142 142 0 0 0-142-141h-495a142 142 0 0 0-141 141 212 212 0 0 0 212 213z" horiz-adv-x="1283" />

<glyph glyph-name="whatsapp" unicode="&#xe821;" d="M4-150h-4q43 126 86 252a19 19 0 0 1-2 18 478 478 0 0 0-63 191 476 476 0 0 0 14 180 491 491 0 0 0 544 354 477 477 0 0 0 237-102 479 479 0 0 0 178-306c3-13 4-27 6-40v-69c-1-11-3-22-4-33a467 467 0 0 0-101-233 485 485 0 0 0-451-182 449 449 0 0 0-164 52 20 20 0 0 1-17 1c-61-19-122-38-183-58-25-8-50-17-76-25z m120 121c4 2 7 2 10 3 44 14 89 28 133 43a31 31 0 0 0 29-4 404 404 0 0 1 273-55 399 399 0 0 1 245 131 390 390 0 0 1 99 354 399 399 0 0 1-247 298 396 396 0 0 1-210 27 403 403 0 0 1-147-48 410 410 0 0 1-158-155 399 399 0 0 1-49-269 391 391 0 0 1 69-166 15 15 0 0 0 2-15c-15-44-30-88-45-132-1-3-2-7-4-11z m144 502a146 146 0 0 0 44 98 46 46 0 0 0 39 14 73 73 0 0 1 16-1 23 23 0 0 0 25-16c14-32 28-64 41-96a25 25 0 0 0-2-19 358 358 0 0 0-30-41 19 19 0 0 1-3-24 325 325 0 0 1 167-142 18 18 0 0 1 23 6c11 14 23 28 34 42s16 16 33 8c30-14 60-29 91-43a21 21 0 0 0 13-23c-2-54-31-82-87-99a123 123 0 0 0-73 4 559 559 0 0 0-124 50 497 497 0 0 0-140 134 320 320 0 0 0-56 97c-5 16-8 34-11 51z" horiz-adv-x="1000" />

<glyph glyph-name="arrow-rigth" unicode="&#xe822;" d="M1254 397l-409 432a77 77 0 0 1-99 5 71 71 0 0 1 0-99l300-317-978 0a68 68 0 0 1 0-136l978 0-300-317a70 70 0 0 1 0-99 75 75 0 0 1 99 6l409 432a69 69 0 0 1 0 93z" horiz-adv-x="1272" />

<glyph glyph-name="vision" unicode="&#xe823;" d="M802 483v33h34v33h-34v33h-33v-33h-33v-33h33v-33z m-680 66v-33h-33v-33h33v-33h33v33h33v33h-33v33z m-83 299v-33h-33v-33h33v-34h33v34h33v33h-33v33z m697-581v33h33v33h-33v34h-33v-34h-33v-33h33v-33z m232-17h-33v-33h-33v-33h33v-33h33v33h34v33h-34z m-170-116a116 116 0 0 1-220 9 115 115 0 0 1-41 8v33h33a17 17 0 0 1 17 17v116a17 17 0 0 1-17 16h-106l20 155h51a17 17 0 0 1 12 7l120 157 230-20a13 13 0 0 1 1 0 17 17 0 0 1 17 17v116a17 17 0 0 1-6 12 16 16 0 0 1-12 5l-395-34a17 17 0 0 1-15-16v-50a17 17 0 0 1 15-17l56-4-63-62h-22a107 107 0 0 1-45 40 83 83 0 1 1-133 27 174 174 0 0 1-40 4 164 164 0 0 1-64-12 131 131 0 0 0-52-9 131 131 0 0 0-53 9 165 165 0 0 1-64 12v-33a131 131 0 0 0 53-10 165 165 0 0 1 64-11 165 165 0 0 1 63 11 131 131 0 0 0 53 10 127 127 0 0 0 45-7 115 115 0 0 1-52-112l13-86a116 116 0 0 1-98-73 116 116 0 1 1 22-206 100 100 0 0 1 37-38v-66a66 66 0 0 1-49-50 66 66 0 1 1-18-130 66 66 0 0 1 32 8 66 66 0 0 1 98-5 64 64 0 0 1 20-3h215a17 17 0 0 1 17 16v33a115 115 0 0 1 62 19 99 99 0 0 1 175 2 96 96 0 0 1 28-4 100 100 0 1 1-5 199z m-244 166v-83h-73a98 98 0 0 1-7 83z m-34 397v20l361 30v-80z m-57-131h38a17 17 0 0 1 12 5l89 86 26-2-103-133h-142a17 17 0 0 0-16 16v11a17 17 0 0 0 16 17z m-92 182a50 50 0 1 0-50-49 50 50 0 0 0 50 49z m-70-160a83 83 0 0 0 62 28h19a74 74 0 0 0 47-17h-46a50 50 0 0 1-49-50v-11a50 50 0 0 1 49-50h67l-18-148a99 99 0 0 1-49 10 117 117 0 0 1-88 80l-14 92a83 83 0 0 0 20 66z m-94-404a17 17 0 0 1-11 11 17 17 0 0 1-5 1 17 17 0 0 1-11-5 83 83 0 1 0-15 130 17 17 0 0 1 25 11 83 83 0 0 0 163-3 17 17 0 0 1 20-14 66 66 0 0 0 14 2 66 66 0 1 0 0-133 65 65 0 0 0-29 7 17 17 0 0 1-24-9 66 66 0 0 0-127 2z m98-282a33 33 0 0 0-17 4 17 17 0 0 1-22-5 33 33 0 0 0-59 6 17 17 0 0 1-28 6 33 33 0 0 0-24-11 33 33 0 1 0 0 66 33 33 0 0 0 24-10 17 17 0 0 1 28 16 33 33 0 1 0 64 11c0 0 0-2 0-2a17 17 0 0 1 22-17 33 33 0 0 0 12 2 33 33 0 1 0 0-66z m199 0h-142a66 66 0 0 1 9 33 67 67 0 0 1-69 66 66 66 0 0 1-47 48v54a98 98 0 0 1 104 52 96 96 0 0 1 28-4 99 99 0 0 1 74 33h43v-38a116 116 0 0 1 0-223z m298 66a65 65 0 0 0-29 8 17 17 0 0 1-24-10 66 66 0 0 0-127 2 17 17 0 0 1-11 11 17 17 0 0 1-5 1 17 17 0 0 1-11-5 83 83 0 1 0-15 131 17 17 0 0 1 25 11 83 83 0 0 0 163-4 17 17 0 0 1 20-14 66 66 0 0 0 14 2 66 66 0 0 0 0-133z" horiz-adv-x="1004" />

<glyph glyph-name="calendar" unicode="&#xe824;" d="M863 776h-96v74h-52v-74h-439v74h-52v-74h-102a122 122 0 0 1-122-122v-680a125 125 0 0 1 125-124h737a129 129 0 0 1 129 129v668a129 129 0 0 1-128 129z m-741-47h102v-81h52v81h439v-81h52v81h96a82 82 0 0 0 81-82v-82h-897v89a76 76 0 0 0 75 75z m739-832h-736a78 78 0 0 0-78 78v539h897v-535a83 83 0 0 0-82-82z m-47 285h-131a26 26 0 0 1-26-26v-131a26 26 0 0 1 26-26h131a26 26 0 0 1 25 26v131a26 26 0 0 1-25 26z m-26-130h-79v79h79z m-226 130h-130a26 26 0 0 1-26-26v-131a26 26 0 0 1 26-26h130a26 26 0 0 1 26 26v131a26 26 0 0 1-26 26z m-26-130h-79v79h79z m-225 130h-131a26 26 0 0 1-26-26v-131a26 26 0 0 1 26-26h131a26 26 0 0 1 26 26v131a26 26 0 0 1-26 26z m-26-130h-79v79h79z m529 382h-131a26 26 0 0 1-26-26v-130a26 26 0 0 1 26-26h131a26 26 0 0 1 25 26v130a26 26 0 0 1-25 26z m-26-130h-79v79h79z m-226 130h-130a26 26 0 0 1-26-26v-130a26 26 0 0 1 26-26h130a26 26 0 0 1 26 26v130a26 26 0 0 1-26 26z m-26-130h-79v79h79z m-225 130h-131a26 26 0 0 1-26-26v-130a26 26 0 0 1 26-26h131a26 26 0 0 1 26 26v130a26 26 0 0 1-26 26z m-26-130h-79v79h79z" horiz-adv-x="991" />

<glyph glyph-name="document" unicode="&#xe825;" d="M764 550v1a12 12 0 0 1 0 2 2 2 0 0 1 0 0c0 1 0 2-1 3v0a18 18 0 0 1 0 2 7 7 0 0 0 0 1c-1 1-1 1-1 2a2 2 0 0 0 0 1 22 22 0 0 1-1 2 0 0 0 0 1 0 0 21 21 0 0 1-2 2c0 0 0 1 0 1 0 0-1 1-1 1a2 2 0 0 1-1 1 14 14 0 0 1-1 2l-268 268c-1 0-2 1-2 1-1 0-1 1-1 1l-1 1a2 2 0 0 1-1 0c-1 1-1 1-2 2h0a22 22 0 0 1-3 1 2 2 0 0 1 0 0l-2 1a7 7 0 0 1-1 0 18 18 0 0 1-2 0h0a25 25 0 0 1-3 1 2 2 0 0 0-1 0c0 0-1 0-1 0h-436a29 29 0 0 1-29-29v-936a29 29 0 0 1 29-29h703a29 29 0 0 1 29 29z m-99 29h-169v169z m-604-668v878h377v-239a29 29 0 0 1 29-29h239v-610z m506 551h-366a28 28 0 1 1 0-56h366a28 28 0 1 1 0 56z m0-117h-366a28 28 0 1 1 0-56h366a28 28 0 1 1 0 56z m0-117h-366a28 28 0 1 1 0-56h366a28 28 0 1 1 0 56z" horiz-adv-x="767" />

<glyph glyph-name="search" unicode="&#xe826;" d="M1006-87l-257 258a419 419 0 1 1-50-52l258-258a36 36 0 1 1 49 52z m-587 170a348 348 0 1 0 346 348 348 348 0 0 0-346-348z" horiz-adv-x="1019" />

<glyph glyph-name="monitor" unicode="&#xe827;" d="M895 844h-790a99 99 0 0 1-99-99v-527a99 99 0 0 1 99-99h230v-65a99 99 0 0 1-98-99v-66a33 33 0 0 1 32-33h462a33 33 0 0 1 33 33v66a99 99 0 0 1-99 99v65h230a99 99 0 0 1 99 99v527a99 99 0 0 1-99 99z m-790-66h790a33 33 0 0 0 33-33v-428h-856v428a33 33 0 0 0 33 33z m593-823v-33h-396v33a33 33 0 0 0 33 33h330a33 33 0 0 0 33-33z m-99 99h-198v65h198z m296 131h-790a33 33 0 0 0-33 33v33h856v-33a33 33 0 0 0-33-33z" horiz-adv-x="1000" />

<glyph glyph-name="research" unicode="&#xe828;" d="M536-150h-453a83 83 0 0 0-83 83v596a83 83 0 0 0 83 83h343a86 86 0 0 0 62-25l106-106a86 86 0 0 0 25-62v-486a83 83 0 0 0-83-83z m-453 714a36 36 0 0 1-35-35v-596a36 36 0 0 1 35-35h453a36 36 0 0 1 36 35v486a39 39 0 0 1-12 28l-106 105a39 39 0 0 1-28 12z m512-169h-169a24 24 0 0 0-23 24v169a24 24 0 1 0 47 0v-145h145a24 24 0 1 0 0-47z m60-426a24 24 0 0 0 0 48 36 36 0 0 1 36 35v596a36 36 0 0 1-36 35h-452a36 36 0 0 1-36-35v-60a24 24 0 1 0-48 0v60a83 83 0 0 0 84 83h452a83 83 0 0 0 83-83v-596a83 83 0 0 0-83-83z m119 119a24 24 0 0 0 0 48 36 36 0 0 1 36 35v596a36 36 0 0 1-36 35h-452a36 36 0 0 1-36-35v-60a24 24 0 1 0-48 0v60a83 83 0 0 0 84 83h452a83 83 0 0 0 83-83v-596a83 83 0 0 0-83-83z m-464-27a154 154 0 1 0 153 153 154 154 0 0 0-153-153z m0 260a106 106 0 1 1 106-107 106 106 0 0 1-106 107z m-109-346a24 24 0 0 0-22 34l44 87a24 24 0 1 0 42-21l-43-87a24 24 0 0 0-21-13z" horiz-adv-x="857" />

<glyph glyph-name="risk" unicode="&#xe829;" d="M1153-138h-1099a42 42 0 0 0-36 21 43 43 0 0 0 2 44l549 892a46 46 0 0 0 73 0l544-884a41 41 0 0 0 14-31 48 48 0 0 0-47-42z m-1024 84h946l-471 769z m475 220a51 51 0 0 0-50 50v270a50 50 0 1 0 100 0v-268a51 51 0 0 0-50-52z m0-145a50 50 0 0 0-38 14 49 49 0 0 0-12 36 46 46 0 0 0 14 35 51 51 0 0 0 88-35 60 60 0 0 0-15-38 89 89 0 0 0-37-12z" horiz-adv-x="1212" />

<glyph glyph-name="security" unicode="&#xe82a;" d="M569 452a27 27 0 0 0 0-39l-166-166a27 27 0 0 0-20-7h0a32 32 0 0 0-21 7l-69 70a28 28 0 1 0 39 40l50-50 146 145a29 29 0 0 0 40 0z m-138-602a432 432 0 0 0-431 431v373a28 28 0 0 0 17 26l403 168a24 24 0 0 0 21 0l403-168a28 28 0 0 0 17-26v-373a430 430 0 0 0-430-431z m375 431v354l-375 156-375-156v-354a375 375 0 0 1 750 0z" horiz-adv-x="861" />

<glyph glyph-name="linkedin" unicode="&#xe82b;" d="M748 530a212 212 0 0 1-199-93v52a31 31 0 0 1-31 31h-149a31 31 0 0 1-31-31v-608a31 31 0 0 1 31-31h149a31 31 0 0 1 31 31v326c4 44 23 141 118 141 122 0 110-142 110-184v-283a31 31 0 0 1 31-31h154a31 31 0 0 1 31 31v292c0 127 2 357-245 357z m-611 320a137 137 0 1 1 136-136 137 137 0 0 1-136 136z" horiz-adv-x="993" />

<glyph glyph-name="arrow-down" unicode="&#xe82c;" d="M430-136l339 322a60 60 0 0 1 5 78 56 56 0 0 1-78 0l-249-236 0 768a54 54 0 0 1-108 0l0-768-248 235a55 55 0 0 1-78 0 59 59 0 0 1 4-77l340-322a54 54 0 0 1 73 0z" horiz-adv-x="786" />

<glyph glyph-name="eye" unicode="&#xe82d;" d="M238 350l-176-176v56a29 29 0 1 1-58 0v-127a29 29 0 0 1 29-29h127a33 33 0 0 1 21 8 28 28 0 0 1 8 21 29 29 0 0 1-29 29h-56l176 176a30 30 0 1 1-42 42z m388-354l-40-39v321a29 29 0 1 1-58 0v-321l-40 39a30 30 0 0 1-42-42l90-89a30 30 0 0 1 42 0l90 89a31 31 0 0 1 0 42 30 30 0 0 1-42 0z m477 255a28 28 0 0 1-21 8 29 29 0 0 1-29-29v-56l-178 176a30 30 0 1 1-42-42l176-176h-56a29 29 0 1 1 0-58h129a29 29 0 0 1 29 29v127a33 33 0 0 1-8 21z m-546 161c201 0 324 140 357 183a53 53 0 0 1 0 65c-33 42-157 182-357 182s-324-140-357-183a53 53 0 0 1 0-65c33-43 156-182 357-182z m192 311a444 444 0 0 0 111-97 444 444 0 0 0-111-96 215 215 0 0 1 24 96 212 212 0 0 1-24 97z m-192 56a152 152 0 1 0-152-151 152 152 0 0 0 152 151z m-193-56a213 213 0 0 1 0-193 444 444 0 0 0-110 96 444 444 0 0 0 110 97z m193-199a104 104 0 0 1 0 207 98 98 0 0 1-41-8 44 44 0 0 0 30-42 43 43 0 0 0-43-43 42 42 0 0 0-41 30 95 95 0 0 1-8-40 102 102 0 0 1 103-104z" horiz-adv-x="1115" />

<glyph glyph-name="matrix" unicode="&#xe82e;" d="M985 276l-168 97a73 73 0 0 1-73 0l-168-97a73 73 0 0 1-36-63v-193a73 73 0 0 1 36-64l168-96a73 73 0 0 1 73 0l168 95a73 73 0 0 1 36 63v194a73 73 0 0 1-36 64z m-18-255a18 18 0 0 0-9-16l-168-96a18 18 0 0 0-18 0l-168 96a18 18 0 0 0-9 16v191a18 18 0 0 0 9 15l168 97a18 18 0 0 0 18 0l167-97a18 18 0 0 0 10-15z m-522 255l-168 97a73 73 0 0 1-73 0l-167-97a73 73 0 0 1-37-63v-193a73 73 0 0 1 37-64l167-96a73 73 0 0 1 73 0l168 96a73 73 0 0 1 37 64v192a73 73 0 0 1-37 64z m-18-255a18 18 0 0 0-9-16l-168-96a18 18 0 0 0-18 0l-168 96a18 18 0 0 0-9 16v191a18 18 0 0 0 9 15l168 97a18 18 0 0 0 18 0l168-97a18 18 0 0 0 9-15z m288 723l-168 96h0a73 73 0 0 1-73 0l-168-96a73 73 0 0 1-36-63v-194a73 73 0 0 1 36-63l168-97a73 73 0 0 1 73 0l168 95a73 73 0 0 1 36 63v196a73 73 0 0 1-36 63z m-18-256a18 18 0 0 0-9-15l-168-97a18 18 0 0 0-18 0l-168 97a18 18 0 0 0-9 15v193a18 18 0 0 0 9 15l168 97a18 18 0 0 0 18 0l167-97a18 18 0 0 0 10-15z" horiz-adv-x="1021" />

<glyph glyph-name="mission" unicode="&#xe82f;" d="M1107-108l-385 660v76h195a28 28 0 0 1 28 28v166a28 28 0 0 1-28 28h-222a28 28 0 0 1-28-28v-269l-199-298-143 142a28 28 0 0 1-44-6l-277-500a28 28 0 0 1 24-41h1055a28 28 0 0 1 24 42z m-385 902h167v-111h-167z m-647-888l237 426 141-140a29 29 0 0 1 22-8 28 28 0 0 1 20 12l198 296 342-586z" horiz-adv-x="1111" />

<glyph glyph-name="arrow-above" unicode="&#xe830;" d="M356 836l-339-322a60 60 0 0 1-5-78 56 56 0 0 1 78 0l249 236v-768a54 54 0 0 1 108 0v768l248-235a55 55 0 0 1 78 0 59 59 0 0 1-4 78l-339 321a54 54 0 0 1-74 0z" horiz-adv-x="786" />

<glyph glyph-name="location" unicode="&#xe831;" d="M370-147a88 88 0 0 0-65 29c-102 112-331 399-299 647a355 355 0 0 0 172 257 356 356 0 0 0 192 61 368 368 0 0 0 368-367c0-221-211-490-301-596a88 88 0 0 0-66-31z m0 926a288 288 0 0 1-156-51 286 286 0 0 1-140-206c-28-221 187-488 281-593a20 20 0 0 1 14-6 20 20 0 0 1 16 7c85 100 284 353 284 551a299 299 0 0 1-299 298z m0-435a137 137 0 1 0 138 137 137 137 0 0 0-138-137z m0 206a69 69 0 1 1 69-69 69 69 0 0 1-69 69z" horiz-adv-x="741" />

<glyph glyph-name="phone" unicode="&#xe832;" d="M757-141a750 750 0 0 0-748 748 236 236 0 0 0 234 234h0a233 233 0 0 0 117-32 204 204 0 0 0 32-23 41 41 0 0 0 13-24l40-252a41 41 0 0 0-6-28 220 220 0 0 0-49-56 407 407 0 0 1 186-186 220 220 0 0 0 56 49 41 41 0 0 0 27 6l253-40a41 41 0 0 0 24-13 209 209 0 0 0 23-32 233 233 0 0 0-202-351z m-514 901a154 154 0 0 1-152-153 668 668 0 0 1 666-666 154 154 0 0 1 152 152 149 149 0 0 1-21 76c-1 3-3 6-5 8l-220 35a152 152 0 0 1-38-44 41 41 0 0 0-50-17 489 489 0 0 0-274 274 41 41 0 0 0 17 51 153 153 0 0 1 44 37l-35 220c-3 2-5 4-9 6a149 149 0 0 1-75 21z" horiz-adv-x="1003" />

<glyph glyph-name="email" unicode="&#xe833;" d="M143 850a143 143 0 0 1-143-143v-714a143 143 0 0 1 143-143h1179a143 143 0 0 1 142 143v714a143 143 0 0 1-142 143z m0-71h1179a71 71 0 0 0 28-6l-573-512a63 63 0 0 0-88 0l-575 511a71 71 0 0 0 29 7z m-71-64l411-367-404-387a74 74 0 0 0-8 32v714c0 3 0 5 1 7z m1320 0c0-3 1-5 1-8v-714a74 74 0 0 0-8-32l-402 388 409 366z m-463-414l394-380h-1182l395 379 105-93a137 137 0 0 1 183 0l105 94z" horiz-adv-x="1464" />

<glyph glyph-name="instagram" unicode="&#xe834;" d="M702 850h-404a298 298 0 0 1-298-298v-404a298 298 0 0 1 298-298h404a298 298 0 0 1 298 298v404a298 298 0 0 1-298 298z m197-702a197 197 0 0 0-197-197h-404a197 197 0 0 0-197 197v404a197 197 0 0 0 197 197h404a197 197 0 0 0 197-197z m-399 461a259 259 0 1 1 259-259 259 259 0 0 1-259 259z m0-417a158 158 0 1 0 158 158 158 158 0 0 0-158-158z m321 415a62 62 0 1 0-62 62 62 62 0 0 0 62-62z" horiz-adv-x="1000" />

<glyph glyph-name="facebook" unicode="&#xe835;" d="M327-150l1 432h149a26 26 0 0 1 26 23l17 140a26 26 0 0 1-27 29h-166v117c0 53 15 89 90 89h71a27 27 0 0 1 26 26v117a27 27 0 0 1-26 27h-115a220 220 0 0 1-234-241v-135h-113a27 27 0 0 1-26-26l0-140a27 27 0 0 1 27-26h112l-1-432z" horiz-adv-x="520" />

<glyph glyph-name="work-experience" unicode="&#xe836;" d="M383 845a26 26 0 0 1-23-25v-102h-304a49 49 0 0 1-35-15 50 50 0 0 1-16-36c0-250 0-488 0-748a65 65 0 0 1 17-47 64 64 0 0 1 47-17h989a59 59 0 0 1 64 64v748a50 50 0 0 1-16 36 49 49 0 0 1-35 15h-305v102a26 26 0 0 1-25 25z m28-51h305v-76h-305z m-355-127h1015v-258a76 76 0 0 0-45-49 213 213 0 0 0-94-23h-280v51a52 52 0 0 1-12 34 43 43 0 0 1-34 17h-85a43 43 0 0 1-34-17 52 52 0 0 1-12-34v-51h-280a213 213 0 0 0-94 23 76 76 0 0 0-45 49c0 86 0 172 0 258z m469-279h77v-152h-77z m-469-60a186 186 0 0 1 21-14 256 256 0 0 1 118-27h280v-51a52 52 0 0 1 12-34 43 43 0 0 1 34-17h85a43 43 0 0 1 34 17 52 52 0 0 1 12 34v51h279a256 256 0 0 1 119 27 185 185 0 0 1 21 13v-408c0-9-2-10-2-11s-2-2-11-2h-989c-9 0-11 2-11 2s-2 2-2 11z" horiz-adv-x="1127" />

<glyph glyph-name="alert" unicode="&#xe837;" d="M1042 115l-355 630a178 178 0 0 1-150 105 178 178 0 0 1-150-105l-355-630a182 182 0 0 1-12-185 182 182 0 0 1 167-80h700a182 182 0 0 1 167 80 182 182 0 0 1-12 185z m-60-143a106 106 0 0 0-95-39h-700a106 106 0 0 0-96 39 106 106 0 0 0 13 103l354 630c23 40 51 62 79 62s56-22 78-62l355-631a106 106 0 0 0 12-102z m-445 173a54 54 0 1 1 54-54 54 54 0 0 1-54 54z m0 394a54 54 0 0 1-55-54c0-2 1-3 1-5h0l22-263h0a32 32 0 0 1 64 0h0l22 263h0c0 2 0 3 0 5a54 54 0 0 1-54 54z" horiz-adv-x="1073" />

<glyph glyph-name="play" unicode="&#xe838;" d="M633 338l-200-127a30 30 0 0 0-48 23l0 253a30 30 0 0 0 48 23l200-127a30 30 0 0 0 10-23 30 30 0 0 0-10-22z" horiz-adv-x="1000" />

<glyph glyph-name="success" unicode="&#xe839;" d="M670 478a41 41 0 0 1-29 12 40 40 0 0 1-28-12l-171-170-54 55a41 41 0 0 1-58-57l83-84a41 41 0 0 1 58 0l199 198a41 41 0 0 1 0 58l0 0z m284 64a495 495 0 0 1-262 262 489 489 0 0 1-192 39 493 493 0 1 1 493-493 488 488 0 0 1-39 192z m-454-603a411 411 0 1 0 411 411 412 412 0 0 0-411-411z" horiz-adv-x="1000" />

<glyph glyph-name="close" unicode="&#xe83a;" d="M954 542a495 495 0 0 1-262 262 489 489 0 0 1-192 39 493 493 0 1 1 493-493 488 488 0 0 1-39 192z m-454-603a411 411 0 1 0 411 411 412 412 0 0 0-411-411z m140 557a23 23 0 0 1-31 0l-112-111-111 111a23 23 0 0 1-32-32l112-111-112-112a23 23 0 1 1 32-31l111 111 112-111a23 23 0 0 1 31 31l-111 112 111 111a23 23 0 0 1 0 32z" horiz-adv-x="1000" />

<glyph glyph-name="setting" unicode="&#xe83b;" d="M487 596a246 246 0 1 1 246-246 246 246 0 0 1-246 246z m0-428a182 182 0 1 0 182 182 182 182 0 0 0-182-182z m466 84l-85 66c1 10 2 21 2 32s-1 22-2 32l85 67a56 56 0 0 1 14 71l-93 160a56 56 0 0 1-69 25l-100-40a375 375 0 0 1-54 32l-15 106a55 55 0 0 1-55 47h-187a55 55 0 0 1-55-47l-15-106a388 388 0 0 1-55-32l-100 40a55 55 0 0 1-68-24l-93-162a55 55 0 0 1 13-71l85-66c-1-12-1-22-1-32a226 226 0 0 1 1-32l-85-66a56 56 0 0 1-14-71l94-161a56 56 0 0 1 68-24l100 40a377 377 0 0 1 55-32l15-106a55 55 0 0 1 54-48h188a55 55 0 0 1 54 47l16 107a386 386 0 0 1 54 32l101-41a55 55 0 0 1 67 24l95 163a55 55 0 0 1-15 70z m-131-195l-109 44a32 32 0 0 1-31-4 325 325 0 0 0-72-42 32 32 0 0 1-20-25l-17-116h-172l-17 116a32 32 0 0 1-19 25 312 312 0 0 0-72 42 32 32 0 0 1-31 4l-110-44-86 149 93 73a32 32 0 0 1 12 29 338 338 0 0 0-3 42 338 338 0 0 0 3 42 32 32 0 0 1-12 29l-93 72 87 149 109-43a32 32 0 0 1 31 4 326 326 0 0 0 72 42 32 32 0 0 1 20 25l16 116h172l17-116a32 32 0 0 1 19-25 308 308 0 0 0 72-41 32 32 0 0 1 32-5l109 44 86-149-93-73a32 32 0 0 1-12-29 292 292 0 0 0 0-83 32 32 0 0 1 12-30l93-72z" horiz-adv-x="974" />

<glyph glyph-name="edit" unicode="&#xe83c;" d="M715 839a36 36 0 0 0 52 0h0l222-222a36 36 0 0 0 0-52h0l-629-629a81 81 0 0 0-18-11h0l-296-74a37 37 0 0 0-45 44h0l74 296c0 8 4 11 11 19h0z m-122-226l-447-448-56-225 226 55 448 448z m148 148l-96-96 170-170 96 96z" horiz-adv-x="1000" />

<glyph glyph-name="integrity" unicode="&#xe83d;" d="M898 577c-34 52-112 68-220 47-12-2-24-5-36-8-39 142-107 234-185 234s-145-92-184-234c-12 3-24 6-36 8-108 21-186 5-220-47-43-66-3-172 99-286-99-112-142-221-99-286 19-30 52-48 99-54l5 34c-37 4-62 17-76 38-31 48 3 141 95 243 16-16 33-33 52-49l22 25c-18 17-35 33-51 49a1005 1005 0 0 0 74 69c0-12 0-24 0-35 0-23 0-46 2-68l34 1c-2 22-2 45-2 67s0 42 1 63c26 20 54 40 84 59q51 33 101 59a1123 1123 0 0 0 102-59c30-19 58-39 83-59q2-31 2-63c0-22 0-45-2-68l34-2c1 23 2 46 2 68v35q38-32 74-67c-16-17-34-34-51-50l22-25c19 17 36 34 53 50 91-102 125-196 94-243-13-21-39-34-75-39l4-34c47 6 80 24 100 54 43 66 0 175-100 286 102 115 141 221 99 287z m-441 239c57 0 116-78 153-210a987 987 0 0 1-153-61 987 987 0 0 1-152 62c36 131 96 209 152 209z m-317-500c-89 99-127 193-95 242 25 39 93 51 187 33 11-3 22-5 34-8a1076 1076 0 0 1-26-178 1050 1050 0 0 1-100-89z m197 160c-21-14-42-29-61-43a1042 1042 0 0 0 21 141 939 939 0 0 0 123-49q-41-23-83-50z m240 0c-27 17-55 33-82 49a939 939 0 0 0 123 48 1042 1042 0 0 0 21-140c-20 14-40 29-62 43z m98-71a1076 1076 0 0 1-25 178c12 3 23 5 34 8 93 18 161 6 186-33 33-49-5-143-94-242a1050 1050 0 0 1-101 89z m37-318h-17a85 85 0 1 1-102 0h-17a64 64 0 0 1-19-3 98 98 0 0 1 2 20 102 102 0 0 1-203 0 98 98 0 0 1 2-20 64 64 0 0 1-19 3h-17a85 85 0 1 1-102 0h-17a68 68 0 0 1-68-67v-68h153v-102h339v102h152v68a68 68 0 0 1-67 67z m-68 119a51 51 0 1 0-51-51 51 51 0 0 0 51 51z m-373 0a51 51 0 1 0-51-51 51 51 0 0 0 51 51z m186-34a68 68 0 1 0-67-68 68 68 0 0 0 67 68z m-288-186v34a34 34 0 0 0 34 33h136a34 34 0 0 0 34-33h-17a68 68 0 0 1-59-34z m424-102h-271v68a34 34 0 0 0 34 34h203a34 34 0 0 0 34-34z m152 102h-128a68 68 0 0 1-58 34h-17a34 34 0 0 0 34 33h136a34 34 0 0 0 33-33z" horiz-adv-x="915" />
</font>
</defs>
</svg>
