<svg xmlns="http://www.w3.org/2000/svg" width="50" height="50" viewBox="0 0 50 50">
  <g id="Grupo_20934" data-name="Grupo 20934" transform="translate(-1035 -6506)">
    <rect id="Rectángulo_9864" data-name="Rectángulo 9864" width="50" height="50" rx="6" transform="translate(1035 6506)" fill="#7f37f5"/>
    <g id="noun_Mail_1571628" transform="translate(1035 6509)">
      <g id="Grupo_18919" data-name="Grupo 18919" transform="translate(9 11)">
        <path id="Trazado_13703" data-name="Trazado 13703" d="M12.191,974.362A3.2,3.2,0,0,0,9,977.553v15.955a3.2,3.2,0,0,0,3.191,3.191H38.517a3.2,3.2,0,0,0,3.191-3.191V977.553a3.2,3.2,0,0,0-3.191-3.191Zm0,1.6H38.517a1.6,1.6,0,0,1,.636.137l-12.8,11.43a1.4,1.4,0,0,1-1.969,0L11.555,976.1A1.6,1.6,0,0,1,12.191,975.958Zm-1.583,1.433,9.174,8.177-9.012,8.663a1.649,1.649,0,0,1-.175-.723V977.553c0-.056.007-.108.012-.162Zm29.492,0c.005.054.012.106.012.162v15.955a1.649,1.649,0,0,1-.175.723l-8.987-8.675,9.149-8.165Zm-10.346,9.236,8.8,8.476h-26.4l8.825-8.464,2.343,2.082a3.066,3.066,0,0,0,4.089,0l2.343-2.094Z" transform="translate(-9 -974.362)" fill="#fff" stroke="#fff" stroke-width="0.3"/>
      </g>
    </g>
  </g>
</svg>
