<svg xmlns="http://www.w3.org/2000/svg" width="50" height="50" viewBox="0 0 50 50">
  <g id="Grupo_20932" data-name="Grupo 20932" transform="translate(-360 -6506)">
    <rect id="Rectángulo_9865" data-name="Rectángulo 9865" width="50" height="50" rx="6" transform="translate(360 6506)" fill="#fc931b"/>
    <g id="noun_Phone_2433750" transform="translate(371.045 6517)">
      <g id="Grupo_18918" data-name="Grupo 18918" transform="translate(-0.045 0)">
        <path id="Trazado_13702" data-name="Trazado 13702" d="M21.975,28.9A22.077,22.077,0,0,1-.045,6.889,6.934,6.934,0,0,1,6.838,0h0a6.863,6.863,0,0,1,3.445.939,6.01,6.01,0,0,1,.943.674,1.2,1.2,0,0,1,.391.714l1.176,7.436a1.2,1.2,0,0,1-.163.818,6.478,6.478,0,0,1-1.445,1.637,11.978,11.978,0,0,0,5.46,5.46,6.475,6.475,0,0,1,1.636-1.445,1.182,1.182,0,0,1,.819-.164l7.436,1.178a1.194,1.194,0,0,1,.713.391,6.14,6.14,0,0,1,.668.928A6.863,6.863,0,0,1,21.98,28.91ZM6.846,2.408A4.519,4.519,0,0,0,2.363,6.893,19.662,19.662,0,0,0,21.972,26.5a4.516,4.516,0,0,0,4.48-4.485,4.374,4.374,0,0,0-.613-2.225c-.052-.085-.1-.166-.153-.241L19.2,18.519a4.466,4.466,0,0,0-1.093,1.27,1.2,1.2,0,0,1-1.483.51,14.377,14.377,0,0,1-8.061-8.058,1.2,1.2,0,0,1,.51-1.482,4.491,4.491,0,0,0,1.27-1.094L9.314,3.174c-.077-.052-.16-.106-.253-.161A4.387,4.387,0,0,0,6.846,2.408Z" transform="translate(0.045 0)" fill="#fff" stroke="#fc931b" stroke-width="0.6"/>
      </g>
    </g>
  </g>
</svg>
