<svg xmlns="http://www.w3.org/2000/svg" xmlns:xlink="http://www.w3.org/1999/xlink" width="50" height="50" viewBox="0 0 50 50">
  <defs>
    <linearGradient id="linear-gradient" x1="0.5" x2="0.5" y2="1" gradientUnits="objectBoundingBox">
      <stop offset="0" stop-color="#17d175"/>
      <stop offset="1" stop-color="#1fc173"/>
    </linearGradient>
  </defs>
  <g id="Grupo_20933" data-name="Grupo 20933" transform="translate(-811 -6506)">
    <rect id="Rectángulo_8682" data-name="Rectángulo 8682" width="50" height="50" rx="6" transform="translate(811 6506)" fill="url(#linear-gradient)"/>
    <g id="Grupo_17119" data-name="Grupo 17119" transform="translate(820 6515)">
      <g id="Grupo_17118" data-name="Grupo 17118" transform="translate(0)">
        <path id="Trazado_8696" data-name="Trazado 8696" d="M796.687-3450.863h-.124q1.358-4.013,2.721-8.025a.6.6,0,0,0-.051-.547,15.2,15.2,0,0,1-2-6.1,15.138,15.138,0,0,1,.454-5.711,15.612,15.612,0,0,1,17.275-11.27,15.183,15.183,0,0,1,7.56,3.256,15.232,15.232,0,0,1,5.669,9.726c.069.425.122.853.182,1.28v2.174c-.047.356-.088.712-.141,1.067a14.851,14.851,0,0,1-3.208,7.415,15.414,15.414,0,0,1-14.35,5.78,14.271,14.271,0,0,1-5.194-1.651.65.65,0,0,0-.552-.049c-1.935.622-3.873,1.231-5.809,1.85C798.3-3451.406,797.5-3451.131,796.687-3450.863Zm3.829-3.865c.131-.037.216-.06.3-.086,1.416-.447,2.837-.88,4.245-1.354a.98.98,0,0,1,.912.117,12.852,12.852,0,0,0,8.692,1.751,12.673,12.673,0,0,0,7.8-4.159,12.4,12.4,0,0,0,3.14-11.259,12.683,12.683,0,0,0-7.864-9.475,12.589,12.589,0,0,0-6.68-.876,12.829,12.829,0,0,0-4.676,1.536,13.033,13.033,0,0,0-5.025,4.942,12.673,12.673,0,0,0-1.542,8.546,12.427,12.427,0,0,0,2.171,5.281.472.472,0,0,1,.065.482c-.481,1.394-.95,2.792-1.422,4.19C800.594-3454.987,800.564-3454.882,800.517-3454.729Z" transform="translate(-796.563 3482.668)" fill="#fff"/>
        <path id="Trazado_8697" data-name="Trazado 8697" d="M933.246-3343.613a4.629,4.629,0,0,1,1.413-3.112,1.471,1.471,0,0,1,1.236-.452,2.31,2.31,0,0,0,.5.013.736.736,0,0,1,.82.517c.431,1.016.871,2.029,1.276,3.056a.785.785,0,0,1-.048.618,11.4,11.4,0,0,1-.961,1.284.6.6,0,0,0-.077.785,10.35,10.35,0,0,0,5.31,4.5.575.575,0,0,0,.713-.2c.361-.439.722-.879,1.077-1.323s.532-.507,1.06-.261c.964.448,1.917.918,2.883,1.363a.679.679,0,0,1,.425.737c-.066,1.714-.984,2.62-2.776,3.142a3.9,3.9,0,0,1-2.314-.11,17.764,17.764,0,0,1-3.942-1.612,15.808,15.808,0,0,1-4.468-4.249,10.17,10.17,0,0,1-1.767-3.074C933.441-3342.518,933.361-3343.07,933.246-3343.613Z" transform="translate(-924.734 3355.615)" fill="#fff"/>
      </g>
    </g>
  </g>
</svg>
