<svg xmlns="http://www.w3.org/2000/svg" width="127.73" height="29.321" viewBox="0 0 127.73 29.321">
  <g id="Grupo_20789" data-name="Grupo 20789" transform="translate(-574.077 -684.978)" opacity="0.6">
    <path id="Trazado_17823" data-name="Trazado 17823" d="M589.854,759.374a18.6,18.6,0,0,1-6.767-1.034,13.631,13.631,0,0,1-7.139-5.518,11.511,11.511,0,0,1-1.741-8.033,9.239,9.239,0,0,1,4.918-7.167,6.654,6.654,0,0,1,5.586-.56,2.809,2.809,0,0,1,.433.2c.123.069.234.171.193.331s-.177.168-.305.182a7.578,7.578,0,0,0-1.581.349,7.823,7.823,0,0,0-5.481,6.4,9,9,0,0,0,5.282,10.091,15.273,15.273,0,0,0,6.042,1.34,15.613,15.613,0,0,0,7.4-1.381,8.764,8.764,0,0,0,5.149-6.32,8.559,8.559,0,0,0-2.983-8.854,7.678,7.678,0,0,0-3.893-1.609c-.174-.025-.406.008-.44-.222s.173-.332.349-.4a5.8,5.8,0,0,1,2.927-.444,8.7,8.7,0,0,1,7.506,6.576,11.235,11.235,0,0,1-2.111,10.523,14.335,14.335,0,0,1-8.706,5.157,17.417,17.417,0,0,1-1.98.3A22.929,22.929,0,0,1,589.854,759.374Z" transform="translate(0 -45.111)" fill="#fff"/>
    <path id="Trazado_17824" data-name="Trazado 17824" d="M654.411,689.931a14.193,14.193,0,0,1,2.366-.8,11.6,11.6,0,0,1,3.532-.334c.109.009.267-.031.3.107.028.121-.125.149-.21.2a19.457,19.457,0,0,0-3.276,2.509c-.56.567-.559.578-.024,1.133a11.1,11.1,0,0,1,2.426,3.547,2.555,2.555,0,0,1,.219.759c.009.119.066.277-.054.357s-.237-.044-.342-.106c-.83-.492-1.652-1-2.488-1.479a19.914,19.914,0,0,0-2.969-1.442.739.739,0,0,0-.52,0,27.161,27.161,0,0,0-4.569,2.21c-.288.157-.566.333-.852.494-.1.055-.205.153-.317.048-.087-.083-.047-.2-.012-.3a6.59,6.59,0,0,1,.523-1.051,21.753,21.753,0,0,1,1.908-3.04c.166-.208-.03-.255-.128-.332a10.069,10.069,0,0,1-3.023-3.947c-.017-.039-.028-.08-.047-.118-.037-.076-.1-.168-.028-.233s.153.023.224.056a21.439,21.439,0,0,0,3.928,1.443c.236.058.482.078.717.14.219.057.3-.021.348-.23a8.537,8.537,0,0,1,1.084-2.6,5.9,5.9,0,0,1,1.826-1.833c.1-.064.22-.187.342-.077s-.014.215-.044.319a24.485,24.485,0,0,0-.838,3.971A6.036,6.036,0,0,0,654.411,689.931Z" transform="translate(-63.449 0)" fill="#fff"/>
    <path id="Trazado_17825" data-name="Trazado 17825" d="M1142.6,761.539c-.032-.869.058-1.89-.069-2.9a.854.854,0,0,0-.064-.277c-.146-.289-.068-.42.255-.476a6.25,6.25,0,0,0,1.011-.27c.245-.087.348-.015.407.216.054.213.111.32.384.154a2.368,2.368,0,0,1,2.327-.237,1.367,1.367,0,0,1,.595.465c.155.236.265.17.433.018a2.484,2.484,0,0,1,2.691-.5,1.31,1.31,0,0,1,.875,1.046,3.41,3.41,0,0,1,.062.632c.005,1.656,0,3.311.009,4.966,0,.241-.063.31-.3.3-.4-.021-.807-.018-1.209,0-.223.01-.286-.06-.285-.283.009-1.422,0-2.844,0-4.266,0-.106,0-.212,0-.318-.017-.711-.316-.906-.989-.646-.049.019-.1.043-.145.064a.934.934,0,0,0-.654,1.011c.05,1.378.011,2.759.023,4.138,0,.242-.068.312-.305.3a11.446,11.446,0,0,0-1.146,0c-.236.012-.307-.055-.3-.3.011-1.443.007-2.886,0-4.33a3.206,3.206,0,0,0-.039-.506.52.52,0,0,0-.674-.484,2.161,2.161,0,0,0-.429.111c-.576.218-.656.339-.656.948,0,1.411,0,2.823,0,4.234,0,.237-.043.343-.312.326a9.264,9.264,0,0,0-1.177,0c-.28.018-.331-.092-.327-.345C1142.611,763.449,1142.6,762.568,1142.6,761.539Z" transform="translate(-495.885 -63.312)" fill="#fff"/>
    <path id="Trazado_17826" data-name="Trazado 17826" d="M873.052,736.737a5.611,5.611,0,0,1,2.7.8c.183.11.248.18.1.378a11.006,11.006,0,0,0-.629.957c-.11.184-.209.186-.379.082a3.811,3.811,0,0,0-1.823-.6,1.368,1.368,0,0,0-1.274.5.837.837,0,0,0,.347,1.342,8.729,8.729,0,0,0,1.426.43,3.577,3.577,0,0,1,2.058,1.176,2.956,2.956,0,0,1-1.134,4.442,5.6,5.6,0,0,1-4.216.154,7.258,7.258,0,0,1-1.031-.417c-.167-.08-.21-.161-.118-.338.186-.356.352-.723.518-1.089.071-.156.138-.195.309-.1a4.842,4.842,0,0,0,2.519.662,2.407,2.407,0,0,0,.808-.148,1.114,1.114,0,0,0,.726-1.059,1.057,1.057,0,0,0-.6-1.038,8.223,8.223,0,0,0-1.537-.5c-.161-.051-.327-.09-.487-.145a2.5,2.5,0,0,1-1.921-2.469,2.788,2.788,0,0,1,1.9-2.76A4.676,4.676,0,0,1,873.052,736.737Z" transform="translate(-257.357 -45.161)" fill="#fff"/>
    <path id="Trazado_17827" data-name="Trazado 17827" d="M1423.432,744.045a2.693,2.693,0,0,1-4.054-1.075,4.711,4.711,0,0,1,.2-4.284,2.677,2.677,0,0,1,3.471-1.091.356.356,0,0,0,.1.019v-1.487c0-.541.005-1.083,0-1.624,0-.169.039-.223.216-.19.448.084.9.171,1.349.217.245.025.284.126.283.343q-.01,3.519,0,7.038a8.523,8.523,0,0,0,.2,2.306c.035.125,0,.178-.132.178-.446,0-.892,0-1.338,0C1423.48,744.4,1423.57,744.144,1423.432,744.045Zm-.247-3.134q0-.715,0-1.43a.372.372,0,0,0-.105-.314,1.092,1.092,0,0,0-1.908.556,5.774,5.774,0,0,0-.049,2.364.971.971,0,0,0,.665.855,1.289,1.289,0,0,0,1.277-.262.384.384,0,0,0,.121-.339C1423.184,741.865,1423.186,741.388,1423.186,740.911Z" transform="translate(-737.196 -43.039)" fill="#fff"/>
    <path id="Trazado_17828" data-name="Trazado 17828" d="M994.8,764.452c0,.824-.009,1.618.006,2.411,0,.226-.066.316-.285.362-.413.088-.824.195-1.228.322-.245.078-.286,0-.286-.227q.009-4.01,0-8.02a6.831,6.831,0,0,0-.082-1.331c-.036-.179.048-.222.191-.246.355-.059.716-.1,1.063-.189.3-.078.438.005.455.306.009.156.022.25.216.118a2.578,2.578,0,0,1,3.986,1.418,5.749,5.749,0,0,1,.047,3.174,2.759,2.759,0,0,1-3.881,1.972C994.951,764.5,994.892,764.483,994.8,764.452Zm.023-3.276h0q0,.747,0,1.493c0,.115-.012.236.1.315.714.5,1.758.5,2.008-.633a6.181,6.181,0,0,0,.023-2.46.955.955,0,0,0-1.357-.847,1.983,1.983,0,0,0-.569.275.42.42,0,0,0-.208.4C994.832,760.2,994.827,760.689,994.827,761.176Z" transform="translate(-365.463 -63.262)" fill="#fff"/>
    <path id="Trazado_17829" data-name="Trazado 17829" d="M871.563,842.8c0-1.454.01-2.907-.008-4.361,0-.315.092-.391.394-.38,1.2.043,2.4-.063,3.594.077A2.763,2.763,0,0,1,878.089,841a2.9,2.9,0,0,1-2.608,3.013,13.967,13.967,0,0,1-1.717.044c-.212,0-.268.065-.266.27.01.976,0,1.952.01,2.928,0,.239-.068.315-.306.306-.435-.017-.871-.02-1.305,0-.266.012-.342-.076-.34-.34C871.569,845.75,871.563,844.275,871.563,842.8Zm1.94-1.754c0,.4,0,.806,0,1.209,0,.153.028.236.207.23.413-.013.828,0,1.241-.019a.937.937,0,0,0,.854-.567,1.938,1.938,0,0,0,.1-1.425,1.138,1.138,0,0,0-1.1-.855c-.36-.016-.721,0-1.082-.006-.168,0-.22.061-.217.224C873.509,840.24,873.5,840.643,873.5,841.047Z" transform="translate(-259.562 -133.57)" fill="#fff"/>
    <path id="Trazado_17830" data-name="Trazado 17830" d="M1369.548,760.826c.01.615-.067,1.229-.018,1.845a1.189,1.189,0,0,0,.476.929c.155.112.13.2.015.324a8.784,8.784,0,0,0-.621.724c-.15.2-.289.233-.493.091a1.781,1.781,0,0,1-.549-.475c-.131-.215-.223-.158-.377-.025a2.788,2.788,0,0,1-3.525-.172,2.313,2.313,0,0,1,.924-3.594,5.091,5.091,0,0,1,2.034-.282c.268.01.371-.074.33-.338a5.223,5.223,0,0,0-.074-.535.59.59,0,0,0-.635-.425,3.174,3.174,0,0,0-1.839.618c-.241.157-.345.143-.47-.116-.142-.294-.332-.566-.5-.846-.065-.107-.115-.2.038-.282a5.189,5.189,0,0,1,3.763-.8,1.743,1.743,0,0,1,1.521,1.832C1369.562,759.807,1369.548,760.317,1369.548,760.826Zm-1.858,1.409h.009c0-.2-.005-.4,0-.6,0-.124-.05-.18-.167-.171a3.35,3.35,0,0,0-1.031.145.942.942,0,0,0-.524,1.209.78.78,0,0,0,.89.591.832.832,0,0,0,.822-.916Z" transform="translate(-689.19 -63.164)" fill="#fff"/>
    <path id="Trazado_17831" data-name="Trazado 17831" d="M1081.339,860.019c0,.52,0,1.039,0,1.558a1.272,1.272,0,0,0,.483,1.089c.15.114.139.2.023.324-.236.258-.471.519-.687.794-.123.156-.23.142-.376.051a1.969,1.969,0,0,1-.642-.558c-.087-.133-.153-.131-.27-.031a2.713,2.713,0,0,1-2.986.329,2.02,2.02,0,0,1-1.07-2.3,2.242,2.242,0,0,1,2.156-1.94,7.191,7.191,0,0,1,1.426-.075c.111.009.157-.027.155-.137,0-.138.007-.276,0-.414-.03-.541-.238-.737-.778-.742a3.228,3.228,0,0,0-1.641.534c-.4.229-.4.234-.64-.149-.156-.251-.3-.511-.458-.761-.071-.111-.075-.192.048-.26a5.3,5.3,0,0,1,3.672-.817,1.789,1.789,0,0,1,1.618,1.949c.007.519,0,1.039,0,1.558Zm-1.812,1.093c-.014-.657.083-.582-.524-.563a2.752,2.752,0,0,0-.409.05.866.866,0,0,0-.829,1.032.828.828,0,0,0,.8.864.9.9,0,0,0,.938-.872C1079.5,861.431,1079.519,861.242,1079.527,861.112Z" transform="translate(-437.757 -149.604)" fill="#fff"/>
    <path id="Trazado_17832" data-name="Trazado 17832" d="M1476.093,761.056a3.917,3.917,0,0,1,.8-2.558,2.967,2.967,0,0,1,3.248-.971,2.887,2.887,0,0,1,2.161,2.313,5.2,5.2,0,0,1-.056,2.613,3.1,3.1,0,0,1-5.932.106A4.742,4.742,0,0,1,1476.093,761.056Zm2.041.055c.014.254.022.561.052.866a3.625,3.625,0,0,0,.108.559,1.008,1.008,0,0,0,.962.817.911.911,0,0,0,.959-.759,5.887,5.887,0,0,0,.026-3.043.958.958,0,0,0-1-.772,1,1,0,0,0-.936.771A5.763,5.763,0,0,0,1478.134,761.11Z" transform="translate(-787.047 -63.189)" fill="#fff"/>
    <path id="Trazado_17833" data-name="Trazado 17833" d="M1192.9,860.187a4.057,4.057,0,0,1-.679,2.467,2.947,2.947,0,0,1-2.908,1.189,2.768,2.768,0,0,1-2.431-1.875,4.556,4.556,0,0,1,.12-3.708,2.809,2.809,0,0,1,2.674-1.669,2.945,2.945,0,0,1,2.826,1.655A4,4,0,0,1,1192.9,860.187Zm-2.014.041a5.244,5.244,0,0,0-.151-1.447,1.008,1.008,0,0,0-.987-.829,1,1,0,0,0-.978.839,6.45,6.45,0,0,0-.009,2.865.988.988,0,0,0,1.01.871c.479,0,.787-.276.961-.852A5.532,5.532,0,0,0,1190.89,860.228Z" transform="translate(-534.409 -149.739)" fill="#fff"/>
    <path id="Trazado_17834" data-name="Trazado 17834" d="M1051.981,761.548c-.584,0-1.168.007-1.752,0-.208,0-.276.053-.26.272a1.481,1.481,0,0,0,2.074,1.37,2.9,2.9,0,0,0,.987-.5c.11-.085.184-.117.273.031.163.273.34.538.52.8a.162.162,0,0,1-.043.263,3.831,3.831,0,0,1-3.78.634,3.057,3.057,0,0,1-1.992-2.787,4.592,4.592,0,0,1,.486-2.927,3.076,3.076,0,0,1,4.474-.75,3.144,3.144,0,0,1,.964,2.09,10.2,10.2,0,0,1,.073,1.239c0,.207-.061.277-.271.273-.584-.012-1.168,0-1.752,0Zm-.97-1.358h.509c.648,0,.648,0,.519-.656a.949.949,0,0,0-1.186-.847,1.288,1.288,0,0,0-.857,1.389c.029.125.105.112.187.113C1050.459,760.191,1050.735,760.19,1051.011,760.19Z" transform="translate(-413.485 -63.102)" fill="#fff"/>
    <path id="Trazado_17835" data-name="Trazado 17835" d="M1228.728,761.546c-.584,0-1.168.014-1.75-.007-.248-.009-.273.09-.254.292a1.48,1.48,0,0,0,2.035,1.364,2.588,2.588,0,0,0,1.02-.5c.15-.122.225-.091.316.06.153.254.319.5.484.747.063.095.109.166-.014.264a3.9,3.9,0,0,1-4.183.48,3.253,3.253,0,0,1-1.636-2.778,5.049,5.049,0,0,1,.178-2.015,3.008,3.008,0,0,1,4.438-1.756,2.714,2.714,0,0,1,1.295,2.086,12.46,12.46,0,0,1,.116,1.425c.017.258-.049.354-.325.344C1229.874,761.531,1229.3,761.546,1228.728,761.546Zm-.933-1.361v0h.446c.684,0,.708-.031.546-.717a.975.975,0,0,0-1.6-.583,1.5,1.5,0,0,0-.432,1.06c-.017.177.018.25.21.241C1227.242,760.175,1227.519,760.185,1227.795,760.185Z" transform="translate(-567.71 -63.099)" fill="#fff"/>
    <path id="Trazado_17836" data-name="Trazado 17836" d="M931.836,861.551c.217.327.426.645.639.96a.15.15,0,0,1-.038.239,3.866,3.866,0,0,1-4.348.381,3.15,3.15,0,0,1-1.432-2.4,4.6,4.6,0,0,1,.484-3.049,3,3,0,0,1,4.667-.535,3.537,3.537,0,0,1,.8,2.261c.022.274,0,.552.018.827.016.221-.056.289-.281.287-1.135-.011-2.271,0-3.406-.012-.285,0-.361.071-.335.355a1.462,1.462,0,0,0,1.889,1.35A3.229,3.229,0,0,0,931.836,861.551Zm-2.167-2.373h.381c.739,0,.8-.075.6-.8-.008-.031-.017-.061-.028-.091a.88.88,0,0,0-.762-.629.951.951,0,0,0-1,.464,2.122,2.122,0,0,0-.236.847c-.024.175.06.217.219.212C929.118,859.171,929.393,859.178,929.669,859.178Z" transform="translate(-307.587 -149.455)" fill="#fff"/>
    <path id="Trazado_17837" data-name="Trazado 17837" d="M1133.068,860.442a26.1,26.1,0,0,0-.082-2.911c-.032-.217-.228-.485-.1-.627s.441-.168.673-.238.451-.119.671-.2c.172-.06.281-.037.334.152a1.787,1.787,0,0,1,.12.36c.014.315.149.223.3.111a2.749,2.749,0,0,1,2.211-.573,1.544,1.544,0,0,1,1.374,1.583c.025,1.762.007,3.525.014,5.287,0,.174-.065.214-.225.211-.435-.008-.871-.017-1.306,0-.25.012-.3-.083-.3-.31.008-1.433,0-2.866,0-4.3,0-.1,0-.191-.008-.286-.05-.61-.338-.806-.923-.618a2.66,2.66,0,0,0-.7.375.513.513,0,0,0-.238.477c.009,1.433,0,2.867.012,4.3,0,.3-.09.38-.375.363a10.394,10.394,0,0,0-1.146,0c-.245.012-.33-.052-.325-.313C1133.078,862.4,1133.068,861.507,1133.068,860.442Z" transform="translate(-487.548 -149.609)" fill="#fff"/>
    <path id="Trazado_17838" data-name="Trazado 17838" d="M939.5,764.079a2.587,2.587,0,0,1-1.916.631c-1.322-.08-2.125-.616-2.129-2.1,0-1.561,0-3.121-.005-4.682,0-.174.06-.239.227-.266.45-.072.9-.145,1.344-.248.229-.054.268.01.267.223-.007,1.444-.005,2.888,0,4.331a4.286,4.286,0,0,0,.031.635.75.75,0,0,0,1.052.671.944.944,0,0,0,.8-1.041c0-1.391,0-2.781,0-4.172,0-.227.048-.341.3-.378a11.145,11.145,0,0,0,1.181-.248c.239-.062.3-.013.3.24-.011,1.614,0,3.227-.007,4.841a2.277,2.277,0,0,0,.34,1.333c.083.122.054.169-.064.233q-.5.272-.994.569a.225.225,0,0,1-.31-.036A2.878,2.878,0,0,1,939.5,764.079Z" transform="translate(-315.312 -63.187)" fill="#fff"/>
    <path id="Trazado_17839" data-name="Trazado 17839" d="M1026.868,859.339c0,.8.008,1.592,0,2.388a2.045,2.045,0,0,0,.313,1.179c.1.147.068.213-.079.29-.263.137-.518.29-.775.438-.375.215-.429.228-.663-.139-.179-.281-.284-.267-.56-.1a2.819,2.819,0,0,1-2.565.208,1.656,1.656,0,0,1-1.13-1.674c-.015-1.645-.008-3.29-.017-4.935,0-.168.07-.211.219-.236.428-.071.858-.144,1.28-.247.26-.063.325,0,.323.263-.011,1.454-.007,2.908-.006,4.362a3.239,3.239,0,0,0,.085.788.571.571,0,0,0,.273.374,1.019,1.019,0,0,0,1.058-.067.8.8,0,0,0,.488-.777c-.022-1.443-.005-2.887-.016-4.33,0-.207.053-.3.261-.339.427-.077.853-.166,1.275-.27.211-.052.246.015.244.21C1026.863,857.6,1026.868,858.468,1026.868,859.339Z" transform="translate(-390.299 -149.653)" fill="#fff"/>
    <path id="Trazado_17840" data-name="Trazado 17840" d="M1533.812,757.133a5,5,0,0,1,2.327.557c.144.069.161.131.092.263-.152.291-.3.584-.435.883-.067.148-.132.177-.286.1a3.407,3.407,0,0,0-1.39-.414,1.188,1.188,0,0,0-.677.122.6.6,0,0,0-.337.537.551.551,0,0,0,.351.519,7.377,7.377,0,0,0,1.213.368c.132.04.264.075.4.112a1.875,1.875,0,0,1,1.519,1.7,2.24,2.24,0,0,1-1.161,2.2,4.211,4.211,0,0,1-3.482.141c-.33-.111-.645-.268-.968-.4-.156-.063-.212-.141-.12-.311.167-.307.32-.622.464-.94.074-.163.144-.184.305-.1a4.834,4.834,0,0,0,2.033.672.853.853,0,0,0,1-.781.719.719,0,0,0-.549-.7,7.025,7.025,0,0,0-1.145-.258,4.072,4.072,0,0,1-.463-.11,1.858,1.858,0,0,1-1.415-1.915,2.179,2.179,0,0,1,1.627-2.109A3.149,3.149,0,0,1,1533.812,757.133Z" transform="translate(-834.792 -62.954)" fill="#fff"/>
    <path id="Trazado_17841" data-name="Trazado 17841" d="M1244.525,856.159a4.986,4.986,0,0,1,2.269.539c.15.069.216.141.12.313a7.857,7.857,0,0,0-.424.854c-.077.189-.155.169-.306.094a3.265,3.265,0,0,0-1.519-.409,1.185,1.185,0,0,0-.465.088.619.619,0,0,0-.4.563.559.559,0,0,0,.372.543,8.058,8.058,0,0,0,1.124.338c.131.04.267.065.4.1a1.914,1.914,0,0,1,1.59,1.75,2.259,2.259,0,0,1-1.27,2.236,4.228,4.228,0,0,1-3.131.163,8.827,8.827,0,0,1-1.184-.46c-.212-.095-.229-.19-.122-.381a7.177,7.177,0,0,0,.417-.857c.091-.23.2-.212.38-.111a4.437,4.437,0,0,0,1.911.644,1.834,1.834,0,0,0,.411-.021.809.809,0,0,0,.671-.711.755.755,0,0,0-.523-.723,5.708,5.708,0,0,0-1.2-.277c-1.143-.213-1.79-.836-1.835-1.791a2.167,2.167,0,0,1,1.687-2.366A3.115,3.115,0,0,1,1244.525,856.159Z" transform="translate(-582.363 -149.357)" fill="#fff"/>
    <path id="Trazado_17842" data-name="Trazado 17842" d="M1316.961,760.791a4.368,4.368,0,0,1,.809-2.7,3.059,3.059,0,0,1,4.245-.454c.151.128.156.206.039.352-.213.264-.419.535-.606.818-.12.182-.208.172-.363.04a1.411,1.411,0,0,0-.855-.38.925.925,0,0,0-.991.681,4.956,4.956,0,0,0-.227,1.977,3.922,3.922,0,0,0,.128.944,1.081,1.081,0,0,0,1.534.769,2.265,2.265,0,0,0,.7-.438c.125-.11.2-.106.3.032.183.26.368.521.573.763.127.15.107.236-.033.359a3.2,3.2,0,0,1-2.7.752,2.86,2.86,0,0,1-2.492-2.795C1316.992,761.26,1316.978,761.006,1316.961,760.791Z" transform="translate(-648.198 -62.83)" fill="#fff"/>
    <path id="Trazado_17843" data-name="Trazado 17843" d="M1321.454,855.114a5.085,5.085,0,0,1,2.386.546c.193.1.233.192.106.388-.353.549-.341.545-.93.292a3.016,3.016,0,0,0-2.108-.2,1.1,1.1,0,0,0-.66.467.767.767,0,0,0,.275,1.1,4.71,4.71,0,0,0,1.345.47,8.143,8.143,0,0,1,1.235.406,1.8,1.8,0,0,1,1.161,1.542,2,2,0,0,1-.929,1.9,3.64,3.64,0,0,1-2.343.541,5.658,5.658,0,0,1-2.088-.515c-.179-.081-.287-.159-.133-.365.139-.185.15-.508.349-.582s.41.158.625.234a4.093,4.093,0,0,0,2.309.218,1.547,1.547,0,0,0,.569-.274.931.931,0,0,0-.083-1.624,5.376,5.376,0,0,0-1.381-.463,4.815,4.815,0,0,1-1.2-.4,1.774,1.774,0,0,1-1.03-1.6,1.9,1.9,0,0,1,1.137-1.742A2.921,2.921,0,0,1,1321.454,855.114Z" transform="translate(-649.714 -148.449)" fill="#fff"/>
    <path id="Trazado_17844" data-name="Trazado 17844" d="M1376.295,864.236c-.6,0-.6,0-.807-.568-.142-.388-.293-.772-.427-1.162a.279.279,0,0,0-.313-.231c-.774.013-1.548.012-2.323,0a.282.282,0,0,0-.321.22c-.178.509-.379,1.01-.561,1.517-.058.161-.138.243-.321.227a3.266,3.266,0,0,0-.54,0c-.257.02-.331-.037-.227-.31.555-1.453,1.093-2.913,1.637-4.371.263-.7.531-1.406.786-2.113.062-.172.14-.258.338-.247.359.021.787-.1,1.061.054s.3.624.42.958q1.045,2.81,2.08,5.624c.148.4.143.4-.291.4Zm-3.81-2.858c.693,0,1.339-.008,1.984,0,.234,0,.227-.07.16-.254-.243-.664-.469-1.335-.7-2l-.32-.922Z" transform="translate(-694.833 -150.246)" fill="#fff"/>
    <path id="Trazado_17845" data-name="Trazado 17845" d="M1106.3,758.122c.215-.19.419-.39.643-.563a1.56,1.56,0,0,1,1.415-.262c.168.043.249.106.174.309-.142.387-.26.784-.371,1.181-.047.169-.109.215-.283.154a1.137,1.137,0,0,0-.975.126.825.825,0,0,0-.476.811c.026,1.39,0,2.781.018,4.171,0,.306-.093.376-.374.359a9.915,9.915,0,0,0-1.146,0c-.26.015-.344-.058-.341-.33.014-1.348.007-2.7.006-4.044a7.677,7.677,0,0,0-.208-2.178c-.038-.131,0-.2.13-.231.441-.112.884-.22,1.32-.349.144-.042.2.013.236.122C1106.153,757.636,1106.226,757.876,1106.3,758.122Z" transform="translate(-462.705 -63.045)" fill="#fff"/>
    <path id="Trazado_17846" data-name="Trazado 17846" d="M1283.093,758.184a4.565,4.565,0,0,1,.895-.757,1.617,1.617,0,0,1,1.2-.112c.156.041.229.105.165.289-.143.409-.264.826-.39,1.24-.04.131-.089.17-.242.119a1.314,1.314,0,0,0-1.4.438.472.472,0,0,0-.072.33c0,1.443-.009,2.887.008,4.33,0,.3-.092.375-.373.359a11.2,11.2,0,0,0-1.178,0c-.239.011-.3-.064-.3-.3.007-1.613,0-3.226-.007-4.84a4.807,4.807,0,0,0-.191-1.381c-.05-.164-.013-.226.146-.265.421-.1.843-.208,1.257-.334.163-.05.231-.005.288.136A3.1,3.1,0,0,1,1283.093,758.184Z" transform="translate(-616.984 -63.06)" fill="#fff"/>
    <path id="Trazado_17847" data-name="Trazado 17847" d="M984.918,857.239a6.682,6.682,0,0,1,.651-.605,1.613,1.613,0,0,1,1.386-.275c.186.044.3.1.2.344-.149.384-.252.785-.369,1.181-.044.15-.1.2-.267.134a1.207,1.207,0,0,0-1.211.276.6.6,0,0,0-.241.518c.011,1.453,0,2.906.013,4.359,0,.262-.079.327-.323.317-.413-.017-.828-.018-1.241,0-.236.01-.306-.057-.3-.3.012-1.368.006-2.736.006-4.1a7.287,7.287,0,0,0-.212-2.173c-.04-.131.008-.173.116-.2.45-.119.9-.235,1.35-.358.137-.038.188.03.236.14A3.57,3.57,0,0,1,984.918,857.239Z" transform="translate(-356.799 -149.492)" fill="#fff"/>
  </g>
</svg>
