<svg xmlns="http://www.w3.org/2000/svg" width="132.308" height="34.711" viewBox="0 0 132.308 34.711">
  <g id="Grupo_20834" data-name="Grupo 20834" transform="translate(-1.589 1305.158)" opacity="0.6">
    <path id="Trazado_17857" data-name="Trazado 17857" d="M160.034-1237.4a.5.5,0,0,0-.268-.416,1.265,1.265,0,0,0-.534-.141,3.754,3.754,0,0,0-1.417.1l-.091.035h0l0,0a1.589,1.589,0,0,0-.36.186.8.8,0,0,0-.179.174.288.288,0,0,0-.019.027l-.01.015a2.108,2.108,0,0,1-.238.3l-.011.012-.007.008a.379.379,0,0,0-.036.046l-.005.007a1.625,1.625,0,0,1-.311.35l-.03.017-.022.012a.526.526,0,0,1-.26.073.342.342,0,0,1-.24-.143,2.072,2.072,0,0,0-.634-.449l-.016-.009-.038-.021c-.325-.133-.624-.319-.941-.471-.354-.169-.734-.217-1.092-.348a.869.869,0,0,0-.1-.03h0a1.516,1.516,0,0,0-.36-.028,3.112,3.112,0,0,1-.431-.009,7.064,7.064,0,0,0-1.443.005l-.484.036h0l-.141.009-.022.006a.127.127,0,0,1-.024,0c-.051.007-.1,0-.154.006l-.03.016,0,0a.879.879,0,0,1-.472.125h-.006a.454.454,0,0,0-.153.019c-.049.014-.1.033-.144.051a10.284,10.284,0,0,0-1.155.5l-.027.014a3.1,3.1,0,0,0-.815.465.591.591,0,0,1-.309.169,8.424,8.424,0,0,0-1.23,1.239l-.01.083a2.072,2.072,0,0,0-.428.614,1.777,1.777,0,0,0-.269.413,4.485,4.485,0,0,0-.477,1.173c.016.215-.143.377-.177.576a.516.516,0,0,0,0,.073.623.623,0,0,1-.056.29c-.047.193-.073.391-.135.581a2.9,2.9,0,0,0-.048.481,5.228,5.228,0,0,1-.011.594,9.941,9.941,0,0,0,.062,2.477,8.007,8.007,0,0,0,.489,1.9c.176.448.385.88.583,1.318.035.193.251.281.284.476a3.069,3.069,0,0,0,.448.584,6.679,6.679,0,0,0,1.2,1.135,3.606,3.606,0,0,0,.873.539c.286.079.523.265.8.371a1.329,1.329,0,0,0,.4.138,7.788,7.788,0,0,0,5.572-.168c.381-.168.733-.389,1.094-.592a.271.271,0,0,0,.06-.033,4.2,4.2,0,0,1,.6-.452c.054-.041.134-.1.211-.018a.48.48,0,0,1,.073.359q.005,1.97,0,3.939a2.371,2.371,0,0,1-.038.449,1.618,1.618,0,0,0-.011.2c-.015.109.035.228-.024.328a8,8,0,0,0-.3.882,1.1,1.1,0,0,1-.184.362,4.339,4.339,0,0,1-1.395,1.542,6.044,6.044,0,0,1-1.629.618c-.131.026-.265.01-.4.039a5.113,5.113,0,0,1-1.809-.036,7.211,7.211,0,0,1-.819-.183,6.576,6.576,0,0,0-.636-.233c-.31-.182-.639-.331-.933-.539a1.823,1.823,0,0,1-.479-.388,3.57,3.57,0,0,1-.512-.5,6.583,6.583,0,0,1-.78-1.058.736.736,0,0,0-.841.115c-.108.095-.2.227-.348.267l-.04.041c-.048.18-.26.2-.341.341a1.085,1.085,0,0,0-.176.192c-.094.061-.153.161-.239.23a.5.5,0,0,0-.184.469c.01.124.119.181.169.277a5.435,5.435,0,0,0,.845,1.186,6.94,6.94,0,0,0,.872.791c.2.154.437.262.622.424a3.887,3.887,0,0,0,.931.522,1.344,1.344,0,0,0,.48.224c.082.021.161.053.24.082a3.024,3.024,0,0,0,1.018.3c.19.06.392.029.583.076a7.6,7.6,0,0,0,1.807.166c.38,0,.756-.038,1.135-.053a1.938,1.938,0,0,1,.429-.12c.1-.01.2.046.3-.024a4.209,4.209,0,0,0,.868-.2,1.509,1.509,0,0,1,.575-.163c.075-.064.18-.05.263-.1.183-.138.431-.161.593-.338.061-.057.152-.03.217-.083.313-.264.675-.465.982-.737a6.459,6.459,0,0,0,.783-.836c.116-.143.229-.288.336-.438a5.134,5.134,0,0,0,.285-.436.3.3,0,0,0,.025-.066c.221-.4.346-.839.549-1.244a3.116,3.116,0,0,0,.2-.844,4.744,4.744,0,0,0,.15-1.024q0-9.553,0-19.1C160.034-1237.258,160.035-1237.33,160.034-1237.4Zm-3.4,9.934c-.071.328-.137.656-.232.98a6.8,6.8,0,0,1-.31.772,4.341,4.341,0,0,0-.372.57.883.883,0,0,1-.27.246,4.394,4.394,0,0,1-.928.594,5.862,5.862,0,0,0-.573.226,6.219,6.219,0,0,1-2.014.224,2.24,2.24,0,0,1-.593-.046,5.45,5.45,0,0,1-.943-.254,5.154,5.154,0,0,1-.846-.466,3.347,3.347,0,0,1-.422-.328,4.135,4.135,0,0,1-.606-.69c-.066-.1-.137-.191-.207-.285a10.555,10.555,0,0,1-.573-1.16c-.036-.064.01-.144-.043-.2a8.969,8.969,0,0,1-.36-3.7c.007-.264.215-.5.173-.779a6.026,6.026,0,0,0,.253-.677c.174-.331.319-.676.506-1a4.492,4.492,0,0,1,1.407-1.424,3.968,3.968,0,0,1,1.682-.549,3.875,3.875,0,0,1,.4-.042h.007c.124,0,.249,0,.374,0a12.2,12.2,0,0,1,1.7.213.3.3,0,0,1,.13.054.512.512,0,0,0,.359.1l.009.006c.221.167.5.224.715.417a4.491,4.491,0,0,1,.743.68,4.118,4.118,0,0,1,.436.8,1.9,1.9,0,0,1,.226.653c0,.447.232.831.257,1.262q0,1.493,0,2.987a.371.371,0,0,0-.016.2h0C156.67-1227.888,156.678-1227.674,156.633-1227.467Z" transform="translate(-130.187 -61.232)" fill="#fff"/>
    <path id="Trazado_17858" data-name="Trazado 17858" d="M361.883-1229.546q-.019-.741-.048-1.484a9.668,9.668,0,0,0-.313-1.7,6.943,6.943,0,0,0-.519-1.428c-.152-.191-.193-.445-.353-.631a.4.4,0,0,0-.08-.22,6.472,6.472,0,0,0-1.626-1.72.738.738,0,0,1-.312-.233,1.754,1.754,0,0,0-.164-.138.285.285,0,0,0-.086-.038,8.245,8.245,0,0,0-1.453-.664c-.324-.1-.65-.2-.982-.278a2.755,2.755,0,0,1-.49-.053,6.018,6.018,0,0,0-.9-.058c-.054,0-.11.008-.165.016-.038.005-.075.01-.113.012a4.012,4.012,0,0,1-.569,0h0c-.143-.008-.286-.018-.429-.021a2.33,2.33,0,0,0-.673.064,4.041,4.041,0,0,0-1.108.222c-.018.009-.036.018-.055.026-.035.017-.07.033-.105.047-.267.118-.545.21-.815.323a4.749,4.749,0,0,0-.889.437.817.817,0,0,1-.353.166l-.009,0-.011.006c-.218.113-.39.3-.606.411l-.016.018a.894.894,0,0,1-.067.073c-.1.1-.2.185-.308.276-.127.112-.3.176-.362.357l0,0-.017.019c-.242.268-.508.512-.741.788a.117.117,0,0,0-.016.02l-.045.053a13.205,13.205,0,0,0-.78,1.267c-.128.275-.238.555-.352.835v0s0,0,0,0,0,0,0,.006v0c-.025.095-.046.191-.072.286a1.385,1.385,0,0,1-.084.24.422.422,0,0,1-.021.045c0,.033,0,.066,0,.1a.21.21,0,0,1,0,.023c0,.012,0,.023,0,.035-.053.271-.15.534-.2.805l-.01.054a1.665,1.665,0,0,0-.022.384c0,.005,0,.01,0,.015a3.1,3.1,0,0,1-.033.587c-.011.085-.022.169-.031.254a1.531,1.531,0,0,0,0,.282.1.1,0,0,0,0,.015c.016.164.048.327.062.492v0a1.471,1.471,0,0,1,0,.231c0,.011,0,.022,0,.033,0,.044-.007.089-.009.134a1.457,1.457,0,0,0,.035.405s0,.009,0,.014,0,.005,0,.008a.108.108,0,0,1,0,.016,1.235,1.235,0,0,1,.013.178,1.942,1.942,0,0,1,.177.773,1.654,1.654,0,0,0,.194.62c.131.244.2.514.327.764.1.187.273.336.3.56.052.087.092.181.143.269.016.125.122.2.188.289a3.171,3.171,0,0,0,.564.691,4.239,4.239,0,0,0,.864.91c.207.195.471.342.7.528a3.153,3.153,0,0,1,.487.291c.084.08.207.067.3.127a5.433,5.433,0,0,0,1.2.522,5.545,5.545,0,0,0,1.4.38c.292.091.615-.03.9.134.472-.011.944.025,1.415-.019.248-.115.525-.031.777-.117a.538.538,0,0,1,.073-.033c.253-.078.521-.093.779-.147.4-.084.791-.216,1.191-.3.112-.023.2-.126.332-.1a1.3,1.3,0,0,0,.58-.225c.068-.044.16-.023.223-.079.283-.25.669-.32.963-.552a3.729,3.729,0,0,0,.769-.569,1.556,1.556,0,0,1,.2-.213l.176-.2a.482.482,0,0,0-.061-.629,10.238,10.238,0,0,0-1.122-1.317c-.266.015-.566-.113-.763.186-.193.149-.376.308-.581.445a4.62,4.62,0,0,0-.4.228,3.6,3.6,0,0,1-.976.5.185.185,0,0,0-.067.017.844.844,0,0,1-.39.148,2.118,2.118,0,0,0-.391.083,4.38,4.38,0,0,1-1.206.244,4.469,4.469,0,0,1-1.014,0,4.116,4.116,0,0,1-2.806-1.077q-.1-.08-.2-.166c-.192-.19-.378-.385-.566-.579a2.3,2.3,0,0,1-.394-.457c-.144-.262-.28-.533-.432-.784a5.019,5.019,0,0,1-.5-1.312c-.035-.124-.1-.281,0-.406a.212.212,0,0,1,.022-.025.278.278,0,0,1,.033-.028c.076-.062.169-.04.253-.04q5.833,0,11.665,0a1.324,1.324,0,0,0,.669-.073.6.6,0,0,0,.2-.177A.82.82,0,0,0,361.883-1229.546Zm-3.562-2.1c-.011.187-.126.261-.3.274-.055,0-.111,0-.166.005H349.5a1.044,1.044,0,0,1-.213-.012c-.189-.039-.264-.151-.185-.328a1.666,1.666,0,0,0,.116-.5.294.294,0,0,0,.127-.168c.06-.176.182-.317.246-.481a3.857,3.857,0,0,1,1.069-1.395c.143-.133.344-.227.4-.438a.155.155,0,0,0,.218.006,4.36,4.36,0,0,1,.719-.386c.105-.052.252-.1.238-.265.247.187.469.113.567-.187l.568-.016a1.409,1.409,0,0,1,.906,0,3.673,3.673,0,0,1,1.972.614,3.948,3.948,0,0,1,1.452,1.464c.132.261.243.535.384.783a5.479,5.479,0,0,1,.276.837A.807.807,0,0,0,358.321-1231.648Z" transform="translate(-314.154 -61.177)" fill="#fff"/>
    <path id="Trazado_17859" data-name="Trazado 17859" d="M941.479-1231.078h0a8.323,8.323,0,0,1-.232-.9,1.488,1.488,0,0,0-.085-.281c-.085-.254-.217-.491-.28-.753-.174-.345-.36-.683-.547-1.021-.12-.2-.278-.381-.387-.591a7.569,7.569,0,0,0-.872-1.03c-.17-.128-.34-.258-.508-.39a5.475,5.475,0,0,1-.447-.363,1.506,1.506,0,0,1-.137-.15,8.6,8.6,0,0,0-1.738-.909c-.052-.014-.1-.028-.155-.046-.147-.045-.289-.1-.433-.155h0c-.1-.035-.193-.072-.29-.1a.719.719,0,0,1-.137-.015l-.007,0h0l-.017,0c-.047-.011-.094-.019-.143-.026a1.271,1.271,0,0,1-.442-.123l-.04-.024c-.1.009-.194-.026-.293-.026a5.835,5.835,0,0,0-.657-.057c-.091,0-.182-.006-.274-.008s-.209,0-.314,0c-.219,0-.435.012-.653.023-.234.011-.468.024-.7.033-.1,0-.21.008-.315.01-.056,0-.109.021-.165.024a.632.632,0,0,0-.1.027.888.888,0,0,1-.393.111.335.335,0,0,1-.084-.02c-.071.014-.14.029-.209.048l-.06.017c-.119.035-.237.075-.353.12a9.319,9.319,0,0,0-.958.39c-.024.011-.048.024-.073.037l0,0a5.657,5.657,0,0,0-.86.429c-.153-.005-.215.134-.323.2-.047.03-.1.039-.149.072a6.273,6.273,0,0,0-1.433,1.289c-.008.01-.015.021-.023.031a1.268,1.268,0,0,1-.2.207,1.637,1.637,0,0,0-.394.5,3.358,3.358,0,0,0-.576.98c0,.144-.131.212-.182.326,0,.023-.008.048-.011.072,0,.125-.091.213-.129.321a9.818,9.818,0,0,0-.393,1.271,9.372,9.372,0,0,0-.213,1.6,8.951,8.951,0,0,0,.2,2.281,6.413,6.413,0,0,0,.274.957,10.408,10.408,0,0,0,.652,1.347,9.126,9.126,0,0,0,1.3,1.682,2.3,2.3,0,0,0,.634.6c.23.135.436.307.666.447a6.8,6.8,0,0,0,.96.553,2.132,2.132,0,0,0,.39.2,7.125,7.125,0,0,0,1.151.405,8.9,8.9,0,0,0,1.1.243,10.732,10.732,0,0,0,2.127.078,3.164,3.164,0,0,0,.85-.091,9.536,9.536,0,0,0,1.218-.309,7.241,7.241,0,0,0,.72-.261,2.978,2.978,0,0,0,.664-.312c.063-.047.146-.021.213-.083.237-.221.557-.318.805-.524a6.636,6.636,0,0,0,.634-.481c.283-.3.6-.557.887-.855a5.94,5.94,0,0,0,.878-1.222,1.125,1.125,0,0,1,.12-.231,3.567,3.567,0,0,0,.384-.741c.082-.206.124-.423.208-.623a5.355,5.355,0,0,0,.285-.913A9.683,9.683,0,0,0,941.479-1231.078Zm-3.255,2.052a4.88,4.88,0,0,1-.244,1.235c-.059.162-.034.348-.143.5,0,.025-.009.05-.015.075-.022.161-.165.281-.154.454-.213.311-.409.634-.616.949-.193.294-.47.5-.683.764-.235.145-.433.348-.678.473a6.322,6.322,0,0,1-1.132.543c-.321.093-.642.191-.968.275a13.115,13.115,0,0,0-1.586-.049,9.686,9.686,0,0,1-.969-.226,2.016,2.016,0,0,1-.337-.153c-.255-.124-.506-.257-.754-.4a2.784,2.784,0,0,1-.589-.412c-.2-.191-.361-.427-.563-.622-.062-.061-.125-.128-.183-.2a.072.072,0,0,0,.045-.022,8.166,8.166,0,0,1-.722-1.374,3.4,3.4,0,0,1-.339-1.1.872.872,0,0,0-.182-.713,8.461,8.461,0,0,1,.144-1.887c.073-.331.2-.641.294-.962a2.081,2.081,0,0,1,.28-.641,1.335,1.335,0,0,0,.239-.5c.061-.047.145-.063.181-.144a2.75,2.75,0,0,1,.486-.631,7.165,7.165,0,0,1,1.093-.836c.2-.154.471-.18.62-.4a.5.5,0,0,0,.351-.124.134.134,0,0,1,.081-.046c.441.027.822-.277,1.272-.219a6.167,6.167,0,0,0,.69.006,1.625,1.625,0,0,1,.879.142.835.835,0,0,0,.3.049c.153.2.413.147.6.253a6.923,6.923,0,0,1,1.18.746,5.388,5.388,0,0,1,1.1,1.216,5.464,5.464,0,0,1,.417.7,2.809,2.809,0,0,1,.334.99c.069.032.047.155.115.188A7.12,7.12,0,0,1,938.224-1229.026Z" transform="translate(-842.787 -61.302)" fill="#fff"/>
    <path id="Trazado_17860" data-name="Trazado 17860" d="M1154.981-1236.091a1.135,1.135,0,0,1-.529-.1,1.046,1.046,0,0,0-.464-.083c-.649,0-1.3,0-1.947,0a.679.679,0,0,0-.341.086.373.373,0,0,1-.15.067,1.982,1.982,0,0,0-.858.217,3.792,3.792,0,0,0-1.694,1.2,2.868,2.868,0,0,0-.666,1.747q0,4.953,0,9.905a.793.793,0,0,1-.212.646.426.426,0,0,1-.171.058c-.834.007-1.667,0-2.5,0a.5.5,0,0,1-.232-.035.3.3,0,0,1-.259-.292,2,2,0,0,1-.015-.308q0-7.444,0-14.889a.822.822,0,0,1,.2-.674.491.491,0,0,1,.338-.141c.587-.008,1.175-.028,1.762.01a.65.65,0,0,1,.515.327,2.182,2.182,0,0,1,.152.21,6.544,6.544,0,0,0,.339.97c.077.192.136.2.288.069a7.825,7.825,0,0,1,.9-.7.846.846,0,0,1,.231-.111c.2-.134.445-.188.64-.334h0c.322-.16.668-.262,1-.405.246.006.442-.164.687-.179.613-.04,1.213-.2,1.835-.184a9.581,9.581,0,0,1,1.82.173,1.266,1.266,0,0,0,.674.122c.305.106.624.178.918.31a4.373,4.373,0,0,1,.7.351h0a1.456,1.456,0,0,1,.577.38l.085.011a4.3,4.3,0,0,1,.949.96,5.522,5.522,0,0,1,.745,1.328,6.341,6.341,0,0,0,.29.789c.074.16.007.331.079.485.024.041.071.08.064.124-.072.423.2.8.147,1.226a1.965,1.965,0,0,0,.043.587c.009,3.008,0,6.017,0,9.026a1.506,1.506,0,0,1-.023.464.408.408,0,0,1-.081.115,1.347,1.347,0,0,1-.906.243c-.546-.019-1.093,0-1.639-.006a3.069,3.069,0,0,1-.485-.076c-.1-.017-.127-.109-.147-.2a7.118,7.118,0,0,1-.011-.752c.005-2.712-.01-5.423,0-8.135a.373.373,0,0,0-.077-.308c-.061-.058-.044-.148-.047-.227a2.1,2.1,0,0,0-.088-.868.1.1,0,0,1,0-.047,3.12,3.12,0,0,0-.5-1.7,6.479,6.479,0,0,0-.574-.677c-.131-.141-.269-.275-.411-.406h0C1155.609-1235.814,1155.312-1235.994,1154.981-1236.091Z" transform="translate(-1044.559 -60.434)" fill="#fff"/>
    <path id="Trazado_17861" data-name="Trazado 17861" d="M556.64-1235.368l-.049.027a1.352,1.352,0,0,1-.627.784,1.278,1.278,0,0,1-.774-.245c-.224-.117-.461-.2-.689-.3a3.234,3.234,0,0,0-.532-.166,4.4,4.4,0,0,0-1.163-.286,10.585,10.585,0,0,0-1.665-.06,3.323,3.323,0,0,0-1.5.329.338.338,0,0,1-.066.036c-.157-.017-.246.093-.347.183a3.735,3.735,0,0,0-.513.519,1.091,1.091,0,0,0-.177.38,1.609,1.609,0,0,0-.034,1.154c.03.3.273.448.469.615a7.824,7.824,0,0,0,.863.53,2,2,0,0,0,.558.221c.386.107.767.235,1.159.327.355.082.72.149,1.074.26.263.083.54.151.814.215a2.535,2.535,0,0,1,1,.241,6.494,6.494,0,0,1,1.316.537,4.411,4.411,0,0,1,1.618,1.292,2.463,2.463,0,0,1,.4.685,4.171,4.171,0,0,1,.334,1.456,4.8,4.8,0,0,1-.211,1.628c-.071.226-.211.434-.291.652-.16.435-.537.715-.721,1.124-.012.027-.049.04-.069.064-.028.158-.176.221-.278.3a7.024,7.024,0,0,1-1.175.8,2.9,2.9,0,0,0-.3.127c-.47.12-.921.3-1.388.428-.25.068-.509.074-.764.131a7.828,7.828,0,0,1-2.2.111,5.088,5.088,0,0,1-1.211-.185.472.472,0,0,0-.188-.016,2.191,2.191,0,0,1-.791-.158c-.3-.082-.6-.162-.9-.242-.2-.053-.369-.2-.585-.2-.143.028-.223-.1-.333-.146a3.241,3.241,0,0,1-.467-.194l-.062-.031a.889.889,0,0,0-.355-.19.261.261,0,0,1-.049-.054c-.235-.16-.466-.324-.7-.49a.719.719,0,0,1-.286-.9,6.93,6.93,0,0,1,.441-.748c.021-.209.2-.339.272-.525a.552.552,0,0,1,.155-.256.768.768,0,0,1,.854.12c.086.088.236.091.325.189a2.2,2.2,0,0,0,.793.493c.163.071.284.254.494.212a4.716,4.716,0,0,0,1,.4h0c.323.073.641.165.969.221a13.6,13.6,0,0,0,1.781.069,6.912,6.912,0,0,0,.968-.1h0a2.066,2.066,0,0,0,.867-.361.256.256,0,0,1,.155-.042,1.253,1.253,0,0,0,.473-.341,1.558,1.558,0,0,0,.408-.666,2.018,2.018,0,0,0,.05-1.494h0a1.733,1.733,0,0,0-.692-.731.494.494,0,0,0-.044-.049,1.065,1.065,0,0,0-.663-.316.618.618,0,0,1-.126-.054,1.266,1.266,0,0,0-.591-.241l-.066-.03a2.492,2.492,0,0,0-.737-.178.309.309,0,0,1-.118,0,6.988,6.988,0,0,0-1.159-.292c-.361-.1-.727-.179-1.081-.3a4.089,4.089,0,0,1-.945-.345.778.778,0,0,1-.436-.158c-.248-.136-.494-.274-.749-.4-.224-.111-.424-.265-.65-.374a6.45,6.45,0,0,1-1.082-1.06,2.127,2.127,0,0,1-.365-.807,3.443,3.443,0,0,1-.094-1.85.62.62,0,0,0,.038-.209,6.613,6.613,0,0,1,.388-1.03,4.8,4.8,0,0,1,.53-.77c.271-.3.565-.577.855-.858a4.194,4.194,0,0,1,1.109-.641.623.623,0,0,0,.377-.114c.32-.217.717-.179,1.047-.355a1.05,1.05,0,0,1,.421-.052,13.177,13.177,0,0,1,2.343-.029,8.471,8.471,0,0,1,.948.043,1.671,1.671,0,0,0,.326.016c.24.158.528.093.785.17a.323.323,0,0,1,.07.023,8,8,0,0,0,1,.3c.048.014.079.055.125.073a5.328,5.328,0,0,1,.781.369c.148.086.308.154.46.226a.577.577,0,0,1,.243.224.557.557,0,0,1-.089.762c-.129.129-.077.315-.189.439C556.731-1235.439,556.729-1235.366,556.64-1235.368Z" transform="translate(-496.2 -61.188)" fill="#fff"/>
    <path id="Trazado_17862" data-name="Trazado 17862" d="M6.359-1267.327c-.16,0-.247-.142-.382-.189a2.137,2.137,0,0,1-.954-.764h0a1.757,1.757,0,0,1-.594-.949c-.031-.145-.19-.214-.192-.368a1.034,1.034,0,0,0-.114-.533,1.546,1.546,0,0,1-.077-.474c-.206-3.272-.039-6.547-.095-9.82-.008-.486-.022-.5-.5-.51-.429-.007-.857,0-1.286,0a.487.487,0,0,1-.278-.044.475.475,0,0,1-.292-.459c-.018-.51,0-1.019-.007-1.528a.733.733,0,0,1,.286-.565h0a9.683,9.683,0,0,1,1.469-.048c.087,0,.175,0,.262,0,.248-.006.322-.078.321-.333q0-1.042,0-2.084c0-.429.01-.858,0-1.286a2.439,2.439,0,0,1,.116-.669c.026-.1.1-.076.166-.094a1.3,1.3,0,0,1,.79-.115c.524-.007,1.048.012,1.571-.008a1.441,1.441,0,0,1,.525.138c.09.031.094.119.119.192a2.272,2.272,0,0,1,.024.578c0,1.113,0,2.225,0,3.338,0,.186.046.333.27.342q1.808,0,3.616,0c.262,0,.522.031.783.023a.294.294,0,0,1,.275.19,1.135,1.135,0,0,1,.156.465c.017.449.01.9,0,1.346,0,.2,0,.449-.261.551h0a.616.616,0,0,1-.4.1c-1.345,0-2.69-.011-4.035.006-.056,0-.112,0-.168.007-.215.006-.215.167-.214.314.007,1.359,0,2.717,0,4.076,0,1.456-.026,2.913.016,4.369a4.09,4.09,0,0,0,.275,1.632,1.965,1.965,0,0,0,1,.843h0a3.128,3.128,0,0,0,1.526,0h0a3.87,3.87,0,0,0,1.251-.591,2.8,2.8,0,0,0,.517-.379.753.753,0,0,1,.894-.194.521.521,0,0,1,.3.354h0a1.66,1.66,0,0,1,.233.409c.1.206.25.381.339.592h0a.682.682,0,0,1-.1.891c-.091.088-.2.158-.281.254h0a2.54,2.54,0,0,0-.479.309c-.289.173-.6.3-.892.46-.064.035-.143-.009-.2.041h0a3.929,3.929,0,0,1-.572.191h0a8.691,8.691,0,0,1-1.534.34,9.322,9.322,0,0,1-1.2.064,4.39,4.39,0,0,1-1.183-.157A2.747,2.747,0,0,1,6.359-1267.327Z" transform="translate(0 -15.52)" fill="#fff"/>
    <path id="Trazado_17863" data-name="Trazado 17863" d="M1307.086-1022.723a.176.176,0,0,1,.141-.145c.465-.429.893-.9,1.35-1.334.1-.1.171-.222.3-.284a1.252,1.252,0,0,0,.313-.318c.117-.141.084-.234-.1-.255a6.494,6.494,0,0,0-.756-.071c-2.256,0-4.512-.012-6.768.009a1.1,1.1,0,0,1-1.031-1.234,2.694,2.694,0,0,1,.077-.38.911.911,0,0,1,.615-.68.927.927,0,0,1,.478-.1q3.512.006,7.024,0c.056,0,.111,0,.167,0a.168.168,0,0,0,.174-.1c.031-.071-.022-.115-.062-.165-.146-.184-.347-.313-.485-.507a8.1,8.1,0,0,0-.81-.836c-.268-.281-.528-.576-.817-.833a.875.875,0,0,1-.242-.693.8.8,0,0,1,.3-.664c.046-.043.087-.093.13-.139h0c.186-.148.315-.377.582-.412a1,1,0,0,1,.979.237c.35.326.667.686,1.011,1.019.658.636,1.295,1.3,1.945,1.94q.852.845,1.7,1.7a.428.428,0,0,1,.106.206,1.435,1.435,0,0,1,.1.8c-.015.161-.139.257-.212.383a4.768,4.768,0,0,1-.712.735c-.364.321-.648.722-1.029,1.025a.766.766,0,0,1-.163.165q-.88.917-1.8,1.8a.817.817,0,0,1-.176.168,4.51,4.51,0,0,1-.723.709.877.877,0,0,1-.728.139,1.662,1.662,0,0,1-1.1-1.031.323.323,0,0,1,.009-.442C1306.9-1022.47,1307.031-1022.576,1307.086-1022.723Z" transform="translate(-1186.695 -249.637)" fill="#fff"/>
    <path id="Trazado_17864" data-name="Trazado 17864" d="M1443.351-1005.009c.057-.268.3-.388.469-.557.316-.313.6-.657.915-.968.189.006.245-.177.344-.275a5.424,5.424,0,0,1,.782-.752c.073-.048.031-.1-.008-.16a4.454,4.454,0,0,0-.58-.622c-.059-.06-.115-.125-.177-.182-.593-.621-1.225-1.2-1.81-1.83a.743.743,0,0,1-.149-.235c-.2-.241-.016-.454.069-.658a.985.985,0,0,1,.963-.48.574.574,0,0,1,.186.093h0c.157.022.223.169.319.26.4.375.768.772,1.162,1.149.292.28.558.593.851.873.37.354.7.75,1.1,1.07a.689.689,0,0,1,.276.675c-.014.087,0,.174-.019.26-.459.448-.905.91-1.363,1.36-.411.4-.812.821-1.229,1.22-.007.058-.061.067-.1.093a5.106,5.106,0,0,1-.8.8.826.826,0,0,1-.8.012A.867.867,0,0,1,1443.351-1005.009Z" transform="translate(-1316.902 -268.066)" fill="#fff"/>
    <path id="Trazado_17865" data-name="Trazado 17865" d="M1503.331-988.359a.53.53,0,0,1-.2.475,8.06,8.06,0,0,1-.787.812c-.3.237-.519.551-.812.791a.587.587,0,0,1-.771,0,.5.5,0,0,1,.054-.778c.457-.375.824-.837,1.247-1.244.088-.084.03-.119-.029-.187-.3-.345-.649-.637-.978-.951-.158-.151-.285-.333-.435-.494a.648.648,0,0,1,.063-.669.671.671,0,0,1,.714.079c.476.479.959.949,1.441,1.422.14.138.285.271.427.407C1503.367-988.6,1503.318-988.472,1503.331-988.359Z" transform="translate(-1369.441 -287.309)" fill="#fff"/>
    <path id="Trazado_17866" data-name="Trazado 17866" d="M1265.517-980.232a1.137,1.137,0,0,1,1.168-1.205,1.238,1.238,0,0,1,1.178,1.209,1.147,1.147,0,0,1-1.213,1.183A1.1,1.1,0,0,1,1265.517-980.232Z" transform="translate(-1154.713 -295.747)" fill="#fff"/>
    <path id="Trazado_17867" data-name="Trazado 17867" d="M1238.088-976.242a.773.773,0,0,1-.723.877.989.989,0,0,1-.863-.417.562.562,0,0,1-.049-.782c.113-.164.16-.382.37-.449a1.551,1.551,0,0,1,.845-.012.521.521,0,0,1,.386.406A2.694,2.694,0,0,1,1238.088-976.242Z" transform="translate(-1128.036 -299.732)" fill="#fff"/>
    <path id="Trazado_17868" data-name="Trazado 17868" d="M870.293-1218.284l-2.567-.012a.894.894,0,0,1-.2-.725q0-7.277,0-14.554c0-.151.008-.3,0-.453a.294.294,0,0,1,.191-.321.555.555,0,0,1,.418-.139c.667,0,1.335,0,2,0a.486.486,0,0,1,.489.473c0,.063,0,.127,0,.191q0,7.482,0,14.963c0,.031,0,.064,0,.1C870.654-1218.508,870.569-1218.33,870.293-1218.284Z" transform="translate(-791.108 -64.564)" fill="#fff"/>
    <path id="Trazado_17869" data-name="Trazado 17869" d="M1365.061-1237.193a1.079,1.079,0,0,0-.3-.954c-.4,0-.808.012-1.21-.008a1.2,1.2,0,0,0-.852.337,7.111,7.111,0,0,0-.8.95c-.092.107-.168.3-.326.26a.547.547,0,0,1-.441-.347.283.283,0,0,1-.222-.111.79.79,0,0,0-.417-.323c-.1-.027-.125-.111-.167-.187l-.138-.006a1.658,1.658,0,0,0-.334-.209,3.8,3.8,0,0,1-.716-.361c-.223.038-.385-.159-.581-.168-.515-.024-1.021-.115-1.53-.169-.4-.044-.777.16-1.177.1a.393.393,0,0,1-.135.037c-.452-.057-.844.248-1.293.216-.046,0-.095.052-.146.067a5.662,5.662,0,0,1-.8.306c-.131.054-.207.222-.382.187a8.518,8.518,0,0,0-1.918,1.568,4.761,4.761,0,0,1-.569.766,1.2,1.2,0,0,1-.423.625,2.327,2.327,0,0,1-.274.715,4.823,4.823,0,0,0-.282.809,3.421,3.421,0,0,0-.231,1.241.09.09,0,0,1-.022.067.809.809,0,0,0-.152.652,10.658,10.658,0,0,0,.188,3.134,8.024,8.024,0,0,0,.234.932,5.171,5.171,0,0,0,.256.8c.138.335.3.663.467.99a5.938,5.938,0,0,0,.573.878c.255.33.56.609.815.934.064.045.132.085.193.135.228.186.513.3.668.574.185-.039.268.136.405.191a5.955,5.955,0,0,1,.875.433c.235.107.508.132.727.235a6.84,6.84,0,0,0,1.287.281,7.433,7.433,0,0,0,1.706.059c.437-.272.963-.175,1.436-.355a5.93,5.93,0,0,0,1.711-.832,4.356,4.356,0,0,0,.943-.837c.084-.1.1-.094.213-.026.232.141.282.4.377.594.082.172.262.326.233.55a1.571,1.571,0,0,0,.577.516l1.616.008a.769.769,0,0,0,.341-.747Q1365.05-1229.944,1365.061-1237.193Zm-3.188,8a8.8,8.8,0,0,1-.1,1.121c-.12.236-.06.5-.138.75-.117.374-.251.741-.4,1.1-.2.228-.293.531-.492.762a4.222,4.222,0,0,1-.458.432,2.116,2.116,0,0,1-.748.372,2.9,2.9,0,0,1-.953.339,3.491,3.491,0,0,1-.862.1c-.356,0-.712,0-1.068,0a3.564,3.564,0,0,1-.954-.214,3.991,3.991,0,0,1-.658-.285l-.131-.009c-.075-.042-.1-.137-.192-.163a7.27,7.27,0,0,1-.83-.766c-.077-.084-.129-.193-.238-.247l-.094-.143a5.617,5.617,0,0,1-.681-1.306,8.009,8.009,0,0,1-.374-1.718,10.748,10.748,0,0,1-.025-1.669,4.991,4.991,0,0,1,.192-1.384c.1-.279.162-.578.251-.865a6.832,6.832,0,0,1,.823-1.356,5.021,5.021,0,0,1,.741-.676,4.254,4.254,0,0,1,1.784-.732,4.406,4.406,0,0,1,1.517-.05,3.631,3.631,0,0,1,1.29.251,1.33,1.33,0,0,0,.229.049,4.266,4.266,0,0,1,1.158.7,1.418,1.418,0,0,1,.464.572c.066.147.245.2.256.371a2.7,2.7,0,0,1,.267.536c.168.493.225,1.011.357,1.512a.314.314,0,0,1,.01.07A20.17,20.17,0,0,1,1361.873-1229.19Z" transform="translate(-1231.168 -60.901)" fill="#fff"/>
    <path id="Trazado_17870" data-name="Trazado 17870" d="M718.916-1269.3a1.829,1.829,0,0,0,.38.62.3.3,0,0,0,.108.269.33.33,0,0,1,.087.256.285.285,0,0,1,.038.378c-.136.382-.49.532-.8.717-.141.085-.237.226-.394.282a2.166,2.166,0,0,0-.577.25,1.423,1.423,0,0,1-.418.138,7.7,7.7,0,0,1-.965.281c-.244.094-.543.042-.791.129a4.323,4.323,0,0,1-1.493.154.9.9,0,0,1-.437-.1.737.737,0,0,0-.32-.085,3.6,3.6,0,0,1-1.736-.586,3.514,3.514,0,0,1-.885-.8,4.979,4.979,0,0,1-.489-.936.78.78,0,0,1-.087-.264c0-.254-.176-.457-.191-.7q0-5.076,0-10.152c0-.334-.094-.428-.425-.431-.572,0-1.144,0-1.717,0-.128,0-.184-.09-.228-.191a4.873,4.873,0,0,1-.11-1.3,1.912,1.912,0,0,1,.154-.762.406.406,0,0,1,.424-.279c.493.007.985,0,1.478,0,.339,0,.384-.049.384-.388q0-1.74,0-3.479a1.446,1.446,0,0,1,.095-.606l.04-.007c.758-.071,1.519-.037,2.278-.043.118,0,.236.021.355.022.271,0,.382.148.376.4a.546.546,0,0,1,.046.324c0,1.117,0,2.234,0,3.352,0,.154-.018.319.142.422l4.187,0a.6.6,0,0,1,.486.141l.188.241a6.931,6.931,0,0,1,.006,1.808c0,.031,0,.063,0,.094a.508.508,0,0,1-.483.221c-1.358-.01-2.716-.005-4.074,0-.3,0-.427.114-.426.4.008,2.977,0,5.954.006,8.931,0,.094-.018.2.068.271a1.625,1.625,0,0,1,.037.21,1.747,1.747,0,0,0,.893,1.475c.041.025.079.052.119.079a2.162,2.162,0,0,0,1.044.188,6.849,6.849,0,0,0,1.172-.3c.21-.085.372-.264.61-.285.094-.008.12-.09.133-.173a2.221,2.221,0,0,0,.546-.4A.691.691,0,0,1,718.916-1269.3Z" transform="translate(-644.88 -16.643)" fill="#fff"/>
    <path id="Trazado_17871" data-name="Trazado 17871" d="M866.527-1304.532c.18.157.216.408.379.576q0,.588,0,1.175c-.142.184-.176.437-.375.585-.068.124-.2.177-.3.265a3.069,3.069,0,0,1-1.106.474.418.418,0,0,1-.406-.071.365.365,0,0,0-.218-.083c-.505.016-.765-.356-1.054-.668-.078-.085-.217-.149-.208-.3a.645.645,0,0,0-.13-.417.86.86,0,0,1,.042-.778.447.447,0,0,0,.085-.331c.021-.285.272-.414.425-.6a1.248,1.248,0,0,1,.911-.445c.267.016.534.008.8.026a1.415,1.415,0,0,1,1.05.54A.357.357,0,0,0,866.527-1304.532Z" transform="translate(-787.012)" fill="#fff"/>
  </g>
</svg>
