<svg xmlns="http://www.w3.org/2000/svg" width="97.721" height="16.844" viewBox="0 0 97.721 16.844">
  <g id="Grupo_20788" data-name="Grupo 20788" transform="translate(-742 -2258.999)" opacity="0.6">
    <g id="Grupo_20787" data-name="Grupo 20787" transform="translate(742 2258.999)">
      <path id="Trazado_17812" data-name="Trazado 17812" d="M-266.19,391.091a14.334,14.334,0,0,1-3.988-.617,1.026,1.026,0,0,1-.81-1.115c.023-.427,0-.858.005-1.286.019-.856.3-1.1,1.142-.873a17.977,17.977,0,0,0,2.595.5,6.347,6.347,0,0,0,2.843-.192,1.453,1.453,0,0,0,1.154-1.254c.056-.7-.453-1.044-1-1.274-.742-.313-1.516-.548-2.268-.837-.658-.253-1.323-.5-1.954-.809a4.5,4.5,0,0,1-.666-7.623,6.616,6.616,0,0,1,3.866-1.345,13.169,13.169,0,0,1,3.822.419,1.079,1.079,0,0,1,.892,1.133c.1,2.116,0,2.211-2.1,1.921a8.365,8.365,0,0,0-3.009-.078,2.819,2.819,0,0,0-.978.386,1.135,1.135,0,0,0-.023,2.036,5.614,5.614,0,0,0,1.443.649,20.668,20.668,0,0,1,3.175,1.212,4.057,4.057,0,0,1,2.372,3.827,4.64,4.64,0,0,1-2.318,4.306A8.2,8.2,0,0,1-266.19,391.091Z" transform="translate(357.398 -374.247)" fill="#fff"/>
      <path id="Trazado_17813" data-name="Trazado 17813" d="M-737.827,381.475c0-1.739-.007-3.479,0-5.218.006-1.075.285-1.348,1.336-1.362,2.184-.03,2.2-.012,2.2,2.155q0,1.55,0,3.1c0,1.377,0,1.377,1.416,1.377,1.185,0,2.37-.008,3.554,0,.969.011,1.242.287,1.293,1.264a5.281,5.281,0,0,1,0,.68c-.069.894-.328,1.157-1.226,1.167-1.462.017-2.924.022-4.386,0-.483-.007-.649.138-.657.643-.036,2.274.431,2.774,2.7,2.78,1.336,0,2.672.014,4.008,0a1.009,1.009,0,0,1,1.14,1.029c0,.025,0,.05.007.075.193,1.922-.071,2.23-1.994,2.211-1.713-.017-3.428.083-5.139-.076-2.746-.255-4.1-1.673-4.236-4.458,0-.075-.007-.151-.007-.227q0-2.571,0-5.143Z" transform="translate(753.543 -374.7)" fill="#fff"/>
      <path id="Trazado_17814" data-name="Trazado 17814" d="M-549.545,379.062c.8-1.275,1.657-2.521,2.384-3.839a2.743,2.743,0,0,1,2.936-1.5c1.248.1,1.592.673.915,1.723-1.217,1.887-2.43,3.778-3.7,5.626a1.367,1.367,0,0,0,0,1.9c1.379,1.833,2.632,3.761,3.927,5.657a2.457,2.457,0,0,1,.373.735c.138.53-.066.934-.639.969a15.044,15.044,0,0,1-2.191-.015c-.611-.051-.931-.559-1.238-1.026-1.6-2.423-3.171-4.86-4.784-7.271-1.431-2.138-2.9-4.249-4.354-6.374a4.046,4.046,0,0,1-.42-.715c-.26-.63-.04-1.01.635-1.155a2.873,2.873,0,0,1,3.618,1.512q1.191,1.842,2.38,3.686C-549.686,379.01-549.626,379.021-549.545,379.062Z" transform="translate(599.629 -373.638)" fill="#fff"/>
      <path id="Trazado_17815" data-name="Trazado 17815" d="M-443.511,374.908c.807,0,1.614-.008,2.42,0,.855.012,1.051.212,1.092,1.079.01.2.007.4.006.605,0,1.314-.02,1.351-1.3,1.466-.374.033-.464.19-.463.519q.008,4.614,0,9.228c0,.414.2.487.559.511,1.13.075,1.194.162,1.207,1.329.018,1.7-.032,1.748-1.71,1.749-1.387,0-2.774.011-4.16-.005-.969-.012-1.137-.2-1.152-1.161,0-.227,0-.454,0-.681.01-1.069.1-1.2,1.148-1.223.516-.011.631-.208.628-.676-.015-2.975-.02-5.95,0-8.925,0-.55-.2-.668-.7-.669-.851,0-1.047-.238-1.076-1.1-.069-2.051-.069-2.051,1.989-2.051Z" transform="translate(506.782 -374.713)" fill="#fff"/>
      <path id="Trazado_17816" data-name="Trazado 17816" d="M-643.257,381.511c0-1.74-.01-3.48,0-5.22.008-1.117.282-1.371,1.4-1.382,2.122-.02,2.155.013,2.155,2.134,0,2.9,0,5.8,0,8.7.005,1.793.508,2.306,2.286,2.332,1.185.017,2.37,0,3.556.011.815.01,1.066.268,1.123,1.089.139,1.991-.078,2.233-2.087,2.219-1.461-.01-2.923.055-4.384-.09a4.041,4.041,0,0,1-3.987-3.971,6.017,6.017,0,0,1-.049-.6q-.006-2.61,0-5.22Z" transform="translate(673.295 -374.714)" fill="#fff"/>
      <path id="Trazado_17817" data-name="Trazado 17817" d="M-810.009,383.116c0-2.244-.006-4.488,0-6.733,0-1.228.25-1.467,1.46-1.469q2.761,0,5.522,0c1.059,0,1.327.274,1.357,1.346,0,.151,0,.3,0,.454-.013,1.252-.267,1.508-1.511,1.515-.832,0-1.669.053-2.5-.015-.735-.06-.866.239-.861.9.027,3.53.017,7.061.009,10.591,0,.566.147,1.278-.528,1.527a3.234,3.234,0,0,1-2.575-.07c-.44-.215-.379-.733-.38-1.16Q-810.014,386.558-810.009,383.116Z" transform="translate(814.795 -374.719)" fill="#fff"/>
      <path id="Trazado_17818" data-name="Trazado 17818" d="M-352.977,391c.09-.315.339-.417.524-.569,1.612-1.333,3.213-2.679,4.857-3.972a1.5,1.5,0,0,0,.62-1.346c-.021-2.873-.012-5.746-.008-8.619,0-1.358.231-1.582,1.582-1.586.252,0,.5-.008.756,0,.81.04,1.125.3,1.128,1.1.014,3.452,0,6.9-.013,10.357a2.373,2.373,0,0,1-.942,1.9q-1.555,1.263-3.129,2.5a3.258,3.258,0,0,1-2.042.677A8.538,8.538,0,0,1-352.977,391Z" transform="translate(426.969 -374.713)" fill="#fff"/>
      <path id="Trazado_17819" data-name="Trazado 17819" d="M-374.653,387.667c-.967.808-1.842,1.526-2.7,2.265-.254.22-.421.144-.648-.03a5.178,5.178,0,0,1-2.144-3.919c-.193-3.4-.055-6.8-.074-10.2a.95.95,0,0,1,1.04-1.036l.075,0c2.173-.133,2.33.017,2.334,2.174q.008,3.664.028,7.329A3.384,3.384,0,0,0-374.653,387.667Z" transform="translate(450.109 -374.548)" fill="#fff"/>
      <path id="Trazado_17820" data-name="Trazado 17820" d="M-556.319,444.823c-.533-.066-1.232.257-1.574-.387s.19-1.141.514-1.634c1.013-1.538,2.053-3.058,3.061-4.6.311-.475.525-.514.841-.007.387.62.809,1.221,1.253,1.8a.807.807,0,0,1,.009,1.086c-.543.789-1.094,1.579-1.562,2.414A2.2,2.2,0,0,1-556.319,444.823Z" transform="translate(600.95 -428.11)" fill="#fff"/>
      <path id="Trazado_17821" data-name="Trazado 17821" d="M-702.146,374.911c.681,0,1.363-.009,2.043,0a.927.927,0,0,1,1,.923c.008.075.018.15.023.226.144,1.9-.1,2.161-1.991,2.161-1.009,0-2.019.014-3.028-.006-.853-.017-1.131-.289-1.21-1.122a6.522,6.522,0,0,1-.013-.681c.014-1.245.275-1.506,1.513-1.511.555,0,1.11,0,1.665,0Z" transform="translate(725.963 -374.712)" fill="#fff"/>
      <path id="Trazado_17822" data-name="Trazado 17822" d="M-839.894,374.908a1.758,1.758,0,0,1,1.634,2.76c-.538,1-1.582.486-2.409.523-.6.027-.874-.42-.913-1-.013-.2-.016-.4-.016-.6C-841.6,375.109-841.4,374.908-839.894,374.908Z" transform="translate(841.598 -374.716)" fill="#fff"/>
    </g>
  </g>
</svg>
