<svg xmlns="http://www.w3.org/2000/svg" width="97.587" height="37.531" viewBox="0 0 97.587 37.531">
  <path id="Trazado_17848" data-name="Trazado 17848" d="M501.7-1357.232a1.9,1.9,0,0,0-1.813,2,1.884,1.884,0,0,0,1.825,1.939,1.878,1.878,0,0,0,1.785-1.975A1.883,1.883,0,0,0,501.7-1357.232Zm0,0a1.9,1.9,0,0,0-1.813,2,1.884,1.884,0,0,0,1.825,1.939,1.878,1.878,0,0,0,1.785-1.975A1.883,1.883,0,0,0,501.7-1357.232Zm0,0a1.9,1.9,0,0,0-1.813,2,1.884,1.884,0,0,0,1.825,1.939,1.878,1.878,0,0,0,1.785-1.975A1.883,1.883,0,0,0,501.7-1357.232Zm20.156,0a1.862,1.862,0,0,0-1.795,1.962,1.861,1.861,0,0,0,1.77,1.982,1.89,1.89,0,0,0,1.835-1.982A1.9,1.9,0,0,0,521.859-1357.231Zm-20.156,0a1.9,1.9,0,0,0-1.813,2,1.884,1.884,0,0,0,1.825,1.939,1.878,1.878,0,0,0,1.785-1.975A1.883,1.883,0,0,0,501.7-1357.232Zm20.156,0a1.862,1.862,0,0,0-1.795,1.962,1.861,1.861,0,0,0,1.77,1.982,1.89,1.89,0,0,0,1.835-1.982A1.9,1.9,0,0,0,521.859-1357.231Zm-20.156,0a1.9,1.9,0,0,0-1.813,2,1.884,1.884,0,0,0,1.825,1.939,1.878,1.878,0,0,0,1.785-1.975A1.883,1.883,0,0,0,501.7-1357.232Zm20.156,0a1.862,1.862,0,0,0-1.795,1.962,1.861,1.861,0,0,0,1.77,1.982,1.89,1.89,0,0,0,1.835-1.982A1.9,1.9,0,0,0,521.859-1357.231Zm21.753,2.9c-.23-.583-.459-1.167-.735-1.869-.278.691-.509,1.256-.733,1.823-.075.189.011.271.2.271.357,0,.715,0,1.072,0C543.564-1354.108,543.69-1354.131,543.612-1354.33Zm-41.909-2.9a1.9,1.9,0,0,0-1.813,2,1.884,1.884,0,0,0,1.825,1.939,1.878,1.878,0,0,0,1.785-1.975A1.883,1.883,0,0,0,501.7-1357.232Zm20.156,0a1.862,1.862,0,0,0-1.795,1.962,1.861,1.861,0,0,0,1.77,1.982,1.89,1.89,0,0,0,1.835-1.982A1.9,1.9,0,0,0,521.859-1357.231Zm21.753,2.9c-.23-.583-.459-1.167-.735-1.869-.278.691-.509,1.256-.733,1.823-.075.189.011.271.2.271.357,0,.715,0,1.072,0C543.564-1354.108,543.69-1354.131,543.612-1354.33Zm-41.909-2.9a1.9,1.9,0,0,0-1.813,2,1.884,1.884,0,0,0,1.825,1.939,1.878,1.878,0,0,0,1.785-1.975A1.883,1.883,0,0,0,501.7-1357.232Zm20.156,0a1.862,1.862,0,0,0-1.795,1.962,1.861,1.861,0,0,0,1.77,1.982,1.89,1.89,0,0,0,1.835-1.982A1.9,1.9,0,0,0,521.859-1357.231Zm21.753,2.9c-.23-.583-.459-1.167-.735-1.869-.278.691-.509,1.256-.733,1.823-.075.189.011.271.2.271.357,0,.715,0,1.072,0C543.564-1354.108,543.69-1354.131,543.612-1354.33Zm12.369,14.1c-.071-.226-.168-.443-.253-.665l-.118-.006c-.133.339-.268.676-.4,1.016-.04.106-.075.245.089.265.268.032.587.122.793-.046C556.269-1339.812,556.041-1340.043,555.981-1340.231Zm0,0c-.071-.226-.168-.443-.253-.665l-.118-.006c-.133.339-.268.676-.4,1.016-.04.106-.075.245.089.265.268.032.587.122.793-.046C556.269-1339.812,556.041-1340.043,555.981-1340.231Zm-54.278-17a1.9,1.9,0,0,0-1.813,2,1.884,1.884,0,0,0,1.825,1.939,1.878,1.878,0,0,0,1.785-1.975A1.883,1.883,0,0,0,501.7-1357.232Zm20.156,0a1.862,1.862,0,0,0-1.795,1.962,1.861,1.861,0,0,0,1.77,1.982,1.89,1.89,0,0,0,1.835-1.982A1.9,1.9,0,0,0,521.859-1357.231Zm21.753,2.9c-.23-.583-.459-1.167-.735-1.869-.278.691-.509,1.256-.733,1.823-.075.189.011.271.2.271.357,0,.715,0,1.072,0C543.564-1354.108,543.69-1354.131,543.612-1354.33Zm-41.909-2.9a1.9,1.9,0,0,0-1.813,2,1.884,1.884,0,0,0,1.825,1.939,1.878,1.878,0,0,0,1.785-1.975A1.883,1.883,0,0,0,501.7-1357.232Zm20.156,0a1.862,1.862,0,0,0-1.795,1.962,1.861,1.861,0,0,0,1.77,1.982,1.89,1.89,0,0,0,1.835-1.982A1.9,1.9,0,0,0,521.859-1357.231Zm21.753,2.9c-.23-.583-.459-1.167-.735-1.869-.278.691-.509,1.256-.733,1.823-.075.189.011.271.2.271.357,0,.715,0,1.072,0C543.564-1354.108,543.69-1354.131,543.612-1354.33Zm12.369,14.1c-.071-.226-.168-.443-.253-.665l-.118-.006c-.133.339-.268.676-.4,1.016-.04.106-.075.245.089.265.268.032.587.122.793-.046C556.269-1339.812,556.041-1340.043,555.981-1340.231Zm0,0c-.071-.226-.168-.443-.253-.665l-.118-.006c-.133.339-.268.676-.4,1.016-.04.106-.075.245.089.265.268.032.587.122.793-.046C556.269-1339.812,556.041-1340.043,555.981-1340.231Zm-54.278-17a1.9,1.9,0,0,0-1.813,2,1.884,1.884,0,0,0,1.825,1.939,1.878,1.878,0,0,0,1.785-1.975A1.883,1.883,0,0,0,501.7-1357.232Zm20.156,0a1.862,1.862,0,0,0-1.795,1.962,1.861,1.861,0,0,0,1.77,1.982,1.89,1.89,0,0,0,1.835-1.982A1.9,1.9,0,0,0,521.859-1357.231Zm21.753,2.9c-.23-.583-.459-1.167-.735-1.869-.278.691-.509,1.256-.733,1.823-.075.189.011.271.2.271.357,0,.715,0,1.072,0C543.564-1354.108,543.69-1354.131,543.612-1354.33Zm-41.909-2.9a1.9,1.9,0,0,0-1.813,2,1.884,1.884,0,0,0,1.825,1.939,1.878,1.878,0,0,0,1.785-1.975A1.883,1.883,0,0,0,501.7-1357.232Zm20.156,0a1.862,1.862,0,0,0-1.795,1.962,1.861,1.861,0,0,0,1.77,1.982,1.89,1.89,0,0,0,1.835-1.982A1.9,1.9,0,0,0,521.859-1357.231Zm21.753,2.9c-.23-.583-.459-1.167-.735-1.869-.278.691-.509,1.256-.733,1.823-.075.189.011.271.2.271.357,0,.715,0,1.072,0C543.564-1354.108,543.69-1354.131,543.612-1354.33Zm.58,13.138a1.191,1.191,0,0,0-1.162-.051c-.258.159-.13.64-.07.962.053.291.357.094.507.155.065,0,.1,0,.13,0,.36.017.7-.029.826-.433A.506.506,0,0,0,544.192-1341.192Zm11.789.961c-.071-.226-.168-.443-.253-.665l-.118-.006c-.133.339-.268.676-.4,1.016-.04.106-.075.245.089.265.268.032.587.122.793-.046C556.269-1339.812,556.041-1340.043,555.981-1340.231Zm0,0c-.071-.226-.168-.443-.253-.665l-.118-.006c-.133.339-.268.676-.4,1.016-.04.106-.075.245.089.265.268.032.587.122.793-.046C556.269-1339.812,556.041-1340.043,555.981-1340.231Zm-11.789-.961a1.191,1.191,0,0,0-1.162-.051c-.258.159-.13.64-.07.962.053.291.357.094.507.155.065,0,.1,0,.13,0,.36.017.7-.029.826-.433A.506.506,0,0,0,544.192-1341.192Zm-42.489-16.04a1.9,1.9,0,0,0-1.813,2,1.884,1.884,0,0,0,1.825,1.939,1.878,1.878,0,0,0,1.785-1.975A1.883,1.883,0,0,0,501.7-1357.232Zm20.156,0a1.862,1.862,0,0,0-1.795,1.962,1.861,1.861,0,0,0,1.77,1.982,1.89,1.89,0,0,0,1.835-1.982A1.9,1.9,0,0,0,521.859-1357.231Zm21.753,2.9c-.23-.583-.459-1.167-.735-1.869-.278.691-.509,1.256-.733,1.823-.075.189.011.271.2.271.357,0,.715,0,1.072,0C543.564-1354.108,543.69-1354.131,543.612-1354.33Zm-41.909-2.9a1.9,1.9,0,0,0-1.813,2,1.884,1.884,0,0,0,1.825,1.939,1.878,1.878,0,0,0,1.785-1.975A1.883,1.883,0,0,0,501.7-1357.232Zm20.156,0a1.862,1.862,0,0,0-1.795,1.962,1.861,1.861,0,0,0,1.77,1.982,1.89,1.89,0,0,0,1.835-1.982A1.9,1.9,0,0,0,521.859-1357.231Zm17.658,15.923a1.2,1.2,0,0,0-1.251,1.206,1.216,1.216,0,0,0,1.22,1.292,1.228,1.228,0,0,0,1.257-1.213A1.218,1.218,0,0,0,539.517-1341.309Zm4.094-13.022c-.23-.583-.459-1.167-.735-1.869-.278.691-.509,1.256-.733,1.823-.075.189.011.271.2.271.357,0,.715,0,1.072,0C543.564-1354.108,543.69-1354.131,543.612-1354.33Zm.58,13.138a1.191,1.191,0,0,0-1.162-.051c-.258.159-.13.64-.07.962.053.291.357.094.507.155.065,0,.1,0,.13,0,.36.017.7-.029.826-.433A.506.506,0,0,0,544.192-1341.192Zm11.789.961c-.071-.226-.168-.443-.253-.665l-.118-.006c-.133.339-.268.676-.4,1.016-.04.106-.075.245.089.265.268.032.587.122.793-.046C556.269-1339.812,556.041-1340.043,555.981-1340.231Zm0,0c-.071-.226-.168-.443-.253-.665l-.118-.006c-.133.339-.268.676-.4,1.016-.04.106-.075.245.089.265.268.032.587.122.793-.046C556.269-1339.812,556.041-1340.043,555.981-1340.231Zm-11.789-.961a1.191,1.191,0,0,0-1.162-.051c-.258.159-.13.64-.07.962.053.291.357.094.507.155.065,0,.1,0,.13,0,.36.017.7-.029.826-.433A.506.506,0,0,0,544.192-1341.192Zm-4.674-.116a1.2,1.2,0,0,0-1.251,1.206,1.216,1.216,0,0,0,1.22,1.292,1.228,1.228,0,0,0,1.257-1.213A1.218,1.218,0,0,0,539.517-1341.309ZM501.7-1357.232a1.9,1.9,0,0,0-1.813,2,1.884,1.884,0,0,0,1.825,1.939,1.878,1.878,0,0,0,1.785-1.975A1.883,1.883,0,0,0,501.7-1357.232Zm20.156,0a1.862,1.862,0,0,0-1.795,1.962,1.861,1.861,0,0,0,1.77,1.982,1.89,1.89,0,0,0,1.835-1.982A1.9,1.9,0,0,0,521.859-1357.231Zm21.753,2.9c-.23-.583-.459-1.167-.735-1.869-.278.691-.509,1.256-.733,1.823-.075.189.011.271.2.271.357,0,.715,0,1.072,0C543.564-1354.108,543.69-1354.131,543.612-1354.33Zm-41.909-2.9a1.9,1.9,0,0,0-1.813,2,1.884,1.884,0,0,0,1.825,1.939,1.878,1.878,0,0,0,1.785-1.975A1.883,1.883,0,0,0,501.7-1357.232Zm20.156,0a1.862,1.862,0,0,0-1.795,1.962,1.861,1.861,0,0,0,1.77,1.982,1.89,1.89,0,0,0,1.835-1.982A1.9,1.9,0,0,0,521.859-1357.231Zm10.956,17.286c-.136-.325-.259-.655-.435-1.1-.142.355-.232.575-.318.8-.263.674-.235.7.514.659C532.851-1339.607,532.921-1339.692,532.816-1339.945Zm6.7-1.363a1.2,1.2,0,0,0-1.251,1.206,1.216,1.216,0,0,0,1.22,1.292,1.228,1.228,0,0,0,1.257-1.213A1.218,1.218,0,0,0,539.517-1341.309Zm4.094-13.022c-.23-.583-.459-1.167-.735-1.869-.278.691-.509,1.256-.733,1.823-.075.189.011.271.2.271.357,0,.715,0,1.072,0C543.564-1354.108,543.69-1354.131,543.612-1354.33Zm.58,13.138a1.191,1.191,0,0,0-1.162-.051c-.258.159-.13.64-.07.962.053.291.357.094.507.155.065,0,.1,0,.13,0,.36.017.7-.029.826-.433A.506.506,0,0,0,544.192-1341.192Zm11.789.961c-.071-.226-.168-.443-.253-.665l-.118-.006c-.133.339-.268.676-.4,1.016-.04.106-.075.245.089.265.268.032.587.122.793-.046C556.269-1339.812,556.041-1340.043,555.981-1340.231Zm0,0c-.071-.226-.168-.443-.253-.665l-.118-.006c-.133.339-.268.676-.4,1.016-.04.106-.075.245.089.265.268.032.587.122.793-.046C556.269-1339.812,556.041-1340.043,555.981-1340.231Zm-11.789-.961a1.191,1.191,0,0,0-1.162-.051c-.258.159-.13.64-.07.962.053.291.357.094.507.155.065,0,.1,0,.13,0,.36.017.7-.029.826-.433A.506.506,0,0,0,544.192-1341.192Zm-4.674-.116a1.2,1.2,0,0,0-1.251,1.206,1.216,1.216,0,0,0,1.22,1.292,1.228,1.228,0,0,0,1.257-1.213A1.218,1.218,0,0,0,539.517-1341.309Zm-6.7,1.363c-.136-.325-.259-.655-.435-1.1-.142.355-.232.575-.318.8-.263.674-.235.7.514.659C532.851-1339.607,532.921-1339.692,532.816-1339.945ZM501.7-1357.232a1.9,1.9,0,0,0-1.813,2,1.884,1.884,0,0,0,1.825,1.939,1.878,1.878,0,0,0,1.785-1.975A1.883,1.883,0,0,0,501.7-1357.232Zm20.156,0a1.862,1.862,0,0,0-1.795,1.962,1.861,1.861,0,0,0,1.77,1.982,1.89,1.89,0,0,0,1.835-1.982A1.9,1.9,0,0,0,521.859-1357.231Zm21.753,2.9c-.23-.583-.459-1.167-.735-1.869-.278.691-.509,1.256-.733,1.823-.075.189.011.271.2.271.357,0,.715,0,1.072,0C543.564-1354.108,543.69-1354.131,543.612-1354.33Zm-41.909-2.9a1.9,1.9,0,0,0-1.813,2,1.884,1.884,0,0,0,1.825,1.939,1.878,1.878,0,0,0,1.785-1.975A1.883,1.883,0,0,0,501.7-1357.232Zm20.156,0a1.862,1.862,0,0,0-1.795,1.962,1.861,1.861,0,0,0,1.77,1.982,1.89,1.89,0,0,0,1.835-1.982A1.9,1.9,0,0,0,521.859-1357.231Zm2.606,16.03a1.159,1.159,0,0,0-1.118-.047c-.267.169-.131.638-.079.961.049.3.355.1.5.161.064,0,.1,0,.13,0,.364.019.693-.04.814-.449A.506.506,0,0,0,524.466-1341.2Zm8.35,1.256c-.136-.325-.259-.655-.435-1.1-.142.355-.232.575-.318.8-.263.674-.235.7.514.659C532.851-1339.607,532.921-1339.692,532.816-1339.945Zm6.7-1.363a1.2,1.2,0,0,0-1.251,1.206,1.216,1.216,0,0,0,1.22,1.292,1.228,1.228,0,0,0,1.257-1.213A1.218,1.218,0,0,0,539.517-1341.309Zm4.094-13.022c-.23-.583-.459-1.167-.735-1.869-.278.691-.509,1.256-.733,1.823-.075.189.011.271.2.271.357,0,.715,0,1.072,0C543.564-1354.108,543.69-1354.131,543.612-1354.33Zm.58,13.138a1.191,1.191,0,0,0-1.162-.051c-.258.159-.13.64-.07.962.053.291.357.094.507.155.065,0,.1,0,.13,0,.36.017.7-.029.826-.433A.506.506,0,0,0,544.192-1341.192Zm11.789.961c-.071-.226-.168-.443-.253-.665l-.118-.006c-.133.339-.268.676-.4,1.016-.04.106-.075.245.089.265.268.032.587.122.793-.046C556.269-1339.812,556.041-1340.043,555.981-1340.231Zm0,0c-.071-.226-.168-.443-.253-.665l-.118-.006c-.133.339-.268.676-.4,1.016-.04.106-.075.245.089.265.268.032.587.122.793-.046C556.269-1339.812,556.041-1340.043,555.981-1340.231Zm-11.789-.961a1.191,1.191,0,0,0-1.162-.051c-.258.159-.13.64-.07.962.053.291.357.094.507.155.065,0,.1,0,.13,0,.36.017.7-.029.826-.433A.506.506,0,0,0,544.192-1341.192Zm-4.674-.116a1.2,1.2,0,0,0-1.251,1.206,1.216,1.216,0,0,0,1.22,1.292,1.228,1.228,0,0,0,1.257-1.213A1.218,1.218,0,0,0,539.517-1341.309Zm-6.7,1.363c-.136-.325-.259-.655-.435-1.1-.142.355-.232.575-.318.8-.263.674-.235.7.514.659C532.851-1339.607,532.921-1339.692,532.816-1339.945Zm-8.35-1.256a1.159,1.159,0,0,0-1.118-.047c-.267.169-.131.638-.079.961.049.3.355.1.5.161.064,0,.1,0,.13,0,.364.019.693-.04.814-.449A.506.506,0,0,0,524.466-1341.2ZM501.7-1357.232a1.9,1.9,0,0,0-1.813,2,1.884,1.884,0,0,0,1.825,1.939,1.878,1.878,0,0,0,1.785-1.975A1.883,1.883,0,0,0,501.7-1357.232Zm20.156,0a1.862,1.862,0,0,0-1.795,1.962,1.861,1.861,0,0,0,1.77,1.982,1.89,1.89,0,0,0,1.835-1.982A1.9,1.9,0,0,0,521.859-1357.231Zm21.753,2.9c-.23-.583-.459-1.167-.735-1.869-.278.691-.509,1.256-.733,1.823-.075.189.011.271.2.271.357,0,.715,0,1.072,0C543.564-1354.108,543.69-1354.131,543.612-1354.33Zm-41.909-2.9a1.9,1.9,0,0,0-1.813,2,1.884,1.884,0,0,0,1.825,1.939,1.878,1.878,0,0,0,1.785-1.975A1.883,1.883,0,0,0,501.7-1357.232Zm14.722,15.9c-.5-.031-.643.159-.551.537,0,.751,0,.751.525.751.662,0,.947-.188.956-.632S517.09-1341.286,516.425-1341.328Zm5.434-15.9a1.862,1.862,0,0,0-1.795,1.962,1.861,1.861,0,0,0,1.77,1.982,1.89,1.89,0,0,0,1.835-1.982A1.9,1.9,0,0,0,521.859-1357.231Zm2.606,16.03a1.159,1.159,0,0,0-1.118-.047c-.267.169-.131.638-.079.961.049.3.355.1.5.161.064,0,.1,0,.13,0,.364.019.693-.04.814-.449A.506.506,0,0,0,524.466-1341.2Zm8.35,1.256c-.136-.325-.259-.655-.435-1.1-.142.355-.232.575-.318.8-.263.674-.235.7.514.659C532.851-1339.607,532.921-1339.692,532.816-1339.945Zm6.7-1.363a1.2,1.2,0,0,0-1.251,1.206,1.216,1.216,0,0,0,1.22,1.292,1.228,1.228,0,0,0,1.257-1.213A1.218,1.218,0,0,0,539.517-1341.309Zm4.094-13.022c-.23-.583-.459-1.167-.735-1.869-.278.691-.509,1.256-.733,1.823-.075.189.011.271.2.271.357,0,.715,0,1.072,0C543.564-1354.108,543.69-1354.131,543.612-1354.33Zm.58,13.138a1.191,1.191,0,0,0-1.162-.051c-.258.159-.13.64-.07.962.053.291.357.094.507.155.065,0,.1,0,.13,0,.36.017.7-.029.826-.433A.506.506,0,0,0,544.192-1341.192Zm11.789.961c-.071-.226-.168-.443-.253-.665l-.118-.006c-.133.339-.268.676-.4,1.016-.04.106-.075.245.089.265.268.032.587.122.793-.046C556.269-1339.812,556.041-1340.043,555.981-1340.231Zm0,0c-.071-.226-.168-.443-.253-.665l-.118-.006c-.133.339-.268.676-.4,1.016-.04.106-.075.245.089.265.268.032.587.122.793-.046C556.269-1339.812,556.041-1340.043,555.981-1340.231Zm-11.789-.961a1.191,1.191,0,0,0-1.162-.051c-.258.159-.13.64-.07.962.053.291.357.094.507.155.065,0,.1,0,.13,0,.36.017.7-.029.826-.433A.506.506,0,0,0,544.192-1341.192Zm-4.674-.116a1.2,1.2,0,0,0-1.251,1.206,1.216,1.216,0,0,0,1.22,1.292,1.228,1.228,0,0,0,1.257-1.213A1.218,1.218,0,0,0,539.517-1341.309Zm-6.7,1.363c-.136-.325-.259-.655-.435-1.1-.142.355-.232.575-.318.8-.263.674-.235.7.514.659C532.851-1339.607,532.921-1339.692,532.816-1339.945Zm-8.35-1.256a1.159,1.159,0,0,0-1.118-.047c-.267.169-.131.638-.079.961.049.3.355.1.5.161.064,0,.1,0,.13,0,.364.019.693-.04.814-.449A.506.506,0,0,0,524.466-1341.2Zm-8.041-.127c-.5-.031-.643.159-.551.537,0,.751,0,.751.525.751.662,0,.947-.188.956-.632S517.09-1341.286,516.425-1341.328Zm-14.722-15.9a1.9,1.9,0,0,0-1.813,2,1.884,1.884,0,0,0,1.825,1.939,1.878,1.878,0,0,0,1.785-1.975A1.883,1.883,0,0,0,501.7-1357.232Zm20.156,0a1.862,1.862,0,0,0-1.795,1.962,1.861,1.861,0,0,0,1.77,1.982,1.89,1.89,0,0,0,1.835-1.982A1.9,1.9,0,0,0,521.859-1357.231Zm21.753,2.9c-.23-.583-.459-1.167-.735-1.869-.278.691-.509,1.256-.733,1.823-.075.189.011.271.2.271.357,0,.715,0,1.072,0C543.564-1354.108,543.69-1354.131,543.612-1354.33Zm23.76-13.314a1,1,0,0,0-.525-.046q-48.242,0-96.483,0a1.168,1.168,0,0,0-.528.041,1.366,1.366,0,0,0-.03.483q0,18.255,0,36.51a.858.858,0,0,0,.047.477q48.54,0,97.081.009c.365,0,.448-.082.448-.448Q567.364-1349.132,567.372-1367.644Zm-18.81,16.466c.834-1.26,1.649-2.532,2.491-3.788a.557.557,0,0,0,.01-.73c-.787-1.174-1.548-2.366-2.314-3.554-.067-.1-.21-.21-.155-.337.07-.164.256-.091.39-.092.78-.007,1.56.008,2.341-.009a.61.61,0,0,1,.625.346c.284.51.61,1,.905,1.5.142.243.236.261.388,0,.3-.518.628-1.024.947-1.534.084-.134.142-.3.344-.3h3.225c-.952,1.411-1.81,2.711-2.7,3.987a.652.652,0,0,0,0,.888c.812,1.156,1.591,2.337,2.379,3.511a.778.778,0,0,1,.22.48c-1.038,0-2.072,0-3.106,0-.2,0-.256-.178-.337-.313-.367-.611-.729-1.227-1.128-1.9-.456.658-.89,1.263-1.3,1.884a.665.665,0,0,1-.638.341c-.8-.019-1.592-.016-2.389,0C548.411-1350.794,548.37-1350.89,548.562-1351.178Zm-10.673,0q1.718-4.11,3.415-8.23a.408.408,0,0,1,.45-.274c.764.006,1.527.007,2.291,0a.413.413,0,0,1,.44.291q1.737,4.129,3.495,8.249c.117.275.038.347-.229.342-.439-.007-.877,0-1.315,0a3.281,3.281,0,0,0-.438,0c-.741.1-1.353.006-1.475-.907-.026-.2-.189-.227-.37-.225-.845.009-1.689.021-2.534,0-.318-.007-.4.2-.445.415-.136.6-.488.779-1.087.725a18.815,18.815,0,0,0-1.948-.012C537.836-1350.8,537.769-1350.892,537.888-1351.179Zm-10.42-8.1c0-.287.076-.408.382-.4q1.219.022,2.437,0a.51.51,0,0,1,.494.313c.449.792.906,1.578,1.364,2.364.079.135.122.3.321.4.527-.875,1.07-1.739,1.572-2.627a.782.782,0,0,1,.811-.456c.7.031,1.4.018,2.1,0,.3-.006.441.067.44.4q-.015,4.047,0,8.1c0,.308-.13.39-.41.385-.683-.011-1.365-.018-2.048,0-.342.011-.445-.108-.44-.446.019-1.105.007-2.211.007-3.316v-.469l-.108-.035-1.966,3.072-1.952-3.022c-.165.2-.1.383-.1.553-.007,1.073-.015,2.146,0,3.219,0,.344-.119.454-.453.444-.682-.019-1.365-.015-2.047,0-.287.006-.4-.082-.4-.388Q527.482-1355.235,527.468-1359.284Zm-5.62-.567a4.739,4.739,0,0,1,4.84,4.643,4.761,4.761,0,0,1-4.858,4.634,4.741,4.741,0,0,1-4.829-4.653A4.721,4.721,0,0,1,521.848-1359.851Zm-14.552.6c0-.327.116-.42.421-.416q1.022.012,2.046-.018a.679.679,0,0,1,.61.307c.787,1.015,1.591,2.016,2.39,3.021.1.124.2.243.311.372.172-.148.1-.322.105-.471.007-.943.012-1.886,0-2.828,0-.291.094-.406.393-.4.747.015,1.495.013,2.242,0,.279,0,.358.111.358.378q-.01,4.047,0,8.094c0,.3-.1.419-.395.386-.017,0-.032,0-.049,0a5.3,5.3,0,0,1-2.07-.058c-.589-.269-.907-.989-1.347-1.509-.639-.757-1.263-1.526-1.892-2.29l-.129.028v2.855c0,1,0,1-1.008,1-.52,0-1.04-.01-1.559,0-.3.008-.43-.065-.428-.406Q507.317-1355.23,507.3-1359.253Zm-5.592-.6a4.72,4.72,0,0,1,4.813,4.66,4.744,4.744,0,0,1-4.863,4.618,4.724,4.724,0,0,1-4.8-4.669A4.7,4.7,0,0,1,501.7-1359.851Zm-8.823,0a4.526,4.526,0,0,1,3.4,2.008c.173.234.177.363-.108.51-.647.336-1.28.7-1.916,1.06-.153.087-.252.126-.4-.059-.673-.869-1.365-1.083-2.127-.693a2.039,2.039,0,0,0-.957,2.3,1.736,1.736,0,0,0,1.327,1.409,1.547,1.547,0,0,0,1.762-.831c.143-.247.268-.205.462-.1.625.344,1.248.694,1.888,1.008.308.151.3.288.137.549a4.743,4.743,0,0,1-4.872,2.026,4.677,4.677,0,0,1-3.684-3.594C487.212-1357.2,489.414-1359.858,492.882-1359.85Zm-12.961.187q3.363.025,6.726,0c.367,0,.483.105.463.469a15.382,15.382,0,0,0,0,1.559c.017.34-.093.448-.437.443-1.251-.019-2.5,0-3.753-.013-.327,0-.5.032-.5.436s.2.4.485.4c1.1-.008,2.21.008,3.314-.009.362-.006.536.077.5.483a9.526,9.526,0,0,0,0,1.315c.018.332-.114.408-.422.4-1.137-.016-2.274.009-3.412-.015-.368-.007-.466.1-.466.467s.152.42.465.416c1.268-.013,2.535,0,3.8-.012.318,0,.428.093.416.413-.021.585-.016,1.171,0,1.756.006.261-.064.378-.353.377q-3.46-.013-6.92,0c-.331,0-.367-.158-.366-.42.006-1.35,0-2.7,0-4.048,0-1.316.01-2.633-.007-3.95C479.458-1359.534,479.541-1359.666,479.92-1359.663Zm30.1,21.351a2.389,2.389,0,0,1-2.486-.145c-.126-.11-.17-.211-.026-.307.175-.116.24-.489.574-.261a1.583,1.583,0,0,0,.914.291c.234,0,.474-.034.542-.311.062-.248-.1-.4-.3-.5s-.407-.2-.617-.287c-.825-.339-1.153-.781-1.018-1.385.121-.538.7-.888,1.563-.884a1.784,1.784,0,0,1,.889.223c.143.082.468.114.317.366-.125.208-.294.557-.683.283a1.018,1.018,0,0,0-.7-.173c-.2.02-.392.076-.437.309a.38.38,0,0,0,.257.424c.174.087.354.161.535.233a2.559,2.559,0,0,1,.762.424A1.03,1.03,0,0,1,510.021-1338.312Zm4.251-1.251a1.621,1.621,0,0,1-1.728,1.551,1.576,1.576,0,0,1-1.687-1.526c-.059-.741-.02-1.491-.027-2.237,0-.384.282-.267.486-.285.231-.022.417.006.41.319-.012.568,0,1.136,0,1.7a3.08,3.08,0,0,0,.026.484.809.809,0,0,0,.823.739.835.835,0,0,0,.85-.776.632.632,0,0,0,.007-.1v-1.022h0c0-.341.015-.682,0-1.021-.017-.307.147-.349.392-.334.22.014.476-.057.471.312C514.281-1341.022,514.323-1340.289,514.272-1339.563Zm3.96-1.061a1.361,1.361,0,0,1-1.252,1.266c-.032,0-.065,0-.1.007-.317.038-.713-.136-.935.084-.2.2-.07.588-.067.89,0,.391-.266.282-.471.295s-.423.039-.411-.3c.02-.566,0-1.134,0-1.7,0-.552,0-1.1,0-1.653,0-.174.007-.331.246-.323a12.212,12.212,0,0,1,1.843.047A1.261,1.261,0,0,1,518.232-1340.624Zm3.221,2.549c-.779-.016-1.56-.014-2.339,0-.265,0-.332-.106-.328-.347.011-.569,0-1.138,0-1.707,0-.519.009-1.04,0-1.559-.006-.263.07-.383.357-.377.746.015,1.494.019,2.241,0,.338-.009.348.167.357.423.012.295-.118.354-.376.347-.454-.015-.91.013-1.364-.01-.31-.015-.342.148-.332.39s-.038.47.325.452c.341-.017.683,0,1.023,0,.244,0,.438,0,.437.348,0,.33-.154.375-.419.364-.309-.014-.62.022-.926-.009-.395-.041-.441.148-.449.483-.009.368.111.488.473.467.438-.026.877,0,1.315-.009.28-.008.361.113.363.379S521.737-1338.07,521.453-1338.075Zm2.92-.591a5.829,5.829,0,0,0-.394-.614c-.143-.237-.367-.178-.567-.157-.246.026-.155.243-.169.388a2.088,2.088,0,0,0,0,.487c.062.439-.163.511-.538.49-.26-.014-.333-.112-.332-.351.007-1.089.01-2.178,0-3.266,0-.314.141-.385.417-.376.438.015.878,0,1.316.007a1.394,1.394,0,0,1,1.421.826c.231.567.071,1.045-.546,1.558-.2.166-.106.264-.016.4.251.372.5.743.768,1.136C525.1-1337.982,524.639-1338.054,524.373-1338.666Zm5.67.206c0,.3-.088.39-.387.389s-.393-.107-.385-.4a10.024,10.024,0,0,0-.107-1.922l-1.023,1.428-1.028-1.456-.111.009c0,.646-.011,1.292,0,1.938.007.279-.053.4-.371.4s-.412-.113-.407-.422c.015-1.023,0-2.045.011-3.067,0-.172-.115-.447.168-.482.268-.033.583-.14.785.2.291.485.6.958.952,1.512.352-.536.676-.981.947-1.457.193-.337.48-.3.759-.26.321.051.179.34.181.521C530.043-1340.5,530.027-1339.483,530.042-1338.46Zm4.281.357a1,1,0,0,1-.883-.161c-.132-.211-.08-.59-.378-.63a9.155,9.155,0,0,0-1.36-.016c-.132,0-.2.112-.22.227-.121.65-.546.7-1.128.542l1.017-2.472c.13-.314.269-.626.389-.944.111-.3.208-.525.628-.527s.54.228.666.543c.4.994.817,1.979,1.215,2.973C534.325-1338.426,534.511-1338.26,534.323-1338.1Zm1.735-.425c.046.319-.052.457-.414.461s-.507-.115-.45-.473a2.545,2.545,0,0,0-.56-1.945c-.294-.407-.533-.854-.789-1.287-.047-.08-.172-.184,0-.276a.975.975,0,0,1,.982.273c.264.44.521.884.817,1.386a9.429,9.429,0,0,0,.617-1.064c.237-.572.634-.722,1.277-.552-.317.524-.58,1.027-.908,1.484A2.655,2.655,0,0,0,536.059-1338.527Zm3.41.516a2.028,2.028,0,0,1-2.079-2.048,2.045,2.045,0,0,1,2.14-2.042,2.029,2.029,0,0,1,2.091,2.034A2.1,2.1,0,0,1,539.468-1338.012Zm4.569-.7c-.185-.351-.355-.934-.927-.706-.394.157-.168.632-.17.955,0,.4-.215.379-.494.392-.312.014-.427-.081-.422-.407.019-1.057.017-2.113,0-3.169,0-.319.1-.432.418-.418.5.021,1.008-.015,1.51.016a1.3,1.3,0,0,1,1.315.9,1.2,1.2,0,0,1-.558,1.47c-.209.131-.153.239-.049.389.259.369.512.743.79,1.147A1.049,1.049,0,0,1,544.037-1338.714Zm2.476.635c-.245-.013-.52.086-.51-.356q.038-1.63,0-3.262c-.009-.428.252-.357.507-.367.28-.011.51-.016.485.39-.031.534-.008,1.071-.008,1.606s-.025,1.073.009,1.606C547.024-1338.05,546.788-1338.066,546.514-1338.079Zm3.675-.191a2.755,2.755,0,0,1-2.6-.184c-.089-.07-.23-.152-.091-.255.194-.143.287-.538.649-.324a1.936,1.936,0,0,0,1.061.3c.232-.008.474-.045.534-.323.055-.253-.125-.392-.321-.485-.277-.131-.564-.241-.85-.357-.713-.292-1-.687-.914-1.257a1.283,1.283,0,0,1,1.274-.931c.1-.009.194-.012.291-.017a2.31,2.31,0,0,1,1.129.25c.132.069.436.109.292.327-.122.186-.261.539-.634.343a1.482,1.482,0,0,0-.932-.211c-.185.027-.359.095-.408.293s.1.338.262.416c.248.117.509.209.765.31a2.008,2.008,0,0,1,.881.585A1,1,0,0,1,550.188-1338.271Zm2.853-.131c.012.372-.22.32-.444.321s-.452.043-.443-.325c.02-.812-.011-1.625.013-2.436.011-.355-.08-.521-.456-.464-.127.019-.261-.011-.389.005-.3.037-.342-.129-.341-.378s.039-.4.342-.388c.421.019.844,0,1.267,0s.845.013,1.267,0c.294-.013.352.126.35.383s-.033.38-.338.389c-.833.024-.832.039-.832.9C553.036-1339.733,553.019-1339.067,553.042-1338.4Zm3.507-.3c-.028-.174-.171-.218-.333-.216a4.545,4.545,0,0,1-.632-.005.749.749,0,0,0-.967.6c-.144.513-.6.117-1.017.328.329-.8.6-1.461.865-2.118.2-.494.416-.985.6-1.485.111-.3.232-.482.614-.476a.591.591,0,0,1,.626.456c.457,1.157.937,2.306,1.425,3.495C557.131-1338.005,556.661-1338.01,556.548-1338.706Zm1.244-6.169c0,.638-.018.653-.659.653H480.4c-.2,0-.39-.008-.585,0a.316.316,0,0,1-.365-.353q0-1.878,0-3.756a.321.321,0,0,1,.358-.363c.179,0,.357-.006.536-.006h76.683c.762,0,.764,0,.765.754Q557.8-1346.413,557.793-1344.876Zm-2.064,3.979-.118-.006c-.133.339-.268.676-.4,1.016-.04.106-.075.245.089.265.268.032.587.122.793-.046.176-.144-.053-.375-.112-.563C555.91-1340.457,555.813-1340.675,555.728-1340.9Zm-11.536-.3a1.191,1.191,0,0,0-1.162-.051c-.258.159-.13.64-.07.962.053.291.357.094.507.155.065,0,.1,0,.13,0,.36.017.7-.029.826-.433A.506.506,0,0,0,544.192-1341.192Zm-1.845-12.913c.357,0,.715,0,1.072,0,.145,0,.271-.024.192-.224-.23-.583-.459-1.167-.735-1.869-.278.691-.509,1.256-.733,1.823C542.068-1354.187,542.154-1354.1,542.347-1354.106Zm-2.83,12.8a1.2,1.2,0,0,0-1.251,1.206,1.216,1.216,0,0,0,1.22,1.292,1.228,1.228,0,0,0,1.257-1.213A1.218,1.218,0,0,0,539.517-1341.309Zm-7.137.259c-.142.355-.232.575-.318.8-.263.674-.235.7.514.659.275-.015.346-.1.24-.352C532.68-1340.271,532.557-1340.6,532.38-1341.05Zm-7.915-.151a1.159,1.159,0,0,0-1.118-.047c-.267.169-.131.638-.079.961.049.3.355.1.5.161.064,0,.1,0,.13,0,.364.019.693-.04.814-.449A.506.506,0,0,0,524.466-1341.2Zm-2.631-12.086a1.89,1.89,0,0,0,1.835-1.982,1.9,1.9,0,0,0-1.81-1.962,1.862,1.862,0,0,0-1.795,1.962A1.861,1.861,0,0,0,521.835-1353.287Zm-5.41,11.959c-.5-.031-.643.159-.551.537,0,.751,0,.751.525.751.662,0,.947-.188.956-.632S517.09-1341.286,516.425-1341.328Zm-14.71-11.96a1.878,1.878,0,0,0,1.785-1.975,1.883,1.883,0,0,0-1.8-1.969,1.9,1.9,0,0,0-1.813,2A1.884,1.884,0,0,0,501.715-1353.288Zm41.9-1.042c-.23-.583-.459-1.167-.735-1.869-.278.691-.509,1.256-.733,1.823-.075.189.011.271.2.271.357,0,.715,0,1.072,0C543.564-1354.108,543.69-1354.131,543.612-1354.33Zm-21.753-2.9a1.862,1.862,0,0,0-1.795,1.962,1.861,1.861,0,0,0,1.77,1.982,1.89,1.89,0,0,0,1.835-1.982A1.9,1.9,0,0,0,521.859-1357.231Zm-20.156,0a1.9,1.9,0,0,0-1.813,2,1.884,1.884,0,0,0,1.825,1.939,1.878,1.878,0,0,0,1.785-1.975A1.883,1.883,0,0,0,501.7-1357.232Zm14.722,15.9c-.5-.031-.643.159-.551.537,0,.751,0,.751.525.751.662,0,.947-.188.956-.632S517.09-1341.286,516.425-1341.328Zm8.041.127a1.159,1.159,0,0,0-1.118-.047c-.267.169-.131.638-.079.961.049.3.355.1.5.161.064,0,.1,0,.13,0,.364.019.693-.04.814-.449A.506.506,0,0,0,524.466-1341.2Zm8.35,1.256c-.136-.325-.259-.655-.435-1.1-.142.355-.232.575-.318.8-.263.674-.235.7.514.659C532.851-1339.607,532.921-1339.692,532.816-1339.945Zm6.7-1.363a1.2,1.2,0,0,0-1.251,1.206,1.216,1.216,0,0,0,1.22,1.292,1.228,1.228,0,0,0,1.257-1.213A1.218,1.218,0,0,0,539.517-1341.309Zm4.674.116a1.191,1.191,0,0,0-1.162-.051c-.258.159-.13.64-.07.962.053.291.357.094.507.155.065,0,.1,0,.13,0,.36.017.7-.029.826-.433A.506.506,0,0,0,544.192-1341.192Zm11.789.961c-.071-.226-.168-.443-.253-.665l-.118-.006c-.133.339-.268.676-.4,1.016-.04.106-.075.245.089.265.268.032.587.122.793-.046C556.269-1339.812,556.041-1340.043,555.981-1340.231Zm0,0c-.071-.226-.168-.443-.253-.665l-.118-.006c-.133.339-.268.676-.4,1.016-.04.106-.075.245.089.265.268.032.587.122.793-.046C556.269-1339.812,556.041-1340.043,555.981-1340.231Zm-11.789-.961a1.191,1.191,0,0,0-1.162-.051c-.258.159-.13.64-.07.962.053.291.357.094.507.155.065,0,.1,0,.13,0,.36.017.7-.029.826-.433A.506.506,0,0,0,544.192-1341.192Zm-.58-13.138c-.23-.583-.459-1.167-.735-1.869-.278.691-.509,1.256-.733,1.823-.075.189.011.271.2.271.357,0,.715,0,1.072,0C543.564-1354.108,543.69-1354.131,543.612-1354.33Zm-4.094,13.022a1.2,1.2,0,0,0-1.251,1.206,1.216,1.216,0,0,0,1.22,1.292,1.228,1.228,0,0,0,1.257-1.213A1.218,1.218,0,0,0,539.517-1341.309Zm-6.7,1.363c-.136-.325-.259-.655-.435-1.1-.142.355-.232.575-.318.8-.263.674-.235.7.514.659C532.851-1339.607,532.921-1339.692,532.816-1339.945Zm-8.35-1.256a1.159,1.159,0,0,0-1.118-.047c-.267.169-.131.638-.079.961.049.3.355.1.5.161.064,0,.1,0,.13,0,.364.019.693-.04.814-.449A.506.506,0,0,0,524.466-1341.2Zm-2.606-16.03a1.862,1.862,0,0,0-1.795,1.962,1.861,1.861,0,0,0,1.77,1.982,1.89,1.89,0,0,0,1.835-1.982A1.9,1.9,0,0,0,521.859-1357.231Zm-5.434,15.9c-.5-.031-.643.159-.551.537,0,.751,0,.751.525.751.662,0,.947-.188.956-.632S517.09-1341.286,516.425-1341.328Zm-14.722-15.9a1.9,1.9,0,0,0-1.813,2,1.884,1.884,0,0,0,1.825,1.939,1.878,1.878,0,0,0,1.785-1.975A1.883,1.883,0,0,0,501.7-1357.232Zm41.909,2.9c-.23-.583-.459-1.167-.735-1.869-.278.691-.509,1.256-.733,1.823-.075.189.011.271.2.271.357,0,.715,0,1.072,0C543.564-1354.108,543.69-1354.131,543.612-1354.33Zm-21.753-2.9a1.862,1.862,0,0,0-1.795,1.962,1.861,1.861,0,0,0,1.77,1.982,1.89,1.89,0,0,0,1.835-1.982A1.9,1.9,0,0,0,521.859-1357.231Zm-20.156,0a1.9,1.9,0,0,0-1.813,2,1.884,1.884,0,0,0,1.825,1.939,1.878,1.878,0,0,0,1.785-1.975A1.883,1.883,0,0,0,501.7-1357.232Zm22.762,16.031a1.159,1.159,0,0,0-1.118-.047c-.267.169-.131.638-.079.961.049.3.355.1.5.161.064,0,.1,0,.13,0,.364.019.693-.04.814-.449A.506.506,0,0,0,524.466-1341.2Zm8.35,1.256c-.136-.325-.259-.655-.435-1.1-.142.355-.232.575-.318.8-.263.674-.235.7.514.659C532.851-1339.607,532.921-1339.692,532.816-1339.945Zm6.7-1.363a1.2,1.2,0,0,0-1.251,1.206,1.216,1.216,0,0,0,1.22,1.292,1.228,1.228,0,0,0,1.257-1.213A1.218,1.218,0,0,0,539.517-1341.309Zm4.674.116a1.191,1.191,0,0,0-1.162-.051c-.258.159-.13.64-.07.962.053.291.357.094.507.155.065,0,.1,0,.13,0,.36.017.7-.029.826-.433A.506.506,0,0,0,544.192-1341.192Zm11.789.961c-.071-.226-.168-.443-.253-.665l-.118-.006c-.133.339-.268.676-.4,1.016-.04.106-.075.245.089.265.268.032.587.122.793-.046C556.269-1339.812,556.041-1340.043,555.981-1340.231Zm0,0c-.071-.226-.168-.443-.253-.665l-.118-.006c-.133.339-.268.676-.4,1.016-.04.106-.075.245.089.265.268.032.587.122.793-.046C556.269-1339.812,556.041-1340.043,555.981-1340.231Zm-11.789-.961a1.191,1.191,0,0,0-1.162-.051c-.258.159-.13.64-.07.962.053.291.357.094.507.155.065,0,.1,0,.13,0,.36.017.7-.029.826-.433A.506.506,0,0,0,544.192-1341.192Zm-.58-13.138c-.23-.583-.459-1.167-.735-1.869-.278.691-.509,1.256-.733,1.823-.075.189.011.271.2.271.357,0,.715,0,1.072,0C543.564-1354.108,543.69-1354.131,543.612-1354.33Zm-4.094,13.022a1.2,1.2,0,0,0-1.251,1.206,1.216,1.216,0,0,0,1.22,1.292,1.228,1.228,0,0,0,1.257-1.213A1.218,1.218,0,0,0,539.517-1341.309Zm-6.7,1.363c-.136-.325-.259-.655-.435-1.1-.142.355-.232.575-.318.8-.263.674-.235.7.514.659C532.851-1339.607,532.921-1339.692,532.816-1339.945Zm-8.35-1.256a1.159,1.159,0,0,0-1.118-.047c-.267.169-.131.638-.079.961.049.3.355.1.5.161.064,0,.1,0,.13,0,.364.019.693-.04.814-.449A.506.506,0,0,0,524.466-1341.2Zm-2.606-16.03a1.862,1.862,0,0,0-1.795,1.962,1.861,1.861,0,0,0,1.77,1.982,1.89,1.89,0,0,0,1.835-1.982A1.9,1.9,0,0,0,521.859-1357.231Zm-20.156,0a1.9,1.9,0,0,0-1.813,2,1.884,1.884,0,0,0,1.825,1.939,1.878,1.878,0,0,0,1.785-1.975A1.883,1.883,0,0,0,501.7-1357.232Zm41.909,2.9c-.23-.583-.459-1.167-.735-1.869-.278.691-.509,1.256-.733,1.823-.075.189.011.271.2.271.357,0,.715,0,1.072,0C543.564-1354.108,543.69-1354.131,543.612-1354.33Zm-21.753-2.9a1.862,1.862,0,0,0-1.795,1.962,1.861,1.861,0,0,0,1.77,1.982,1.89,1.89,0,0,0,1.835-1.982A1.9,1.9,0,0,0,521.859-1357.231Zm-20.156,0a1.9,1.9,0,0,0-1.813,2,1.884,1.884,0,0,0,1.825,1.939,1.878,1.878,0,0,0,1.785-1.975A1.883,1.883,0,0,0,501.7-1357.232Zm31.112,17.287c-.136-.325-.259-.655-.435-1.1-.142.355-.232.575-.318.8-.263.674-.235.7.514.659C532.851-1339.607,532.921-1339.692,532.816-1339.945Zm6.7-1.363a1.2,1.2,0,0,0-1.251,1.206,1.216,1.216,0,0,0,1.22,1.292,1.228,1.228,0,0,0,1.257-1.213A1.218,1.218,0,0,0,539.517-1341.309Zm4.674.116a1.191,1.191,0,0,0-1.162-.051c-.258.159-.13.64-.07.962.053.291.357.094.507.155.065,0,.1,0,.13,0,.36.017.7-.029.826-.433A.506.506,0,0,0,544.192-1341.192Zm11.789.961c-.071-.226-.168-.443-.253-.665l-.118-.006c-.133.339-.268.676-.4,1.016-.04.106-.075.245.089.265.268.032.587.122.793-.046C556.269-1339.812,556.041-1340.043,555.981-1340.231Zm0,0c-.071-.226-.168-.443-.253-.665l-.118-.006c-.133.339-.268.676-.4,1.016-.04.106-.075.245.089.265.268.032.587.122.793-.046C556.269-1339.812,556.041-1340.043,555.981-1340.231Zm-11.789-.961a1.191,1.191,0,0,0-1.162-.051c-.258.159-.13.64-.07.962.053.291.357.094.507.155.065,0,.1,0,.13,0,.36.017.7-.029.826-.433A.506.506,0,0,0,544.192-1341.192Zm-.58-13.138c-.23-.583-.459-1.167-.735-1.869-.278.691-.509,1.256-.733,1.823-.075.189.011.271.2.271.357,0,.715,0,1.072,0C543.564-1354.108,543.69-1354.131,543.612-1354.33Zm-4.094,13.022a1.2,1.2,0,0,0-1.251,1.206,1.216,1.216,0,0,0,1.22,1.292,1.228,1.228,0,0,0,1.257-1.213A1.218,1.218,0,0,0,539.517-1341.309Zm-6.7,1.363c-.136-.325-.259-.655-.435-1.1-.142.355-.232.575-.318.8-.263.674-.235.7.514.659C532.851-1339.607,532.921-1339.692,532.816-1339.945Zm-10.956-17.286a1.862,1.862,0,0,0-1.795,1.962,1.861,1.861,0,0,0,1.77,1.982,1.89,1.89,0,0,0,1.835-1.982A1.9,1.9,0,0,0,521.859-1357.231Zm-20.156,0a1.9,1.9,0,0,0-1.813,2,1.884,1.884,0,0,0,1.825,1.939,1.878,1.878,0,0,0,1.785-1.975A1.883,1.883,0,0,0,501.7-1357.232Zm41.909,2.9c-.23-.583-.459-1.167-.735-1.869-.278.691-.509,1.256-.733,1.823-.075.189.011.271.2.271.357,0,.715,0,1.072,0C543.564-1354.108,543.69-1354.131,543.612-1354.33Zm-21.753-2.9a1.862,1.862,0,0,0-1.795,1.962,1.861,1.861,0,0,0,1.77,1.982,1.89,1.89,0,0,0,1.835-1.982A1.9,1.9,0,0,0,521.859-1357.231Zm-20.156,0a1.9,1.9,0,0,0-1.813,2,1.884,1.884,0,0,0,1.825,1.939,1.878,1.878,0,0,0,1.785-1.975A1.883,1.883,0,0,0,501.7-1357.232Zm37.814,15.924a1.2,1.2,0,0,0-1.251,1.206,1.216,1.216,0,0,0,1.22,1.292,1.228,1.228,0,0,0,1.257-1.213A1.218,1.218,0,0,0,539.517-1341.309Zm4.674.116a1.191,1.191,0,0,0-1.162-.051c-.258.159-.13.64-.07.962.053.291.357.094.507.155.065,0,.1,0,.13,0,.36.017.7-.029.826-.433A.506.506,0,0,0,544.192-1341.192Zm11.789.961c-.071-.226-.168-.443-.253-.665l-.118-.006c-.133.339-.268.676-.4,1.016-.04.106-.075.245.089.265.268.032.587.122.793-.046C556.269-1339.812,556.041-1340.043,555.981-1340.231Zm0,0c-.071-.226-.168-.443-.253-.665l-.118-.006c-.133.339-.268.676-.4,1.016-.04.106-.075.245.089.265.268.032.587.122.793-.046C556.269-1339.812,556.041-1340.043,555.981-1340.231Zm-11.789-.961a1.191,1.191,0,0,0-1.162-.051c-.258.159-.13.64-.07.962.053.291.357.094.507.155.065,0,.1,0,.13,0,.36.017.7-.029.826-.433A.506.506,0,0,0,544.192-1341.192Zm-.58-13.138c-.23-.583-.459-1.167-.735-1.869-.278.691-.509,1.256-.733,1.823-.075.189.011.271.2.271.357,0,.715,0,1.072,0C543.564-1354.108,543.69-1354.131,543.612-1354.33Zm-4.094,13.022a1.2,1.2,0,0,0-1.251,1.206,1.216,1.216,0,0,0,1.22,1.292,1.228,1.228,0,0,0,1.257-1.213A1.218,1.218,0,0,0,539.517-1341.309Zm-17.658-15.923a1.862,1.862,0,0,0-1.795,1.962,1.861,1.861,0,0,0,1.77,1.982,1.89,1.89,0,0,0,1.835-1.982A1.9,1.9,0,0,0,521.859-1357.231Zm-20.156,0a1.9,1.9,0,0,0-1.813,2,1.884,1.884,0,0,0,1.825,1.939,1.878,1.878,0,0,0,1.785-1.975A1.883,1.883,0,0,0,501.7-1357.232Zm41.909,2.9c-.23-.583-.459-1.167-.735-1.869-.278.691-.509,1.256-.733,1.823-.075.189.011.271.2.271.357,0,.715,0,1.072,0C543.564-1354.108,543.69-1354.131,543.612-1354.33Zm-21.753-2.9a1.862,1.862,0,0,0-1.795,1.962,1.861,1.861,0,0,0,1.77,1.982,1.89,1.89,0,0,0,1.835-1.982A1.9,1.9,0,0,0,521.859-1357.231Zm-20.156,0a1.9,1.9,0,0,0-1.813,2,1.884,1.884,0,0,0,1.825,1.939,1.878,1.878,0,0,0,1.785-1.975A1.883,1.883,0,0,0,501.7-1357.232Zm54.278,17c-.071-.226-.168-.443-.253-.665l-.118-.006c-.133.339-.268.676-.4,1.016-.04.106-.075.245.089.265.268.032.587.122.793-.046C556.269-1339.812,556.041-1340.043,555.981-1340.231Zm0,0c-.071-.226-.168-.443-.253-.665l-.118-.006c-.133.339-.268.676-.4,1.016-.04.106-.075.245.089.265.268.032.587.122.793-.046C556.269-1339.812,556.041-1340.043,555.981-1340.231Zm-12.369-14.1c-.23-.583-.459-1.167-.735-1.869-.278.691-.509,1.256-.733,1.823-.075.189.011.271.2.271.357,0,.715,0,1.072,0C543.564-1354.108,543.69-1354.131,543.612-1354.33Zm-21.753-2.9a1.862,1.862,0,0,0-1.795,1.962,1.861,1.861,0,0,0,1.77,1.982,1.89,1.89,0,0,0,1.835-1.982A1.9,1.9,0,0,0,521.859-1357.231Zm-20.156,0a1.9,1.9,0,0,0-1.813,2,1.884,1.884,0,0,0,1.825,1.939,1.878,1.878,0,0,0,1.785-1.975A1.883,1.883,0,0,0,501.7-1357.232Zm41.909,2.9c-.23-.583-.459-1.167-.735-1.869-.278.691-.509,1.256-.733,1.823-.075.189.011.271.2.271.357,0,.715,0,1.072,0C543.564-1354.108,543.69-1354.131,543.612-1354.33Zm-21.753-2.9a1.862,1.862,0,0,0-1.795,1.962,1.861,1.861,0,0,0,1.77,1.982,1.89,1.89,0,0,0,1.835-1.982A1.9,1.9,0,0,0,521.859-1357.231Zm-20.156,0a1.9,1.9,0,0,0-1.813,2,1.884,1.884,0,0,0,1.825,1.939,1.878,1.878,0,0,0,1.785-1.975A1.883,1.883,0,0,0,501.7-1357.232Zm54.278,17c-.071-.226-.168-.443-.253-.665l-.118-.006c-.133.339-.268.676-.4,1.016-.04.106-.075.245.089.265.268.032.587.122.793-.046C556.269-1339.812,556.041-1340.043,555.981-1340.231Zm0,0c-.071-.226-.168-.443-.253-.665l-.118-.006c-.133.339-.268.676-.4,1.016-.04.106-.075.245.089.265.268.032.587.122.793-.046C556.269-1339.812,556.041-1340.043,555.981-1340.231Zm-12.369-14.1c-.23-.583-.459-1.167-.735-1.869-.278.691-.509,1.256-.733,1.823-.075.189.011.271.2.271.357,0,.715,0,1.072,0C543.564-1354.108,543.69-1354.131,543.612-1354.33Zm-21.753-2.9a1.862,1.862,0,0,0-1.795,1.962,1.861,1.861,0,0,0,1.77,1.982,1.89,1.89,0,0,0,1.835-1.982A1.9,1.9,0,0,0,521.859-1357.231Zm-20.156,0a1.9,1.9,0,0,0-1.813,2,1.884,1.884,0,0,0,1.825,1.939,1.878,1.878,0,0,0,1.785-1.975A1.883,1.883,0,0,0,501.7-1357.232Zm41.909,2.9c-.23-.583-.459-1.167-.735-1.869-.278.691-.509,1.256-.733,1.823-.075.189.011.271.2.271.357,0,.715,0,1.072,0C543.564-1354.108,543.69-1354.131,543.612-1354.33Zm-21.753-2.9a1.862,1.862,0,0,0-1.795,1.962,1.861,1.861,0,0,0,1.77,1.982,1.89,1.89,0,0,0,1.835-1.982A1.9,1.9,0,0,0,521.859-1357.231Zm-20.156,0a1.9,1.9,0,0,0-1.813,2,1.884,1.884,0,0,0,1.825,1.939,1.878,1.878,0,0,0,1.785-1.975A1.883,1.883,0,0,0,501.7-1357.232Zm41.909,2.9c-.23-.583-.459-1.167-.735-1.869-.278.691-.509,1.256-.733,1.823-.075.189.011.271.2.271.357,0,.715,0,1.072,0C543.564-1354.108,543.69-1354.131,543.612-1354.33Zm-21.753-2.9a1.862,1.862,0,0,0-1.795,1.962,1.861,1.861,0,0,0,1.77,1.982,1.89,1.89,0,0,0,1.835-1.982A1.9,1.9,0,0,0,521.859-1357.231Zm-20.156,0a1.9,1.9,0,0,0-1.813,2,1.884,1.884,0,0,0,1.825,1.939,1.878,1.878,0,0,0,1.785-1.975A1.883,1.883,0,0,0,501.7-1357.232Zm41.909,2.9c-.23-.583-.459-1.167-.735-1.869-.278.691-.509,1.256-.733,1.823-.075.189.011.271.2.271.357,0,.715,0,1.072,0C543.564-1354.108,543.69-1354.131,543.612-1354.33Zm-21.753-2.9a1.862,1.862,0,0,0-1.795,1.962,1.861,1.861,0,0,0,1.77,1.982,1.89,1.89,0,0,0,1.835-1.982A1.9,1.9,0,0,0,521.859-1357.231Zm-20.156,0a1.9,1.9,0,0,0-1.813,2,1.884,1.884,0,0,0,1.825,1.939,1.878,1.878,0,0,0,1.785-1.975A1.883,1.883,0,0,0,501.7-1357.232Zm41.909,2.9c-.23-.583-.459-1.167-.735-1.869-.278.691-.509,1.256-.733,1.823-.075.189.011.271.2.271.357,0,.715,0,1.072,0C543.564-1354.108,543.69-1354.131,543.612-1354.33Zm-21.753-2.9a1.862,1.862,0,0,0-1.795,1.962,1.861,1.861,0,0,0,1.77,1.982,1.89,1.89,0,0,0,1.835-1.982A1.9,1.9,0,0,0,521.859-1357.231Zm-20.156,0a1.9,1.9,0,0,0-1.813,2,1.884,1.884,0,0,0,1.825,1.939,1.878,1.878,0,0,0,1.785-1.975A1.883,1.883,0,0,0,501.7-1357.232Zm20.156,0a1.862,1.862,0,0,0-1.795,1.962,1.861,1.861,0,0,0,1.77,1.982,1.89,1.89,0,0,0,1.835-1.982A1.9,1.9,0,0,0,521.859-1357.231Zm-20.156,0a1.9,1.9,0,0,0-1.813,2,1.884,1.884,0,0,0,1.825,1.939,1.878,1.878,0,0,0,1.785-1.975A1.883,1.883,0,0,0,501.7-1357.232Zm20.156,0a1.862,1.862,0,0,0-1.795,1.962,1.861,1.861,0,0,0,1.77,1.982,1.89,1.89,0,0,0,1.835-1.982A1.9,1.9,0,0,0,521.859-1357.231Zm-20.156,0a1.9,1.9,0,0,0-1.813,2,1.884,1.884,0,0,0,1.825,1.939,1.878,1.878,0,0,0,1.785-1.975A1.883,1.883,0,0,0,501.7-1357.232Zm0,0a1.9,1.9,0,0,0-1.813,2,1.884,1.884,0,0,0,1.825,1.939,1.878,1.878,0,0,0,1.785-1.975A1.883,1.883,0,0,0,501.7-1357.232Zm0,0a1.9,1.9,0,0,0-1.813,2,1.884,1.884,0,0,0,1.825,1.939,1.878,1.878,0,0,0,1.785-1.975A1.883,1.883,0,0,0,501.7-1357.232Z" transform="translate(-469.795 1367.702)" fill="#fff" opacity="0.6"/>
</svg>
