<svg xmlns="http://www.w3.org/2000/svg" width="121.39" height="29.319" viewBox="0 0 121.39 29.319">
  <g id="Grupo_20786" data-name="Grupo 20786" transform="translate(-1046 -2288.298)" opacity="0.6">
    <g id="Grupo_20785" data-name="Grupo 20785" transform="translate(1046 2288.298)">
      <path id="Trazado_17783" data-name="Trazado 17783" d="M113.716,440.431c.186-.742.391-1.48.548-2.228.081-.384.241-.425.583-.315q3.115,1,6.24,1.975c.28.087.39.189.279.5a3.162,3.162,0,0,0-.186.925c-.016.4-.166.474-.556.435-1.985-.2-3.974-.358-5.962-.532-.315-.028-.63-.064-.945-.1Z" transform="translate(-113.716 -427.794)" fill="#fff"/>
      <path id="Trazado_17784" data-name="Trazado 17784" d="M232.231,435.893c.5.127.9.206,1.283.333a3.538,3.538,0,0,1,2.478,4.7,3.468,3.468,0,0,1-2.579,2.29,7.339,7.339,0,0,1-2.016.3c-1.934.011-3.868.01-5.8.008-.167,0-.408.092-.395-.239.012-.287.22-.2.379-.219.016,0,.032,0,.047,0,.436-.035,1.033.2,1.266-.1.219-.274.077-.844.078-1.283,0-3.936,0-7.872.011-11.807,0-.4-.1-.529-.5-.488a9.8,9.8,0,0,1-1,.007c-.147,0-.284.009-.287-.21s.111-.259.3-.258c1.062,0,2.124,0,3.186,0a16.635,16.635,0,0,1,4.068.265,3.5,3.5,0,0,1,2.682,2.037,3.093,3.093,0,0,1-1.293,3.882A6.059,6.059,0,0,1,232.231,435.893Zm-3.368,3.727q0,1.539,0,3.078c0,.192-.034.377.273.366.79-.028,1.586.016,2.372-.055a2.279,2.279,0,0,0,2.389-1.894,6.717,6.717,0,0,0,.08-2.448,2.426,2.426,0,0,0-2.408-2.4,20.927,20.927,0,0,0-2.466-.066c-.287-.008-.239.18-.24.347Q228.863,438.081,228.864,439.62Zm0-7.058c0,.947,0,1.894,0,2.841,0,.182-.015.342.258.331a19.135,19.135,0,0,0,2.464-.088,2.085,2.085,0,0,0,1.8-1.535,6.071,6.071,0,0,0,.112-2.9,1.932,1.932,0,0,0-1.949-1.732c-.757-.089-1.517-.067-2.276-.092-.349-.011-.417.116-.411.432C228.876,430.731,228.864,431.647,228.864,432.562Z" transform="translate(-190.26 -421.676)" fill="#fff"/>
      <path id="Trazado_17785" data-name="Trazado 17785" d="M340.263,436.29a7.39,7.39,0,0,1,1.338-1.86,3.446,3.446,0,0,1,3.086-.988,2.179,2.179,0,0,1,1.985,2.365c.008,1.991,0,3.982,0,5.973,0,1.018,0,1.018,1,1.019.111,0,.222.008.333,0,.192-.015.241.078.243.254s-.08.209-.231.209q-2.116,0-4.231,0c-.17,0-.215-.072-.212-.228s.044-.238.214-.236c.333.005.666-.008,1,0,.222.008.306-.064.3-.3-.009-2.449.012-4.9-.021-7.348-.015-1.1-.7-1.576-1.762-1.225a4.395,4.395,0,0,0-2.95,3.475,4.8,4.8,0,0,0-.092,1.035c-.01,1.311.006,2.623-.012,3.934,0,.319.063.465.412.428.266-.029.539,0,.808-.008.2-.009.23.1.234.263,0,.18-.091.2-.238.2q-2.021,0-4.041,0c-.167,0-.271-.029-.266-.23s.095-.251.268-.234a.636.636,0,0,0,.095,0c.361-.02.829.151,1.055-.068.25-.242.08-.718.081-1.09.007-4,0-8,.013-11.993,0-.405-.079-.58-.515-.523a7.546,7.546,0,0,1-.9.008c-.151,0-.281,0-.281-.213s.11-.255.3-.255a17,17,0,0,0,2.751-.113c.354-.058.232.222.232.372q.01,3.389,0,6.779Z" transform="translate(-267.007 -421.414)" fill="#fff"/>
      <path id="Trazado_17786" data-name="Trazado 17786" d="M308,453.332c-1.167-.541-1.645-1.195-1.539-2.219.12-1.159,1.022-1.538,1.976-1.836-.011-.086-.087-.115-.154-.156a2.758,2.758,0,0,1-.25-4.733,3.75,3.75,0,0,1,4.687.1c.253.219.365.186.541-.058a2.516,2.516,0,0,1,.887-.84.972.972,0,0,1,1.436.422.724.724,0,0,1-.271.92.789.789,0,0,1-1.025-.193c-.124-.145-.221-.435-.462-.2-.2.2-.562.365-.353.77a2.751,2.751,0,0,1-.365,3.378,3.356,3.356,0,0,1-3.669,1.01,2,2,0,0,0-1.933.479.986.986,0,0,0-.282,1.128.779.779,0,0,0,.885.489c1.455-.072,2.913-.128,4.363-.257a2.218,2.218,0,0,1,2.705,2.539,3.916,3.916,0,0,1-2.058,3.366,5.605,5.605,0,0,1-4.722.4,3.012,3.012,0,0,1-1.058-.618,2.08,2.08,0,0,1-.2-3.1C307.4,453.842,307.7,453.608,308,453.332Zm2.527,4.372c.2-.016.39-.026.579-.046a3.98,3.98,0,0,0,3.274-2.6c.34-1.182-.188-2.057-1.252-2.006-1.44.069-2.878.185-4.317.284a.46.46,0,0,0-.382.148c-1.5,1.919-.643,3.655,1.119,4.1A5.8,5.8,0,0,0,310.53,457.7Zm1.684-11.047c-.017-.349-.018-.777-.061-1.2a1.34,1.34,0,0,0-1.19-1.331,3.162,3.162,0,0,0-1.181,0,1.39,1.39,0,0,0-1.232,1.3,10.2,10.2,0,0,0,0,2.6,1.406,1.406,0,0,0,1.3,1.344,3.2,3.2,0,0,0,1.318-.065,1.191,1.191,0,0,0,.894-.885A8.541,8.541,0,0,0,312.214,446.657Z" transform="translate(-246.045 -431.647)" fill="#fff"/>
      <path id="Trazado_17787" data-name="Trazado 17787" d="M441.678,452.472a7.455,7.455,0,0,1-.892,1.032,2.668,2.668,0,0,1-4.449-1.085A2.552,2.552,0,0,1,437.7,449.4a8.263,8.263,0,0,1,3.118-.92c.909-.11.915-.1.909-1,0-.663,0-1.328-.037-1.989a.944.944,0,0,0-1.022-1.007,3.369,3.369,0,0,0-1.8.309c-.521.271-.587.575-.234,1.051a.876.876,0,0,1,.079,1.058.946.946,0,0,1-1.041.4.818.818,0,0,1-.681-.753,1.593,1.593,0,0,1,.555-1.488,4.3,4.3,0,0,1,3.532-1.015,5.377,5.377,0,0,1,1.064.225,1.357,1.357,0,0,1,1.17,1.545c.017,1.927.011,3.854.012,5.781a6.874,6.874,0,0,0,.082,1.228c.124.68.506.827,1.074.416.134-.1.251-.344.453-.084.174.224-.081.294-.171.4a2.011,2.011,0,0,1-.43.369,1.555,1.555,0,0,1-2.526-.989C441.774,452.794,441.814,452.625,441.678,452.472Zm.056-2.416c0-.316,0-.631,0-.946,0-.164-.021-.274-.23-.255a5.09,5.09,0,0,0-2.767.849,2.378,2.378,0,0,0-.375,3.234,1.369,1.369,0,0,0,.7.465,1.635,1.635,0,0,0,1.614-.434A3.372,3.372,0,0,0,441.733,450.056Z" transform="translate(-335.153 -432.039)" fill="#fff"/>
      <path id="Trazado_17788" data-name="Trazado 17788" d="M149.341,478.594c0,1.073-.009,2.146.006,3.219,0,.307-.051.447-.41.44a15.164,15.164,0,0,1-4.832-.863c-.29-.1-.361-.213-.238-.511.846-2.054,1.676-4.115,2.507-6.176.081-.2.166-.312.416-.22a6.512,6.512,0,0,0,2.227.412c.29,0,.33.143.328.385C149.336,476.385,149.341,477.49,149.341,478.594Z" transform="translate(-134.377 -452.934)" fill="#fff"/>
      <path id="Trazado_17789" data-name="Trazado 17789" d="M133.042,469.6c-.047.083-.1.18-.155.274-1.138,1.893-2.281,3.782-3.408,5.681-.158.266-.272.3-.537.131a16.258,16.258,0,0,1-3.15-2.569c-.219-.23-.207-.356.03-.56q2.553-2.193,5.087-4.408c.141-.123.249-.227.426-.031a7.172,7.172,0,0,0,1.537,1.254C132.953,469.418,133.036,469.465,133.042,469.6Z" transform="translate(-121.901 -448.509)" fill="#fff"/>
      <path id="Trazado_17790" data-name="Trazado 17790" d="M393.4,452.076c0-.474-.005-.949,0-1.423,0-.123-.076-.3.149-.336s.251.1.292.275a5.473,5.473,0,0,0,.829,2,2.623,2.623,0,0,0,3.009,1.047,2.047,2.047,0,0,0,1.392-1.377,1.622,1.622,0,0,0-.908-2.126,8.6,8.6,0,0,0-2.1-.559c-.186-.039-.375-.064-.559-.11-1.727-.426-2.418-1.57-1.938-3.524a2.768,2.768,0,0,1,3.685-1.8,1.232,1.232,0,0,1,.38.189c.371.325.7.6,1.1,0,.111-.171.348-.135.346.178-.005.711,0,1.423,0,2.134,0,.114.049.262-.159.273a.238.238,0,0,1-.275-.19,5.433,5.433,0,0,0-.555-1.252,2.176,2.176,0,0,0-2.609-.919,1.848,1.848,0,0,0-1.13,1.019,1.32,1.32,0,0,0,.923,1.99c.579.157,1.175.253,1.763.378.17.036.341.07.509.117a3,3,0,0,1,1.952,4.661,3.1,3.1,0,0,1-4.68.794c-.343-.287-.552-.339-.807.044a.707.707,0,0,1-.237.23c-.2.106-.368.118-.365-.192C393.4,453.088,393.4,452.582,393.4,452.076Z" transform="translate(-305.739 -432)" fill="#fff"/>
      <path id="Trazado_17791" data-name="Trazado 17791" d="M469.027,446.406a5.966,5.966,0,0,1,.8-1.372,2.466,2.466,0,0,1,2.042-1.02,1.3,1.3,0,0,1,1.282,1.685.944.944,0,0,1-1.132.693c-.492-.093-.717-.445-.678-1.025.012-.173.184-.391-.047-.516a.623.623,0,0,0-.625.108,2.406,2.406,0,0,0-.832.953,7.031,7.031,0,0,0-.852,3.312c-.02,1.263.008,2.527-.013,3.79-.006.346.112.435.432.409.3-.024.6,0,.9-.007.173,0,.259.052.262.243,0,.212-.119.221-.275.221q-2.066,0-4.134,0c-.157,0-.279-.007-.274-.219,0-.182.071-.264.255-.244a1.2,1.2,0,0,0,.143,0c1.1-.016,1.1-.016,1.1-1.1,0-2.337-.009-4.675.009-7.012,0-.376-.1-.5-.472-.464-.314.031-.633,0-.95.008-.161,0-.269-.016-.277-.221-.009-.227.1-.254.289-.252a14.626,14.626,0,0,0,2.7-.127c.3-.053.2.173.206.3.009.611,0,1.223,0,1.834Z" transform="translate(-355.382 -432.035)" fill="#fff"/>
      <path id="Trazado_17792" data-name="Trazado 17792" d="M373.232,443.586c0-1.169-.009-2.337.007-3.506,0-.3-.062-.428-.386-.4-.3.028-.6,0-.9.008-.186.007-.244-.065-.248-.248-.005-.207.1-.228.263-.225.317.007.635-.013.95.007.249.016.329-.065.323-.317-.017-.631,0-1.264-.009-1.9,0-.225.021-.346.306-.313a1.8,1.8,0,0,0,.93-.145c.362-.161.38.008.374.3-.013.663.014,1.327-.012,1.989-.013.324.1.4.4.384.538-.022,1.077-.021,1.615,0,.171.008.486-.18.475.236-.01.37-.292.211-.456.217-.569.019-1.14.018-1.71,0-.245-.007-.326.062-.325.316.012,2.369.005,4.738.02,7.107,0,.444.048.926.55,1.112a1.31,1.31,0,0,0,1.486-.324,6.49,6.49,0,0,0,.577-.748c.094-.134.185-.22.346-.119s.063.21.011.324a2.872,2.872,0,0,1-3.125,1.724,1.422,1.422,0,0,1-1.384-1.371,6.727,6.727,0,0,1-.074-.942c-.009-1.058,0-2.116,0-3.175Z" transform="translate(-290.847 -426.873)" fill="#fff"/>
      <path id="Trazado_17793" data-name="Trazado 17793" d="M417.644,436.358c0,.822.019,1.6-.008,2.367-.012.343.1.426.426.41.553-.027,1.109-.016,1.663,0,.153,0,.4-.129.408.215s-.218.243-.388.245c-.586.006-1.173.015-1.758,0-.268-.008-.348.069-.347.342.013,2.337,0,4.674.018,7.011,0,.472.021.994.576,1.19a1.342,1.342,0,0,0,1.549-.412,8.427,8.427,0,0,0,.533-.723.2.2,0,0,1,.283-.074c.135.066.11.159.07.275a2.928,2.928,0,0,1-3.732,1.627,1.33,1.33,0,0,1-.8-1.1,7.806,7.806,0,0,1-.093-1.178q-.014-3.269,0-6.537c0-.319-.061-.461-.41-.424-.282.031-.57,0-.854.009-.206.009-.275-.066-.274-.271,0-.232.15-.2.288-.2.032,0,.064,0,.1,0,.373-.035.868.17,1.085-.088.182-.217.057-.692.061-1.053a3.426,3.426,0,0,1,.034-1.219c.166-.389.709-.06,1.048-.251A2.783,2.783,0,0,1,417.644,436.358Z" transform="translate(-320.239 -426.78)" fill="#fff"/>
      <path id="Trazado_17794" data-name="Trazado 17794" d="M265.689,446.517a14.184,14.184,0,0,1,.8-1.333,2.539,2.539,0,0,1,2.159-1.17,1.3,1.3,0,0,1,1.261,1.731.931.931,0,0,1-1.161.638c-.471-.11-.689-.494-.615-1.064.021-.16.138-.353-.059-.474a.528.528,0,0,0-.5.048,1.955,1.955,0,0,0-.836.816,6.124,6.124,0,0,0-.936,3c-.058,1.467-.018,2.937-.034,4.406,0,.259.092.325.331.312.316-.016.634,0,.95-.007.2-.006.284.059.282.269,0,.235-.159.193-.293.193q-2.044,0-4.087,0c-.134,0-.291.039-.3-.193,0-.212.084-.286.281-.267a.808.808,0,0,0,.095,0c.362-.01.843.117,1.055-.065.252-.218.08-.713.081-1.086.008-2.337,0-4.675.013-7.012,0-.336-.091-.441-.421-.412s-.665,0-1,.008c-.182,0-.3-.023-.3-.253,0-.214.121-.218.275-.218a14.913,14.913,0,0,0,2.748-.134c.262-.048.2.139.2.261C265.692,445.178,265.689,445.848,265.689,446.517Z" transform="translate(-215.848 -432.035)" fill="#fff"/>
      <path id="Trazado_17795" data-name="Trazado 17795" d="M122,458.095c.2-.055.246.079.279.2a6.337,6.337,0,0,0,.589,1.442c.116.206.056.294-.134.4q-2.991,1.645-5.972,3.309c-.236.132-.353.095-.48-.144a15.406,15.406,0,0,1-1.255-3.159c-.057-.207-.05-.324.183-.381q3.338-.817,6.675-1.641C121.935,458.107,121.982,458.1,122,458.095Z" transform="translate(-114.599 -441.696)" fill="#fff"/>
      <path id="Trazado_17796" data-name="Trazado 17796" d="M291.624,449.349c0,1.39.011,2.78-.008,4.17,0,.334.087.448.421.415.282-.028.57,0,.855-.008.185-.006.3.029.3.252s-.13.212-.28.212q-2.068,0-4.135,0c-.162,0-.272-.023-.268-.228s.1-.244.27-.234c.047,0,.095,0,.143,0,1.1-.018,1.1-.018,1.1-1.1,0-2.354-.007-4.707.008-7.061,0-.333-.085-.444-.42-.416s-.7,0-1.045.009c-.191,0-.243-.083-.243-.259s.086-.212.235-.212a17.8,17.8,0,0,0,2.891-.133c.286-.046.171.207.171.327.009,1.311.006,2.622.006,3.933Z" transform="translate(-233.598 -432.544)" fill="#fff"/>
      <path id="Trazado_17797" data-name="Trazado 17797" d="M127.72,415.178a.384.384,0,0,1,.283.2q2.057,2.579,4.114,5.157c.152.19.162.315-.046.46a3.727,3.727,0,0,0-.428.375c-.485.466-.485.468-.979.038-1.566-1.36-3.127-2.726-4.7-4.076-.248-.212-.285-.338-.037-.582a19.039,19.039,0,0,1,1.544-1.4C127.555,415.279,127.65,415.225,127.72,415.178Z" transform="translate(-121.983 -412.238)" fill="#fff"/>
      <path id="Trazado_17798" data-name="Trazado 17798" d="M158.607,405.815a5.866,5.866,0,0,0,.712,0c.432-.053.561.088.523.538q-.255,3.044-.439,6.093c-.021.341-.134.409-.449.406-1-.011-.995,0-1.08-.975-.16-1.839-.319-3.679-.5-5.517-.042-.431.073-.605.521-.545A5.347,5.347,0,0,0,158.607,405.815Z" transform="translate(-143.686 -405.798)" fill="#fff"/>
      <path id="Trazado_17799" data-name="Trazado 17799" d="M177.108,421.84a5.952,5.952,0,0,1-.742-.674c-.152-.19.108-.327.211-.461,1.249-1.611,2.514-3.208,3.754-4.826.221-.288.365-.324.62-.068.323.324.669.626,1.013.929.175.154.154.268-.006.422q-2.313,2.248-4.619,4.5A2.275,2.275,0,0,1,177.108,421.84Z" transform="translate(-156.699 -412.554)" fill="#fff"/>
      <path id="Trazado_17800" data-name="Trazado 17800" d="M188.873,449.939c-1.044,0-2.088-.008-3.131.005-.3,0-.464-.077-.4-.4.05-.254-.22-.63.36-.668,2.13-.14,4.258-.321,6.385-.5.258-.022.352.065.349.3,0,.016,0,.031,0,.047,0,.457.163,1.019-.045,1.342-.228.354-.815.037-1.245.064a11.311,11.311,0,0,1-1.138-.023c-.38-.015-.758-.039-1.138-.06Z" transform="translate(-162.88 -435.031)" fill="#fff"/>
      <path id="Trazado_17801" data-name="Trazado 17801" d="M178.354,467.59c.166.113.263.166.344.236q2.457,2.131,4.913,4.262c.189.163.186.266.028.456-.857,1.025-.848,1.027-1.734.08q-1.928-2.064-3.86-4.125c-.086-.092-.285-.175-.178-.338A5.726,5.726,0,0,1,178.354,467.59Z" transform="translate(-157.741 -448.224)" fill="#fff"/>
      <path id="Trazado_17802" data-name="Trazado 17802" d="M295.02,432.264a.94.94,0,0,1-.973.94.955.955,0,0,1-.94-.933.978.978,0,0,1,.957-.972A.957.957,0,0,1,295.02,432.264Z" transform="translate(-236.885 -423.307)" fill="#fff"/>
      <path id="Trazado_17803" data-name="Trazado 17803" d="M494.333,446.477a1.22,1.22,0,0,1-1.212-1.251,1.241,1.241,0,1,1,2.482.059A1.221,1.221,0,0,1,494.333,446.477Zm1.068-1.212a1.039,1.039,0,1,0-1.084,1.01A1.053,1.053,0,0,0,495.4,445.265Z" transform="translate(-374.214 -432.029)" fill="#fff"/>
      <path id="Trazado_17810" data-name="Trazado 17810" d="M496.295,446.806a.807.807,0,0,1-.121-.14.27.27,0,0,0-.3-.169c-.2.033-.093.2-.122.3s.048.219-.132.3a5.451,5.451,0,0,1-.051-1.237.131.131,0,0,1,.141-.15,3.311,3.311,0,0,1,.748.046.351.351,0,0,1,.067.635c-.134.1-.283.147-.134.339Zm-.244-.491c.166-.009.4.042.412-.2.015-.268-.225-.25-.414-.263-.171-.011-.3-.006-.306.235S495.887,446.323,496.051,446.315Z" transform="translate(-375.886 -433.199)" fill="#fff"/>
      <path id="Trazado_17811" data-name="Trazado 17811" d="M498.007,448.963a.528.528,0,0,1,.186.347c-.207,0-.231-.145-.281-.268Z" transform="translate(-377.503 -435.435)" fill="#fff"/>
    </g>
  </g>
</svg>
