<svg xmlns="http://www.w3.org/2000/svg" width="110.838" height="36.627" viewBox="0 0 110.838 36.627"><defs><style>.a{opacity:0.6;}.b{fill:#fff;}</style></defs><g class="a" transform="translate(-765.804 -482.421)"><path class="b" d="M765.8,567.033c.014-2.145.04-4.291.039-6.437,0-3.143-.022-6.286-.035-9.43q.04-1.292.08-2.584h0a.268.268,0,0,0,.235-.284l.032-.021,0-.038.139-.191.5-.5.25-.042c.157.068.273-.019.391-.1l.644,0a2.523,2.523,0,0,1,1.171.848c.193.271.228.8.524.8s.58-.381.869-.594a.311.311,0,0,0,.043-.047,7.57,7.57,0,0,1,2.608-.95,8.917,8.917,0,0,1,2.6.2,7.615,7.615,0,0,1,3.956,3.512,10.8,10.8,0,0,1,.753,2.6,15.231,15.231,0,0,1-.15,2.606,11.631,11.631,0,0,1-1.118,2.586l-.846,1.028a9.881,9.881,0,0,1-2.546,1.575l-.046,0a8.314,8.314,0,0,1-2.6.2l-.931-.183-1.495-.686a.466.466,0,0,0-.318-.2l-.114-.072a1.615,1.615,0,0,0-.74-.544,7.023,7.023,0,0,0,.038,1.513,16.385,16.385,0,0,0,.014,2.58,14.288,14.288,0,0,0,0,2.614,2.251,2.251,0,0,1-1.659,2.341C766.576,569.078,766.074,568.616,765.8,567.033Zm10.085-9.885h0a3.42,3.42,0,0,0,.888-3.126l-.061-.214-.007-.052a2.883,2.883,0,0,0-.809-1.7,2.264,2.264,0,0,0-1.061-.886,2.815,2.815,0,0,0-3.113,0,2.326,2.326,0,0,0-1.045.9,2.667,2.667,0,0,0-.776,1.7,3.816,3.816,0,0,0,.555,3.025,3.093,3.093,0,0,0,2.83,1.614,3.024,3.024,0,0,0,2.476-1.107Z" transform="translate(0 -50.078)"/><path class="b" d="M1101.087,485.47a4.262,4.262,0,0,1-.959,2,1.205,1.205,0,0,1-1.011.462,16.551,16.551,0,0,0-2.478-.645,9.071,9.071,0,0,0-2.593-.409,10.464,10.464,0,0,0-2.612-.087,11.034,11.034,0,0,0-2.61.282,17.844,17.844,0,0,0-5.2,1.657,22.2,22.2,0,0,0-5.208,3.114,9.6,9.6,0,0,0-1.807,1.44,3.022,3.022,0,0,0-.808.726,11.246,11.246,0,0,0-1.933,1.873,2.105,2.105,0,0,0-.649.674,12.408,12.408,0,0,0-1.669,1.936,5.589,5.589,0,0,0-.936,1.179,7.079,7.079,0,0,0-1.041,1.417,5.664,5.664,0,0,0-.912,1.3l-.077.109a4.844,4.844,0,0,0-.7,1.062l-.144.255a15.3,15.3,0,0,0-1.521,2.481,7.217,7.217,0,0,0-.832,1.616,14.232,14.232,0,0,0-1.227,2.412,2.3,2.3,0,0,1-.955,1.176l-.4.039a18.687,18.687,0,0,0-2.6-.028l-1.146-.022-.076-2.589a18.019,18.019,0,0,0-.008-2.609,13.676,13.676,0,0,0-.1-2.6,12.7,12.7,0,0,0-.3-2.607l-.062-.258a1.27,1.27,0,0,0-.141-.652l-.02-.124a2.165,2.165,0,0,0-.287-.913,1.567,1.567,0,0,0-.455-.813l-.1-.147c-.348-.383-.758-.759-.107-1.229l.2-.157c.172-.091.34-.189.515-.272a2.8,2.8,0,0,1,4.161,1.71c.2.59.318,1.211.474,1.818l.065.909,0,.129.043,2.6a9.025,9.025,0,0,0,.023,2.011l1.017-2,1.52-2.608,0,0,1.795-2.617.821-1.119a9.806,9.806,0,0,0,1.171-1.472l1.4-1.615.921-1,1.7-1.675a5.252,5.252,0,0,0,1.027-.931l1.562-1.31a12.611,12.611,0,0,0,1.634-1.262,4.239,4.239,0,0,0,.972-.685,44.327,44.327,0,0,1,5.226-2.91,37.142,37.142,0,0,1,5.079-1.627.093.093,0,0,0,.108-.014l2.6-.385,2.6-.061,2.609.278.9.174a15.688,15.688,0,0,1,2.118.789A2.461,2.461,0,0,1,1101.087,485.47Z" transform="translate(-224.446 0)"/><path class="b" d="M1193.032,547.44l.77.4.14.09a.1.1,0,0,0,.1.05l1.466,1.278.776,1.18.092.169,0,.007a11.355,11.355,0,0,1,.6,2.557q.037,1.3.073,2.6-.023,1.3-.046,2.6c-.05.869.043,1.782-.734,2.432l-.892.32-1.161-.159a1.674,1.674,0,0,1-.736-1c-.107-.706-.348-.648-.714-.171a10.05,10.05,0,0,1-2.273,1.162l-.423.07a10.014,10.014,0,0,1-2.179.03,1.061,1.061,0,0,0-.635-.1l-2.161-.992a11.569,11.569,0,0,1-1.718-1.6l-.884-1.566-.285-1.162a3.6,3.6,0,0,0-.1-.754,2.722,2.722,0,0,1-.018-1.72,7.736,7.736,0,0,1,3.032-5.167,9.956,9.956,0,0,1,2.572-1.218l.911-.139.255-.013.788-.005.125.005.394.02a17.912,17.912,0,0,1,2.693.706v-.007Zm-6.978,6.9a.394.394,0,0,0,.078.389,2.19,2.19,0,0,0,.391,1.036,2.6,2.6,0,0,0,1.17,1.309,2.886,2.886,0,0,0,2.606.506,3.109,3.109,0,0,0,2.342-1.817,1.248,1.248,0,0,0,.29-.73,3.876,3.876,0,0,0-1.716-4.566,2.919,2.919,0,0,0-3.007-.059.848.848,0,0,0-.512.275,3.355,3.355,0,0,0-1.622,2.487A2.38,2.38,0,0,0,1186.054,554.344Z" transform="translate(-320.711 -49.478)"/><path class="b" d="M1128.415,554.767a1.238,1.238,0,0,1-.814.459l-2.606.054a18.54,18.54,0,0,0-2.6.011h-2.6c-.362-.012-.725-.015-1.087-.037-.473-.029-.581.159-.36.565a2.5,2.5,0,0,0,1.448,1.811,3.792,3.792,0,0,0,2.477.48l.158-.044,0,0a4.063,4.063,0,0,0,2.581-1.161c1.26-.594,1.786-.53,2.6.315a1.977,1.977,0,0,1,.162,1.2l-.177.363a8.1,8.1,0,0,1-5.2,2.506,17.307,17.307,0,0,1-2.6-.143.958.958,0,0,0-.581-.139,16.684,16.684,0,0,1-2.021-1,16.473,16.473,0,0,1-1.662-1.6l-.948-1.652-.335-1.14a9.7,9.7,0,0,1-.089-2.419.073.073,0,0,0,.012-.091q.074-.4.148-.8l.031-.181.09-.208a.1.1,0,0,0,.027-.114l.11-.278a.079.079,0,0,0,.03-.1,8.248,8.248,0,0,1,2.862-3.5,11.812,11.812,0,0,1,2.332-1.077,11.176,11.176,0,0,1,2.6-.153,10.75,10.75,0,0,1,2.606.906l.629.412a11.887,11.887,0,0,1,1.96,2.1l.281.493a8.712,8.712,0,0,1,.711,2.6q-.044.694-.088,1.387Zm-6.025-2.219c.647.01,1.3.008,1.942.034.385.016.36-.164.275-.438a3.354,3.354,0,0,0-2.811-2.187,3.315,3.315,0,0,0-3.331,1.662c-.415.841-.348.961.55.959.258,0,.517-.019.775-.03Z" transform="translate(-268.42 -49.523)"/><path class="b" d="M996.27,561.337l-.686-.189-1.922-1.05a11.978,11.978,0,0,1-1.423-1.491,13.1,13.1,0,0,1-1.072-2.34l-.05-.246-.034-.178-.09-.752a.073.073,0,0,0-.012-.114q.01-.462.021-.925l.01-.124.047-.521.014-.13a.086.086,0,0,0,.016-.095.562.562,0,0,0,.091-.429l.671-1.947a8.606,8.606,0,0,1,2.34-2.6,15.5,15.5,0,0,1,2.077-.945,11.215,11.215,0,0,1,2.618-.321,16.32,16.32,0,0,1,2.413.522l1.564.761,1.2.951,1.2,1.63a8.523,8.523,0,0,1,.639,2.605l.055,2.609q-.011,1.295-.021,2.59c-.063.96.016,1.97-.933,2.613-.317.05-.564.372-.928.238l-1.046-.241a3.952,3.952,0,0,1-.859-1.593l-.707.657a10.891,10.891,0,0,1-1.817.931l-.772.176A9.2,9.2,0,0,1,996.27,561.337Zm-.853-5.328a2.371,2.371,0,0,0,.837,1.1,2.964,2.964,0,0,0,2.624.879c2.631-.218,4.1-3.467,2.617-5.805a2.744,2.744,0,0,0-1.4-1.4,2.911,2.911,0,0,0-3.182.022,1.385,1.385,0,0,0-.662.462,3.169,3.169,0,0,0-1.215,2.127A3.622,3.622,0,0,0,995.417,556.008Z" transform="translate(-173.53 -49.716)"/><path class="b" d="M837.918,523.7a20.465,20.465,0,0,0,0-2.607,21.209,21.209,0,0,0,0-2.594c.1-.878-.1-1.8.429-2.611l.918-.675a1.968,1.968,0,0,1,2.481,1.2.313.313,0,0,0,.111.287.106.106,0,0,0,.021.1l.021.13q.023.783.046,1.565a16.619,16.619,0,0,0,0,2.591,16.164,16.164,0,0,0,0,2.613,19.989,19.989,0,0,0-.014,2.585,16.432,16.432,0,0,0,0,2.63,20.244,20.244,0,0,0,.013,2.585,16.259,16.259,0,0,0,0,2.61q-.048.7-.1,1.392l-.791,1.188a3.044,3.044,0,0,1-1.622.258l-.546-.242a2.967,2.967,0,0,1-.956-2.6l.007-2.606a20.558,20.558,0,0,0-.019-2.6,21.338,21.338,0,0,0-.005-2.612A20.361,20.361,0,0,0,837.918,523.7Z" transform="translate(-55.573 -25.214)"/><path class="b" d="M945.079,561.906l-.878.064a21.732,21.732,0,0,0-2.609,0l-2.595,0a21,21,0,0,0-2.611,0l-1.522-.059c-1.314-.687-1.521-1.728-.581-2.909l1.816-2.281.3-.369a20.264,20.264,0,0,0,1.827-2.229,4.2,4.2,0,0,0,.763-.93,11.434,11.434,0,0,0,1.366-1.66c.127-.132.367-.234.27-.452-.084-.186-.312-.081-.474-.082-.387,0-.775.014-1.162.023h-2.6a6.01,6.01,0,0,0-.7-.023,2.043,2.043,0,0,1-1.893-.683,1.865,1.865,0,0,1-.189-1.384l.33-.523a1.931,1.931,0,0,1,1.1-.5c.451-.02.9-.031,1.353-.046l2.6-.006h2.6l2.6.007c.826.029,1.6.159,1.97,1.044a2.195,2.195,0,0,1-.489,1.749c-.212.268-.384.568-.575.853a7.04,7.04,0,0,0-.913,1.159,9.422,9.422,0,0,0-1.176,1.439l-1.42,1.7a3.48,3.48,0,0,0-.778.91,10.876,10.876,0,0,0-1.68,2.129l-.037.012.033-.029a12.169,12.169,0,0,0,2.457.022,15.928,15.928,0,0,0,2.618,0,2.725,2.725,0,0,1,1.556.464C946.528,560.464,946.334,561.2,945.079,561.906Z" transform="translate(-129.267 -50.43)"/><path class="b" d="M875.865,561.5l-.182.1c-1.558.37-2.128.034-2.8-1.719a6.655,6.655,0,0,1-2.485,1.615l-.131.025-.645.142-.434.075-.107.014-.377.009-.651-.009a8.484,8.484,0,0,1-3.111-1.078,6.988,6.988,0,0,1-3.111-4.39,17,17,0,0,1-.041-2.6,14.519,14.519,0,0,1,.821-2.581l0,0,.1-.156.14-.258a10.8,10.8,0,0,1,2.011-2.133l.01-.005a.479.479,0,0,0,.323-.2l.257-.151a10.963,10.963,0,0,1,2.6-.881,14.008,14.008,0,0,1,2.6.088,13.623,13.623,0,0,1,2.607.933l.308.179a10.854,10.854,0,0,1,2.141,2.054l.3.509.385.913a.355.355,0,0,0,.1.308l.184,1.38,0,.13q.01,1.234.019,2.468-.006,1.306-.011,2.613c-.026.451-.031.9-.084,1.351A2.152,2.152,0,0,1,875.865,561.5Zm-5.209-3.53a3.111,3.111,0,0,0,1.691-1.678,3.336,3.336,0,0,0,.37-2.6,3.509,3.509,0,0,0-6.949,0l-.038.257-.008.129a3.449,3.449,0,0,0,.392,2.085,3.137,3.137,0,0,0,1.81,1.821A2.771,2.771,0,0,0,870.656,557.966Z" transform="translate(-73.947 -50)"/></g></svg>