<svg xmlns="http://www.w3.org/2000/svg" width="284.816" height="30.105" viewBox="0 0 284.816 30.105">
  <g id="Grupo_20833" data-name="Grupo 20833" transform="translate(359.168 248.781)" opacity="0.6">
    <path id="Trazado_17834" data-name="Trazado 17834" d="M-185.108-241.542a7.04,7.04,0,0,0-3.989,2.609c-.377.416-.726.857-1.085,1.285a5.628,5.628,0,0,1,.341-1.67c.57-1.906.064-2.481-1.9-2.081-1.421.29-2.807.757-4.233.993-1.17.192-1.547.662-1.634,1.9a11.253,11.253,0,0,1-3.556,7.833,1.377,1.377,0,0,1-1.632.4c-.618-.331-.636-.98-.593-1.58a12.605,12.605,0,0,1,1.57-5.1,7.366,7.366,0,0,1,3.32-3.6c.305-.136.775-.162.7-.6-.105-.588-.631-.264-.952-.269-2.124-.026-4.249-.013-6.4-.013.867-3.3,3.561-5.644,6.386-5.631,2.725.01,3.535,1.414,2.2,3.787-.028.049.023.144.049.277a3.333,3.333,0,0,0,1.388-.839c.713-.629,1.429-1.314,1.172-2.389s-1.231-1.414-2.15-1.555c-4.487-.685-8.72.485-11.327,4.9-.523.885-.962,1.778-2.132,1.991a.91.91,0,0,0-.831.831c.462.187.939-.241,1.46.144-.464,1.231-.944,2.494-1.419,3.759a10.25,10.25,0,0,1-5.614,5.647,2.045,2.045,0,0,1-2.312.013c-.731-.621-.4-1.478-.354-2.281.044-.721.58-.883,1.049-1.139,2.229-1.216,4.364-2.545,5.7-4.805.467-.788.839-1.688.187-2.509a2.241,2.241,0,0,0-2.371-.505c-4.09.765-8.218,6.214-7.835,10.36a2.8,2.8,0,0,0,3.071,2.758,8.5,8.5,0,0,0,5.172-1.963c.449-.341.885-.7,1.329-1.044-.7,2.43-1.314,4.816-3.038,6.812A4.058,4.058,0,0,0-211.2-226.7a13.06,13.06,0,0,0,1.565-3.21c1.124-3.081,2.229-6.17,3.366-9.246.149-.4.151-.98.821-.977,1.09.005,2.183,0,3.3,0-.072.521-.457.6-.688.826a11.388,11.388,0,0,0-3.687,7.517c-.167,2.355,1.367,3.558,3.687,3.043a6.751,6.751,0,0,0,3.2-1.778,15.056,15.056,0,0,0,4.382-8.079,1.751,1.751,0,0,1,2.271-1.306c.96.449.174,1.162.054,1.747a8.458,8.458,0,0,1-.477,1.319c-1.031,2.607-2.065,5.213-3.135,7.91,2.589.2,2.581.2,3.62-1.922.564-1.149,1.121-2.3,1.747-3.417a19.044,19.044,0,0,1,3.851-4.918c.305-.275.706-.652,1.121-.328.369.287.077.718-.074,1.054-.736,1.632-1.516,3.243-2.224,4.885a7.678,7.678,0,0,0-.877,3.694,2.716,2.716,0,0,0,1.868,2.5c.326.123.736.172.682-.4-.287-2.986,1.27-5.413,2.417-7.961a19.949,19.949,0,0,0,1.46-3.538C-182.545-240.937-183.4-241.832-185.108-241.542Zm-29.971,1.4c.359-.3.829-.57,1.283-.251.552.385.275.934.08,1.385a9.045,9.045,0,0,1-4.295,4.179A9.635,9.635,0,0,1-215.079-240.141Z" transform="translate(-102.024 -0.604)" fill="#fff"/>
    <path id="Trazado_17835" data-name="Trazado 17835" d="M-46.631-223.3a9.029,9.029,0,0,0-7.684,2.342A15.062,15.062,0,0,0-57.8-215.8a6.883,6.883,0,0,1-3.512,3.394c-1.529.718-2.345.139-2.209-1.509a12.637,12.637,0,0,1,3.253-7.353,3.637,3.637,0,0,1,1.319-.993c.413-.174.834-.3,1.2.051a1.016,1.016,0,0,1,.1,1.193c-.172.436-.418.844-.713,1.419a4.219,4.219,0,0,0,1.973-1c.577-.48,1.09-1.042.857-1.858-.241-.836-1.011-.975-1.742-1.047a6.777,6.777,0,0,0-5.111,1.627,12.119,12.119,0,0,0-4.192,6.855,3.557,3.557,0,0,1-1.639,2.312c-.505.334-1.09.77-1.637.377-.588-.418-.226-1.093-.036-1.642.942-2.748,2.265-5.329,3.471-7.958.182-.4.554-.752.413-1.26-1.855.059-3,.316-3.32.972-1.4,2.915-3.048,5.737-3.815,8.908-.536,2.222.721,3.322,2.986,2.771a8.485,8.485,0,0,0,3.279-1.868c1.1,2.712,4.539,2.779,8.218-.464.505,1.97.96,2.417,2.363,2.44a4.673,4.673,0,0,0,2.617-.908,9.256,9.256,0,0,0,2.137-2.058c.244.567-.041.957-.049,1.37a2.663,2.663,0,0,0,1.493,2.737c.6.28,1.072.334.98-.618a8.925,8.925,0,0,1,.233-2.791,48.36,48.36,0,0,1,3.23-8.867C-45.033-222.977-45.059-223.072-46.631-223.3Zm-1.822,1.742c-1.273,2.494-2.132,5.2-3.9,7.438A4.711,4.711,0,0,1-54.4-212.45c-.723.264-1.178-.018-1.039-.734.688-3.525,2.153-6.617,5.234-8.713a3.307,3.307,0,0,1,.98-.344C-48.468-222.294-48.119-222.209-48.453-221.563Z" transform="translate(-212.556 -18.764)" fill="#fff"/>
    <path id="Trazado_17836" data-name="Trazado 17836" d="M-317.438-246.747a21.492,21.492,0,0,0-8.342.646c-3.117,1.045-4.243,2.61-4.1,5.874.031.726-.314.563-.671.48a2.739,2.739,0,0,1-1.81-2.912,4.978,4.978,0,0,1,2.567-3.773,15.021,15.021,0,0,1,7.976-1.977c3.974-.062,7.949-.028,11.924-.015a18.808,18.808,0,0,0,4.006-.356,3.592,3.592,0,0,1-2.556,1.649,18.811,18.811,0,0,1-5.363.2,2.8,2.8,0,0,0-2.714,1.513,30.312,30.312,0,0,0-2.7,5.919c-1.3,3.424-2.522,6.878-3.849,10.291-.875,2.251-2.32,3.886-4.985,3.908-.2,0-.43.043-.573-.172,2.906-4.042,3.893-8.918,5.8-13.392C-321.552-241.865-320.418-244.889-317.438-246.747Z" transform="translate(-19.917)" fill="#fff"/>
    <path id="Trazado_17837" data-name="Trazado 17837" d="M-264.811-238.924a89.3,89.3,0,0,1-3.659,8.161,9.548,9.548,0,0,1-5.57,5.165c-.831.269-1.55.139-1.822-.834a2.418,2.418,0,0,1,1.257-2.85,15.425,15.425,0,0,0,4.769-3.61c.844-1.019,1.75-2.111,1.039-3.558-.423-.865-2.1-.9-3.8-.195a11.548,11.548,0,0,0-6.432,9.621c.005,2.26,1.411,3.435,3.671,3.056a9.389,9.389,0,0,0,4.323-2.109c.277-.223.472-.641,1.016-.5,0,.413-.033.842.005,1.26a2.952,2.952,0,0,0,1.557,2.491c.6.323,1.067.436.985-.539a8.949,8.949,0,0,1,.647-3.623c.877-2.586,1.975-5.08,3.1-7.566,1.049-2.322,2.081-4.651,3.156-7.053A3.657,3.657,0,0,0-264.811-238.924Zm-7.638,3.682c.405-.375.926-.8,1.47-.449.6.377.29,1.034.074,1.5-.885,1.919-2.484,3.117-4.515,4.395C-274.661-232.027-273.958-233.854-272.449-235.242Z" transform="translate(-59.578 -5.316)" fill="#fff"/>
    <path id="Trazado_17838" data-name="Trazado 17838" d="M290.89-222.544c.369-.285.572-.426.759-.588a2.554,2.554,0,0,0,.89-2.745,2.1,2.1,0,0,0-2.132-1.524c-1.314-.118-2.643-.038-3.964-.092-.618-.026-.685.367-.759.79q-.824,4.587-1.637,9.177c-.077.431-.028.77.536.765a21.939,21.939,0,0,0,5.606-.323,2.878,2.878,0,0,0,2.317-2.442A2.46,2.46,0,0,0,290.89-222.544Zm-3.338,4.031c-.639-.018-.777-.241-.731-.842.144-1.9.3-2.137,1.611-2.088.836.046,1.7.082,1.688,1.244C290.113-219.122,289.048-218.478,287.552-218.514Zm2.648-6.165c-.059,1.193-.934,1.36-1.863,1.46-.539.059-.754-.136-.721-.713.087-1.48.293-1.783,1.332-1.757C289.648-225.7,290.246-225.577,290.2-224.679Z" transform="translate(-478.172 -15.825)" fill="#fff"/>
    <path id="Trazado_17839" data-name="Trazado 17839" d="M681.5-220.651c.378-2.164.685-4,1.025-5.823.095-.508.078-1.074.93-1.079,1.384-.008,1.434-.006,1.184,1.4-.476,2.684-.92,5.373-1.428,8.051-.089.472.087,1.221-.729,1.286-.758.06-1.453.11-1.92-.81-.94-1.855-2.031-3.633-3.266-5.8-.369,2.057-.737,3.732-.948,5.427-.124.992-.542,1.287-1.49,1.225-.659-.044-.917-.179-.784-.9.546-2.93,1.032-5.872,1.587-8.8.072-.379-.1-1.034.647-1.05.674-.015,1.309-.124,1.723.7.819,1.638,1.756,3.217,2.65,4.817C680.882-221.648,681.105-221.3,681.5-220.651Z" transform="translate(-768.13 -15.78)" fill="#fff"/>
    <path id="Trazado_17840" data-name="Trazado 17840" d="M635.611-228.332c-3.689.68-6.132,6.124-4.195,9.357a3.245,3.245,0,0,0,1.406,1.26,5.5,5.5,0,0,0,6.845-2.019,8.3,8.3,0,0,0,1.147-4.254C640.839-227.257,638.841-228.925,635.611-228.332Zm1.588,8.007a2.248,2.248,0,0,1-2.65,1.021c-1.047-.308-1.173-1.257-1.173-2.173a7.141,7.141,0,0,1,.9-3.538,2.352,2.352,0,0,1,2.861-1.35c1.2.408,1.119,1.455,1.142,2.33A6.657,6.657,0,0,1,637.2-220.325Z" transform="translate(-735.934 -15.115)" fill="#fff"/>
    <path id="Trazado_17841" data-name="Trazado 17841" d="M249.059-227.94a5.437,5.437,0,0,0-6.74,1.965,8.416,8.416,0,0,0-1.242,4.869,3.589,3.589,0,0,0,2.14,3.479,5.453,5.453,0,0,0,6.773-2.224,8.354,8.354,0,0,0,1.075-3.825C251.083-225.662,250.74-227.145,249.059-227.94Zm-1.629,7.656a2.239,2.239,0,0,1-2.658,1c-1.044-.323-1.142-1.273-1.144-2.191a6.879,6.879,0,0,1,.962-3.643,2.312,2.312,0,0,1,2.8-1.221c1.119.4,1.113,1.373,1.126,2.424A6.566,6.566,0,0,1,247.43-220.285Z" transform="translate(-446.239 -15.142)" fill="#fff"/>
    <path id="Trazado_17842" data-name="Trazado 17842" d="M458.057-228.053a5.4,5.4,0,0,0-6.753,2.314,8.626,8.626,0,0,0-1.075,4.295c.015,1.611.464,3.04,2.124,3.766a5.409,5.409,0,0,0,6.853-2.337,8.261,8.261,0,0,0,1-4.051C460.258-225.808,459.822-227.3,458.057-228.053Zm-.387,4.1a6.772,6.772,0,0,1-1.065,3.61,2.252,2.252,0,0,1-2.648,1.031c-1.055-.3-1.188-1.249-1.183-2.165a7.175,7.175,0,0,1,.888-3.538,2.388,2.388,0,0,1,2.856-1.37C457.354-226.134,457.708-225.388,457.669-223.956Z" transform="translate(-601.738 -15.101)" fill="#fff"/>
    <path id="Trazado_17843" data-name="Trazado 17843" d="M172.193-223.233c2.068,0,2.067,0,1.677,2-.09.459-.159.922-.25,1.381-.457,2.3-.458,2.3-2.86,2.594-4.429.538-6.442-1.676-5.484-6.068,1.122-5.147,4.947-5.57,8.711-4.608.478.122.534.367.311.715-.257.4-.022,1.24-.933,1.086-.5-.085-1.005-.181-1.512-.236-1.353-.147-2.609.065-3.334,1.357a5.409,5.409,0,0,0-.614,4.885c.492,1.174,1.659,1.106,2.669.957,1.031-.151.494-1.191.793-1.78.135-.265-.068-.5-.394-.479-.66.044-.994-.055-.872-.9.12-.827.516-.965,1.2-.909C171.594-223.214,171.894-223.234,172.193-223.233Z" transform="translate(-389.719 -15.192)" fill="#fff"/>
    <path id="Trazado_17844" data-name="Trazado 17844" d="M534.423-216.838c-2.936-.024-4.334-1.59-3.931-4.491.258-1.856.648-3.694.91-5.549.2-1.4,1.239-.9,1.96-.865.986.042.448.8.38,1.245-.274,1.811-.63,3.611-.887,5.424-.134.945-.177,1.944,1.084,2.25a2.06,2.06,0,0,0,2.778-1.556c.514-2.107.854-4.257,1.26-6.39a1.526,1.526,0,0,1,2.1-.967c.356.218.182.527.134.8-.374,2.1-.739,4.2-1.147,6.287A4.2,4.2,0,0,1,534.423-216.838Z" transform="translate(-661.359 -15.529)" fill="#fff"/>
    <path id="Trazado_17845" data-name="Trazado 17845" d="M328.919-217.96q-.858-4.572-1.729-9.146c-.056-.292-.067-.557-.446-.68a2.46,2.46,0,0,0-3.022,1.237q-1.1,2.159-2.206,4.318c-.844,1.657-1.686,3.315-2.545,5.005,2.253.367,2.273.377,3.179-1.55.313-.667.634-1.155,1.5-1.047.754.095,1.65-.162,2.25.164s.367,1.311.564,1.988c.328,1.124,1.288.467,1.955.572S329-217.534,328.919-217.96Zm-5.244-3.741a16.7,16.7,0,0,1,1.6-3.328c.136.693.251,1.167.321,1.647C325.882-221.416,325.812-221.357,323.675-221.7Z" transform="translate(-504.155 -15.51)" fill="#fff"/>
    <path id="Trazado_17846" data-name="Trazado 17846" d="M721.67-217.16c-.642-.106-1.482-.237-2.319-.385-.612-.108-1.118-.175-.871-1.117.231-.882.611-.953,1.332-.72a6.64,6.64,0,0,0,3.039.177,1.273,1.273,0,0,0,1.251-1.089c.067-.647-.388-1.007-.908-1.257-.689-.331-1.414-.594-2.091-.948a2.679,2.679,0,0,1-1.6-2.673,2.886,2.886,0,0,1,1.723-2.628,6.844,6.844,0,0,1,4.99-.182c.569.153.652.5.448.953-.185.413-.138,1.083-.971.836a5.852,5.852,0,0,0-2.532-.184c-.566.083-1.126.222-1.271.873-.153.688.34.993.863,1.237.617.288,1.246.55,1.862.841a2.9,2.9,0,0,1,1.877,3.034,3.073,3.073,0,0,1-2.233,2.813A9.555,9.555,0,0,1,721.67-217.16Z" transform="translate(-801.12 -15.181)" fill="#fff"/>
    <path id="Trazado_17847" data-name="Trazado 17847" d="M418.14-228.367c.424.065,1.065.12,1.683.271.484.119,1.211.1.911.989-.213.634-.362,1.168-1.307.848a4.612,4.612,0,0,0-2.657-.043,1.036,1.036,0,0,0-.865.835.936.936,0,0,0,.582,1.035c.724.359,1.47.673,2.2,1.021a2.878,2.878,0,0,1,1.827,3.061,3.017,3.017,0,0,1-2.153,2.735,9.006,9.006,0,0,1-5.409-.027c-.845-.213-.441-.755-.365-1.2.088-.523.282-.841.939-.611a7.122,7.122,0,0,0,3.034.292c.713-.066,1.4-.265,1.55-1.073.144-.781-.477-1.126-1.058-1.413s-1.18-.489-1.754-.768a2.746,2.746,0,0,1-1.761-2.83,2.956,2.956,0,0,1,2.019-2.69A6.175,6.175,0,0,1,418.14-228.367Z" transform="translate(-573.632 -15.175)" fill="#fff"/>
    <path id="Trazado_17848" data-name="Trazado 17848" d="M579.324-227.554c1.2,0,2.391-.023,3.585.016.3.01.927-.267.839.375-.067.485,0,1.171-.7,1.374a2.594,2.594,0,0,1-.637.025c-2.333.062-2.315.065-2.683,2.335-.313,1.932-.7,3.852-1.008,5.785-.231,1.457-1.331.745-2.024.773-.976.038-.4-.732-.336-1.116.354-2.27.708-4.542,1.175-6.79.184-.883-.084-1.06-.855-.99a3.241,3.241,0,0,1-1.146-.015c-.37-.106-1.165.48-1.053-.539.074-.671.07-1.344,1.128-1.256C576.841-227.474,578.086-227.553,579.324-227.554Z" transform="translate(-694.107 -15.755)" fill="#fff"/>
    <path id="Trazado_17849" data-name="Trazado 17849" d="M496.815-217.069h-1.283c-2.292,0-2.286,0-1.887-2.185.467-2.557.962-5.109,1.367-7.676.243-1.544,1.382-.821,2.091-.814.926.009.313.837.263,1.18-.32,2.191-.725,4.371-1.16,6.543-.176.877-.01,1.277.975,1.19a13.7,13.7,0,0,1,2.433.009c.39.036,1.174-.418,1.084.546-.064.681-.175,1.34-1.193,1.226A24.257,24.257,0,0,0,496.815-217.069Z" transform="translate(-633.866 -15.509)" fill="#fff"/>
    <path id="Trazado_17850" data-name="Trazado 17850" d="M368.447-217.057h-.64c-2.934,0-2.932,0-2.418-2.85q.623-3.45,1.239-6.9a1.782,1.782,0,0,1,2.381-.9c.35.276.1.628.052.938-.393,2.3-.737,4.621-1.231,6.9-.208.963.12,1.081.914,1.043.894-.042,1.791-.023,2.686,0,.381.009.937-.172.868.556-.055.583.012,1.245-.909,1.216C370.409-217.08,369.428-217.057,368.447-217.057Z" transform="translate(-538.473 -15.524)" fill="#fff"/>
    <path id="Trazado_17851" data-name="Trazado 17851" d="M210.379-217.025c-.9,0-1.793-.035-2.686.009-.716.035-.9-.277-.788-.919.54-3.055,1.028-6.121,1.627-9.165.242-1.228,1.339-.591,2.026-.607.8-.018.382.669.319,1.054-.374,2.264-.714,4.537-1.2,6.778-.224,1.036.161,1.139,1,1.088s1.706-.035,2.557,0c.39.015,1.036-.267.908.6-.087.59-.027,1.223-.948,1.173S211.318-217.024,210.379-217.025Z" transform="translate(-420.819 -15.555)" fill="#fff"/>
    <path id="Trazado_17852" data-name="Trazado 17852" d="M612-216.986c-1.035.21-1.3-.221-1.122-1.183q.8-4.331,1.524-8.678c.235-1.424,1.311-.775,2.021-.808.945-.045.46.7.393,1.11-.456,2.772-.952,5.537-1.424,8.306C613.252-217.43,613.085-216.686,612-216.986Z" transform="translate(-721.132 -15.618)" fill="#fff"/>
    <path id="Trazado_17853" data-name="Trazado 17853" d="M102.221-235.752c0,3.41.007,6.821-.012,10.231,0,.367.228,1-.438.989s-.416-.638-.416-1q-.026-10.359,0-20.717c0-.366-.226-1,.436-.99s.422.634.424,1C102.229-242.743,102.222-239.247,102.221-235.752Z" transform="translate(-342.337 -1.146)" fill="#fff"/>
    <path id="Trazado_17854" data-name="Trazado 17854" d="M-48-240.743a1.837,1.837,0,0,1,1.7-1.756,1.049,1.049,0,0,1,1.1,1.149,1.908,1.908,0,0,1-1.785,1.832A1.046,1.046,0,0,1-48-240.743Z" transform="translate(-231.335 -4.67)" fill="#fff"/>
    <path id="Trazado_17855" data-name="Trazado 17855" d="M-338.923-135.512a25.256,25.256,0,0,1-5.52.193A32.711,32.711,0,0,1-338.923-135.512Z" transform="translate(-10.947 -84.189)" fill="#fff"/>
    <path id="Trazado_17856" data-name="Trazado 17856" d="M-275.986-135.339H-313.7l-7.953,0h-15.134l-22.381-.368.007-.464h3.77c1.832-.292,3.687.061,5.521-.193q16.144-.286,32.291-.315c19.651-.018,39.3-.013,58.95.309,2.425.04,4.851.005,7.278.279C-259.558-135.5-267.772-135.416-275.986-135.339Z" transform="translate(0 -83.337)" fill="#fff"/>
  </g>
</svg>
