<svg xmlns="http://www.w3.org/2000/svg" width="55" height="55" viewBox="0 0 55 55">
  <g id="Grupo_7027" data-name="Grupo 7027" transform="translate(-3252 7586)">
    <g id="Grupo_7026" data-name="Grupo 7026">
      <g id="Elipse_429" data-name="Elipse 429" transform="translate(3307 -7531) rotate(180)" fill="#31c5f0" stroke="#31c5f0" stroke-width="1">
        <circle cx="27.5" cy="27.5" r="27.5" stroke="none"/>
        <circle cx="27.5" cy="27.5" r="27" fill="none"/>
      </g>
    </g>
    <g id="Grupo_7025" data-name="Grupo 7025" transform="translate(3272.96 -7553) rotate(-90)">
      <g id="Grupo_7024" data-name="Grupo 7024">
        <path id="Trazado_4806" data-name="Trazado 4806" d="M4.642.189.218,4.381A.784.784,0,0,0,.162,5.4a.727.727,0,0,0,1.017,0L4.424,2.321v10.02a.7.7,0,0,0,1.4,0V2.321L9.066,5.392a.712.712,0,0,0,1.017,0,.766.766,0,0,0-.056-1.015L5.6.189a.709.709,0,0,0-.958,0Z" fill="#fff"/>
      </g>
    </g>
  </g>
</svg>
