<svg xmlns="http://www.w3.org/2000/svg" width="55" height="55" viewBox="0 0 55 55">
  <g id="Grupo_7023" data-name="Grupo 7023" transform="translate(-3254 7711)">
    <g id="Elipse_428" data-name="Elipse 428" transform="translate(3254 -7711)" fill="#31c5f0" stroke="#31c5f0" stroke-width="1">
      <circle cx="27.5" cy="27.5" r="27.5" stroke="none"/>
      <circle cx="27.5" cy="27.5" r="27" fill="none"/>
    </g>
    <g id="Grupo_7021" data-name="Grupo 7021" transform="translate(3288.04 -7689) rotate(90)">
      <g id="Grupo_7020" data-name="Grupo 7020">
        <path id="Trazado_4803" data-name="Trazado 4803" d="M4.642.189.218,4.381A.784.784,0,0,0,.162,5.4a.727.727,0,0,0,1.017,0L4.424,2.321v10.02a.7.7,0,0,0,1.4,0V2.321L9.066,5.392a.712.712,0,0,0,1.017,0,.766.766,0,0,0-.056-1.015L5.6.189a.709.709,0,0,0-.958,0Z" fill="#fff"/>
      </g>
    </g>
  </g>
</svg>
