<svg xmlns="http://www.w3.org/2000/svg" width="42.994" height="49.921" viewBox="0 0 42.994 49.921"><defs><style>.a{fill:#31c5f0;}</style></defs><g transform="translate(-11.7 -39.575)"><path class="a" d="M40.082,25.428a1.358,1.358,0,0,1,0,1.967L31.82,35.657a1.354,1.354,0,0,1-1.012.393h0a1.616,1.616,0,0,1-1.012-.393l-3.484-3.484a1.391,1.391,0,0,1,1.967-1.967l2.473,2.473,7.306-7.25A1.423,1.423,0,0,1,40.082,25.428ZM33.225,55.5A21.563,21.563,0,0,1,11.7,33.971v-18.6a1.42,1.42,0,0,1,.843-1.293L32.663,5.7a1.19,1.19,0,0,1,1.068,0l20.12,8.374a1.42,1.42,0,0,1,.843,1.293v18.6A21.479,21.479,0,0,1,33.225,55.5ZM51.94,33.971V16.323L33.225,8.512,14.51,16.323V33.971a18.715,18.715,0,1,0,37.43,0Z" transform="translate(0 34)"/></g></svg>