<svg xmlns="http://www.w3.org/2000/svg" width="22.894" height="22.894" viewBox="0 0 22.894 22.894"><defs><style>.a{fill:#31c5f0;}</style></defs><g transform="translate(-6.424 -6)"><g transform="translate(6.424 6)"><g transform="translate(0)"><path class="a" d="M17.447,6A11.447,11.447,0,1,0,28.894,17.447,11.46,11.46,0,0,0,17.447,6Zm0,21.133a9.686,9.686,0,1,1,9.686-9.686A9.7,9.7,0,0,1,17.447,27.133Z" transform="translate(-6 -6)"/><path class="a" d="M28.672,18.911a.767.767,0,0,0-1.084,0l-3.8,3.8-3.8-3.8A.767.767,0,0,0,18.912,20l3.8,3.8-3.8,3.8A.767.767,0,1,0,20,28.671l3.8-3.8,3.8,3.8a.767.767,0,0,0,1.084-1.084l-3.8-3.8,3.8-3.8A.767.767,0,0,0,28.672,18.911Z" transform="translate(-12.276 -12.275)"/></g></g></g></svg>