<svg id="Grupo_20850" data-name="Grupo 20850" xmlns="http://www.w3.org/2000/svg" width="237.405" height="72.775" viewBox="0 0 237.405 72.775">
  <g id="Grupo_20849" data-name="Grupo 20849" transform="translate(0 0)">
    <g id="Grupo_20846" data-name="Grupo 20846" transform="translate(0 0)">
      <path id="Trazado_13779" data-name="Trazado 13779" d="M965.426,526.549c-.029.627-.568.892-1.146.9-1.616.02-3.223.01-4.829.01-1.479,0-2.949.01-4.428,0-.656,0-1.283-.245-1.3-.96s.578-.97,1.264-.97h9.247C964.917,525.53,965.475,525.8,965.426,526.549Z" transform="translate(-938.283 -504.763)" fill="#fff"/>
      <g id="Grupo_19039" data-name="Grupo 19039" transform="translate(55.01 16.969)">
        <path id="Trazado_13781" data-name="Trazado 13781" d="M939.1,567.266c0,2.575-.441,3.128-2.933,3.686-4.366.979-8.238-1.341-8.711-5.238-.328-2.7.452-4.982,2.851-6.421a7.17,7.17,0,0,1,7.668-.046c.481.275,1.45.514.82,1.448-.506.75-1.043.95-1.981.348a4.511,4.511,0,0,0-5.47.24,4.1,4.1,0,0,0-1.452,4.524,4.616,4.616,0,0,0,6.094,3.041c1.051-.433.69-1.279.869-2.016.2-.8-.818-2.222,1.018-2.286,1.978-.07.969,1.466,1.222,2.319A1.492,1.492,0,0,1,939.1,567.266Z" transform="translate(-927.384 -558.159)" fill="#fff"/>
        <path id="Trazado_13782" data-name="Trazado 13782" d="M977.759,559.075a1.731,1.731,0,0,0-2.929.147c-1.773,3.83-3.478,7.7-5.309,11.765,1.273-.049,2.5.49,2.87-1.058.4-1.7,1.528-1.959,3.017-1.812a15.63,15.63,0,0,0,2.625,0c1-.088,1.715.186,1.969,1.225.372,1.6,1.352,2.028,3.086,1.43C981.315,566.853,979.59,562.934,977.759,559.075Zm-3.341,6.789c-.568-.588.705-2.106,1.117-3.213.186-.5.43-.97.715-1.626A22.371,22.371,0,0,1,978.444,566C976.985,566.3,975.28,566.745,974.418,565.863Z" transform="translate(-928.243 -558.163)" fill="#fff"/>
        <path id="Trazado_13783" data-name="Trazado 13783" d="M952.3,571.137a8.7,8.7,0,0,1-3.989-.78c-.628-.313-1.206-.576-.793-1.5s.893-.733,1.583-.38a6.538,6.538,0,0,0,4.52.517,1.463,1.463,0,0,0,1.274-1.375,1.366,1.366,0,0,0-1.068-1.327c-1.211-.4-2.463-.678-3.677-1.07-1.6-.517-2.782-1.487-2.7-3.323a3.569,3.569,0,0,1,2.945-3.4,8.241,8.241,0,0,1,5.339.338c.655.254,1,.57.669,1.36-.314.739-.687.836-1.4.532a5.465,5.465,0,0,0-3.545-.435c-.813.208-1.59.562-1.624,1.54-.033.909.716,1.24,1.428,1.473.893.292,1.819.483,2.72.752,2.441.731,3.435,1.883,3.234,3.71-.207,1.865-1.656,3.078-3.98,3.318C952.841,571.123,952.437,571.129,952.3,571.137Z" transform="translate(-927.792 -558.159)" fill="#fff"/>
        <path id="Trazado_13784" data-name="Trazado 13784" d="M963.895,571.131a8.474,8.474,0,0,1-3.831-.678c-.627-.3-1.469-.477-1.019-1.575s1.063-.65,1.749-.326a6.733,6.733,0,0,0,4.141.492c.8-.141,1.435-.551,1.491-1.4.052-.782-.551-1.206-1.222-1.417-1.088-.345-2.2-.6-3.3-.932-1.665-.511-2.935-1.42-2.93-3.369,0-1.748,1.258-3.008,3.32-3.513a8.207,8.207,0,0,1,4.945.408c.625.234,1.068.509.716,1.331-.3.7-.621.91-1.372.59a5.313,5.313,0,0,0-3.926-.348,1.607,1.607,0,0,0-1.285,1.387c-.061.823.555,1.212,1.2,1.432,1.016.349,2.074.567,3.1.885,2.337.721,3.2,1.763,3.051,3.627-.145,1.816-1.5,3.046-3.713,3.331C964.477,571.124,963.937,571.128,963.895,571.131Z" transform="translate(-928.027 -558.159)" fill="#fff"/>
        <path id="Trazado_13785" data-name="Trazado 13785" d="M986.914,565.572q0-.806,0-1.614c.185-4.336,0-3.2-3.038-3.51-.728-.074-1.1-.251-1.1-1.057,0-.864.474-.973,1.158-.971q4.235.019,8.47.005c.622,0,1.024.145,1.03.888s-.236,1.087-1.029,1.133c-.98.058-2.261-.5-2.869.314-.664.885-.2,2.207-.23,3.335-.042,1.882-.047,3.766,0,5.647.024.944-.287,1.316-1.268,1.3-.907-.019-1.157-.406-1.135-1.231C986.941,568.4,986.915,566.985,986.914,565.572Z" transform="translate(-928.513 -558.164)" fill="#fff"/>
        <path id="Trazado_13786" data-name="Trazado 13786" d="M944.787,564.7c0,1.674-.032,3.349.013,5.022.026.91-.234,1.322-1.235,1.324-1.06,0-1.183-.534-1.176-1.383.025-3.281.019-6.561,0-9.842,0-.812.042-1.4,1.133-1.425,1.174-.031,1.3.553,1.276,1.485C944.755,561.486,944.788,563.093,944.787,564.7Z" transform="translate(-927.69 -558.163)" fill="#fff"/>
      </g>
      <path id="Trazado_13788" data-name="Trazado 13788" d="M965.426,526.549c-.029.627-.568.892-1.146.9-1.616.02-3.223.01-4.829.01-1.479,0-2.949.01-4.428,0-.656,0-1.283-.245-1.3-.96s.578-.97,1.264-.97h9.247C964.917,525.53,965.475,525.8,965.426,526.549Z" transform="translate(-938.283 -504.763)" fill="#fff"/>
      <g id="Grupo_19904" data-name="Grupo 19904" transform="translate(0 0)">
        <path id="Trazado_13778" data-name="Trazado 13778" d="M953.91,515.858c.006-.968.353-1.314,1.255-1.17,1.085.17,1.341-.405,1.209-1.334-.15-1.059.478-1.144,1.3-1.124.765.02,1.5-.033,1.341,1.085-.144,1,.183,1.556,1.3,1.373,1.033-.176,1.151.419,1.157,1.262s-.183,1.321-1.112,1.177c-1.052-.164-1.516.249-1.353,1.327.164,1.053-.451,1.216-1.307,1.085-1.079.229-1.484-.255-1.328-1.314.138-.915-.327-1.223-1.164-1.1C954.2,517.276,953.9,516.871,953.91,515.858Z" transform="translate(-937.045 -502.244)" fill="#fff"/>
        <path id="Trazado_13780" data-name="Trazado 13780" d="M978.187,525.852c-.627-.167-.431-.921-.46-1.43-.353-7.749-3.82-13.45-10.952-16.781-.607-.284-1.411-.607-1.323-1.362.235-2.214-1.224-1.95-2.586-1.93-1.215.01-2.429,0-3.634,0-1.548,0-3.105.019-4.653-.01-.852-.019-1.577.2-1.47,1.176.147,1.381-.686,1.793-1.724,2.3-6.593,3.174-10.031,8.542-10.59,15.762-.108,1.352-.059,2.508-1.695,2.919-.656.166-.813.823-.8,1.479a16.1,16.1,0,0,0,.088,4.016c.46,1.685,2.6,2.42,2.919,4.34.01.078.627.088.96.1.539.02,1.078.03,1.616,0,1.568-.069,1.421,1.371,1.92,2.214a1.424,1.424,0,0,1-.1,1.959c-2.282,2.557-2.233,2.6.215,5.055a15.918,15.918,0,0,1,1.284,1.293c1.1,1.42,2.145,1.42,3.223-.01.2-.265.5-.461.7-.725.745-1,1.568-.451,2.342-.108.794.363,1.793.382,1.891,1.734.254,3.438.323,3.438,3.752,3.438.8,0,1.616-.029,2.42,0,1.2.039,1.734-.529,1.685-1.714-.029-.608.029-1.215,0-1.812-.068-1.264,1-1.3,1.744-1.6s1.449-.862,2.39-.049c2.567,2.243,2.615,2.194,5.025-.225a12.6,12.6,0,0,1,1.156-1.127c1.558-1.2,1.6-2.321,0-3.517a2.021,2.021,0,0,1-.793-2.88c.617-1.273,1.1-2.184,2.733-1.939,1.469.225,2.772.029,2.478-2.028-.049-.323.01-.784.441-.774,2.341.049,1.842-1.675,1.822-2.988C980.176,528.8,980.94,526.6,978.187,525.852Zm-2.645,8.415c-4.359-.794-4.173,3.135-5.525,5.4-.529.891.5,1.489,1.087,1.92,1.636,1.205.647,1.949-.245,2.978-1,1.136-1.666,1-2.459-.127-.871-1.244-1.92-1.567-3.232-.568a2.98,2.98,0,0,1-1.283.568c-2.018.353-3.076,1.3-2.714,3.556.274,1.744-1.166,1.2-2.057,1.263-.95.069-1.91.186-1.842-1.342.039-.882.5-2.1-.47-2.615a28.969,28.969,0,0,0-5.015-2.038c-.755-.225-1.3.656-1.734,1.215-1.166,1.509-1.852.411-2.684-.353-.852-.784-1.4-1.45-.118-2.341,1.381-.94,1.646-2.047.627-3.556-.7-1.028-.8-2.488-1.578-3.429-.813-1-2.439.039-3.536-.666,0-.2-.01-.392-.019-.6,1.8,0,3.6.108,5.4-.03,1.979-.147,3.2.147,3.967,2.42,1.038,3.1,4.241,4.741,7.611,4.535a7.334,7.334,0,0,0,6.956-5.241,2.052,2.052,0,0,1,2.419-1.695c2.214.108,4.437.029,6.9.029C975.68,534.071,975.591,534.267,975.542,534.267Zm-20.679-.7c1.469.078,2.949.01,4.428.01s2.949.059,4.428-.01c1.4-.078,1.46.529.921,1.538a5.794,5.794,0,0,1-5.319,3.37,5.91,5.91,0,0,1-5.417-3.242C953.306,534.188,953.306,533.483,954.863,533.571Zm23.393-3.243c-.088,1.793-1.371,1.156-2.2,1.156-5.652.059-11.314.029-16.967.029s-11.3.02-16.957-.019c-.754,0-1.9.49-1.92-1.019-.029-1.254-.343-2.6,1.6-2.821,1.538-.176,3.037-.607,4.594-.637.715-.01,1.43-.225,1.352-1.107-.069-.784-.784-.8-1.411-.793-.264.01-.539.019-.8.039-3.174.3-3.272.264-2.792-2.91a16.188,16.188,0,0,1,9.14-12.519c1.009-.509,1.489-.411,1.4.843a18.6,18.6,0,0,0,.029,2.214.9.9,0,0,0,.852.96c.676.039.979-.422.989-1.019.039-1.616.088-3.233.019-4.839-.058-1.313.47-1.754,1.753-1.812,6.25-.274,6.24-.3,6.407,5.8.02.764-.206,1.871.97,1.842,1.156-.019.911-1.117.931-1.891.088-2.939.069-2.929,2.586-1.42,5.025,3.027,7.435,7.582,7.935,13.313.127,1.44-.274,1.92-1.783,1.636-1.068-.206-2.89-.98-3.037.676-.147,1.567,1.753.813,2.753,1.058a16.419,16.419,0,0,0,2.576.431C978.1,527.674,978.325,528.791,978.256,530.329Z" transform="translate(-938.208 -504.33)" fill="#fff"/>
        <path id="Trazado_13790" data-name="Trazado 13790" d="M965.426,526.549c-.029.627-.568.892-1.146.9-1.616.02-3.223.01-4.829.01-1.479,0-2.949.01-4.428,0-.656,0-1.283-.245-1.3-.96s.578-.97,1.264-.97h9.247C964.917,525.53,965.475,525.8,965.426,526.549Z" transform="translate(-938.927 -504.761)" fill="#fff"/>
      </g>
    </g>
    <g id="Grupo_20847" data-name="Grupo 20847" transform="translate(52.911 58.47)">
      <rect id="Rectángulo_5103" data-name="Rectángulo 5103" width="8.174" height="14.305" transform="translate(0 0)" fill="#e01010"/>
      <rect id="Rectángulo_5223" data-name="Rectángulo 5223" width="8.174" height="14.305" transform="translate(8.174 0)" fill="#fff"/>
      <rect id="Rectángulo_5222" data-name="Rectángulo 5222" width="8.174" height="14.305" transform="translate(16.349 0)" fill="#e01010"/>
    </g>
  </g>
  <g id="Grupo_20848" data-name="Grupo 20848" transform="translate(169.395 12.885)">
    <path id="Trazado_17777" data-name="Trazado 17777" d="M-33.005-6.422a8.689,8.689,0,0,0,6.361-2.443,8.328,8.328,0,0,0,2.484-6.2v-8.643H-32.8v5.492h2.989v3.15a3.047,3.047,0,0,1-.888,2.282,3.154,3.154,0,0,1-2.3.868,3.154,3.154,0,0,1-2.3-.868,3.047,3.047,0,0,1-.888-2.282V-26.857a3.047,3.047,0,0,1,.888-2.282,3.154,3.154,0,0,1,2.3-.868,3.154,3.154,0,0,1,2.3.868,3.047,3.047,0,0,1,.888,2.282V-25.4h5.654v-1.454a8.328,8.328,0,0,0-2.484-6.2A8.689,8.689,0,0,0-33.005-35.5a8.689,8.689,0,0,0-6.361,2.443,8.328,8.328,0,0,0-2.484,6.2v11.793a8.328,8.328,0,0,0,2.484,6.2A8.689,8.689,0,0,0-33.005-6.422Zm12.479-.4h5.654V-35.1h-5.654Zm8.885-9.693v1.454a8.328,8.328,0,0,0,2.484,6.2A8.689,8.689,0,0,0-2.8-6.422,8.689,8.689,0,0,0,3.564-8.866a8.328,8.328,0,0,0,2.484-6.2,8.389,8.389,0,0,0-2.544-6.3A6.782,6.782,0,0,0,.535-23.021,29.357,29.357,0,0,0-2.8-23.748a4.75,4.75,0,0,1-2.262-.808,2.675,2.675,0,0,1-.929-2.3A3.047,3.047,0,0,1-5.1-29.139a3.154,3.154,0,0,1,2.3-.868,3.154,3.154,0,0,1,2.3.868,3.047,3.047,0,0,1,.888,2.282V-25.4H6.048v-1.454a8.328,8.328,0,0,0-2.484-6.2A8.689,8.689,0,0,0-2.8-35.5a8.689,8.689,0,0,0-6.361,2.443,8.328,8.328,0,0,0-2.484,6.2,8.388,8.388,0,0,0,2.544,6.3,7.182,7.182,0,0,0,2.948,1.636,28.6,28.6,0,0,0,3.332.767,5.284,5.284,0,0,1,2.282.788,2.675,2.675,0,0,1,.929,2.3,3.047,3.047,0,0,1-.888,2.282,3.154,3.154,0,0,1-2.3.868,3.154,3.154,0,0,1-2.3-.868,3.047,3.047,0,0,1-.888-2.282v-1.454Zm20.112,0v1.454a8.328,8.328,0,0,0,2.484,6.2,8.689,8.689,0,0,0,6.361,2.443,8.689,8.689,0,0,0,6.361-2.443,8.328,8.328,0,0,0,2.484-6.2,8.389,8.389,0,0,0-2.544-6.3,6.782,6.782,0,0,0-2.968-1.656,29.358,29.358,0,0,0-3.332-.727,4.75,4.75,0,0,1-2.262-.808,2.675,2.675,0,0,1-.929-2.3,3.047,3.047,0,0,1,.888-2.282,3.154,3.154,0,0,1,2.3-.868,3.154,3.154,0,0,1,2.3.868,3.047,3.047,0,0,1,.888,2.282V-25.4H26.16v-1.454a8.328,8.328,0,0,0-2.484-6.2A8.689,8.689,0,0,0,17.315-35.5a8.689,8.689,0,0,0-6.361,2.443,8.328,8.328,0,0,0-2.484,6.2,8.388,8.388,0,0,0,2.544,6.3,7.182,7.182,0,0,0,2.948,1.636,28.6,28.6,0,0,0,3.332.767,5.284,5.284,0,0,1,2.282.788,2.675,2.675,0,0,1,.929,2.3,3.047,3.047,0,0,1-.888,2.282,3.154,3.154,0,0,1-2.3.868,3.154,3.154,0,0,1-2.3-.868,3.047,3.047,0,0,1-.888-2.282v-1.454Z" transform="translate(41.85 35.5)" fill="#fff"/>
    <g id="Grupo_17920" data-name="Grupo 17920" transform="translate(21.458 45.584)">
      <rect id="Rectángulo_5103-2" data-name="Rectángulo 5103" width="24.523" height="4.087" transform="translate(0 0)" fill="#e01010"/>
      <rect id="Rectángulo_5223-2" data-name="Rectángulo 5223" width="24.523" height="6.131" transform="translate(0 4.087)" fill="#fcdd09"/>
      <rect id="Rectángulo_5222-2" data-name="Rectángulo 5222" width="24.523" height="4.087" transform="translate(0 10.218)" fill="#e01010"/>
    </g>
  </g>
</svg>
