<svg xmlns="http://www.w3.org/2000/svg" width="120.137" height="132.75" viewBox="0 0 120.137 132.75">
  <g id="Grupo_20910" data-name="Grupo 20910" transform="translate(-671 -4176)">
    <g id="Grupo_20906" data-name="Grupo 20906" transform="translate(10817 17779.006)">
      <g id="Grupo_19039" data-name="Grupo 19039" transform="translate(-10145.433 -13526.021)">
        <path id="Trazado_13781" data-name="Trazado 13781" d="M943.486,570.676c0,3.54-.606,4.3-4.031,5.066-6,1.345-11.322-1.843-11.973-7.2-.45-3.712.622-6.848,3.919-8.825a9.854,9.854,0,0,1,10.539-.063c.661.378,1.993.707,1.127,1.99-.7,1.031-1.432,1.306-2.722.478a6.2,6.2,0,0,0-7.518.33,5.635,5.635,0,0,0-2,6.218,6.344,6.344,0,0,0,8.376,4.179c1.445-.6.948-1.758,1.194-2.771.269-1.1-1.124-3.054,1.4-3.142,2.719-.1,1.332,2.014,1.679,3.187A2.052,2.052,0,0,1,943.486,570.676Z" transform="translate(-927.384 -558.159)" fill="#fff"/>
        <path id="Trazado_13782" data-name="Trazado 13782" d="M980.843,559.352c-.7-1.468-3.312-1.306-4.026.2-2.437,5.264-4.78,10.583-7.3,16.17,1.75-.068,3.433.673,3.945-1.454.552-2.342,2.1-2.693,4.147-2.491a21.46,21.46,0,0,0,3.608,0c1.373-.121,2.356.256,2.706,1.683.512,2.195,1.858,2.787,4.241,1.966C985.73,570.042,983.361,564.657,980.843,559.352Zm-4.591,9.331c-.781-.808.969-2.895,1.535-4.416.255-.687.592-1.333.983-2.235a30.759,30.759,0,0,1,3.016,6.84C979.78,569.288,977.437,569.894,976.252,568.683Z" transform="translate(-912.788 -558.1)" fill="#fff"/>
        <path id="Trazado_13783" data-name="Trazado 13783" d="M954.145,575.982a11.964,11.964,0,0,1-5.483-1.072c-.863-.43-1.658-.791-1.091-2.068.558-1.257,1.228-1.007,2.176-.522a8.986,8.986,0,0,0,6.212.711,2.011,2.011,0,0,0,1.752-1.889,1.878,1.878,0,0,0-1.468-1.824c-1.664-.549-3.385-.932-5.054-1.47-2.2-.711-3.824-2.044-3.706-4.567s1.67-4.005,4.047-4.676a11.324,11.324,0,0,1,7.338.464c.9.349,1.38.784.92,1.869-.431,1.015-.944,1.148-1.921.731a7.512,7.512,0,0,0-4.873-.6c-1.117.286-2.185.772-2.232,2.117-.045,1.249.984,1.7,1.963,2.025,1.228.4,2.5.664,3.739,1.034,3.355,1,4.722,2.588,4.444,5.1-.285,2.564-2.276,4.23-5.47,4.56C954.885,575.963,954.33,575.971,954.145,575.982Z" transform="translate(-920.457 -558.146)" fill="#fff"/>
        <path id="Trazado_13784" data-name="Trazado 13784" d="M965.758,575.973a11.648,11.648,0,0,1-5.266-.932c-.862-.419-2.019-.656-1.4-2.165s1.461-.894,2.4-.448a9.253,9.253,0,0,0,5.691.676c1.093-.194,1.972-.757,2.049-1.926.071-1.075-.757-1.657-1.679-1.948-1.5-.474-3.03-.82-4.532-1.281-2.289-.7-4.034-1.952-4.027-4.63.005-2.4,1.729-4.135,4.563-4.828a11.281,11.281,0,0,1,6.8.561c.859.322,1.468.7.984,1.83-.413.961-.854,1.251-1.885.81a7.3,7.3,0,0,0-5.4-.478,2.208,2.208,0,0,0-1.766,1.906c-.084,1.131.762,1.666,1.644,1.969,1.4.479,2.85.78,4.263,1.216,3.212.991,4.4,2.424,4.194,4.986-.2,2.5-2.068,4.186-5.1,4.578C966.559,575.964,965.816,575.969,965.758,575.973Z" transform="translate(-916.461 -558.145)" fill="#fff"/>
        <path id="Trazado_13785" data-name="Trazado 13785" d="M988.464,568.25q0-1.109,0-2.218c.255-5.959,0-4.4-4.176-4.824-1-.1-1.509-.345-1.512-1.453,0-1.187.652-1.338,1.591-1.334q5.821.026,11.642.007c.855,0,1.407.2,1.417,1.22s-.324,1.495-1.415,1.558c-1.346.079-3.108-.685-3.943.431-.913,1.217-.281,3.033-.315,4.584-.058,2.586-.065,5.175,0,7.762.033,1.3-.395,1.808-1.743,1.78-1.246-.026-1.59-.557-1.56-1.691C988.5,572.132,988.465,570.191,988.464,568.25Z" transform="translate(-908.196 -558.068)" fill="#fff"/>
        <path id="Trazado_13786" data-name="Trazado 13786" d="M945.685,567.061c0,2.3-.045,4.6.018,6.9.035,1.251-.322,1.818-1.7,1.819-1.457,0-1.626-.734-1.617-1.9.034-4.509.027-9.018,0-13.527-.006-1.116.057-1.921,1.557-1.959,1.613-.042,1.79.76,1.755,2.041C945.642,562.643,945.687,564.853,945.685,567.061Z" transform="translate(-922.186 -558.076)" fill="#fff"/>
      </g>
      <g id="Grupo_19904" data-name="Grupo 19904" transform="translate(-10134.884 -13603.006)">
        <path id="Trazado_13778" data-name="Trazado 13778" d="M953.91,517.217c.008-1.33.485-1.806,1.725-1.609,1.491.234,1.842-.557,1.662-1.833-.206-1.456.656-1.573,1.788-1.546,1.052.027,2.058-.045,1.843,1.491-.2,1.375.252,2.139,1.788,1.887,1.42-.242,1.582.576,1.59,1.734,0,1.141-.251,1.815-1.528,1.618-1.446-.225-2.084.342-1.86,1.824.225,1.447-.62,1.671-1.8,1.492-1.483.315-2.04-.35-1.825-1.806.189-1.258-.449-1.681-1.6-1.51C954.314,519.167,953.892,518.61,953.91,517.217Z" transform="translate(-930.731 -498.507)" fill="#fff"/>
        <path id="Trazado_13780" data-name="Trazado 13780" d="M993.157,533.91c-.862-.229-.592-1.266-.633-1.966-.485-10.65-5.25-18.486-15.053-23.064-.835-.391-1.939-.835-1.818-1.871.323-3.043-1.683-2.679-3.554-2.652-1.67.013-3.339,0-5,0-2.127,0-4.268.027-6.4-.014-1.171-.027-2.168.269-2.02,1.616.2,1.9-.942,2.464-2.369,3.164-9.061,4.362-13.787,11.74-14.555,21.663-.148,1.858-.081,3.447-2.329,4.012-.9.229-1.118,1.131-1.1,2.033.027,1.845-.363,3.811.122,5.52.633,2.316,3.568,3.326,4.012,5.964.014.108.862.121,1.319.135.741.027,1.482.041,2.222,0,2.154-.094,1.953,1.885,2.639,3.043a1.957,1.957,0,0,1-.135,2.693c-3.137,3.514-3.07,3.568.3,6.947a21.941,21.941,0,0,1,1.764,1.778c1.508,1.952,2.948,1.952,4.43-.014.269-.364.686-.633.956-1,1.023-1.373,2.154-.619,3.218-.148,1.091.5,2.464.525,2.6,2.383.35,4.726.444,4.726,5.156,4.726,1.1,0,2.222-.041,3.326,0,1.643.054,2.383-.727,2.315-2.356-.04-.835.041-1.67,0-2.491-.094-1.737,1.374-1.79,2.4-2.194s1.992-1.185,3.285-.068c3.528,3.083,3.595,3.016,6.907-.309a17.283,17.283,0,0,1,1.589-1.549c2.141-1.643,2.195-3.19,0-4.833-1.347-1.009-2.006-2.073-1.091-3.958.848-1.75,1.509-3,3.756-2.666,2.019.31,3.81.04,3.406-2.787-.067-.445.014-1.077.606-1.064,3.218.068,2.532-2.3,2.5-4.106C995.89,537.963,996.94,534.934,993.157,533.91Zm-3.635,11.566c-5.991-1.09-5.736,4.308-7.594,7.418-.727,1.225.687,2.047,1.494,2.639,2.249,1.656.889,2.679-.336,4.093-1.373,1.562-2.289,1.373-3.38-.175-1.2-1.71-2.639-2.154-4.443-.781a4.094,4.094,0,0,1-1.764.781c-2.773.484-4.228,1.791-3.729,4.887.377,2.4-1.6,1.656-2.827,1.737-1.306.094-2.626.256-2.531-1.844.054-1.212.687-2.881-.646-3.595a39.822,39.822,0,0,0-6.893-2.8c-1.037-.309-1.791.9-2.383,1.67-1.6,2.073-2.545.565-3.689-.485-1.172-1.077-1.926-1.993-.162-3.218,1.9-1.293,2.262-2.814.862-4.887-.956-1.413-1.1-3.42-2.168-4.713-1.117-1.373-3.352.054-4.86-.915,0-.269-.013-.539-.027-.821,2.477,0,4.954.148,7.419-.041,2.72-.2,4.4.2,5.452,3.326,1.427,4.254,5.83,6.517,10.462,6.234a10.08,10.08,0,0,0,9.56-7.2c.633-1.831,1.454-2.437,3.325-2.329,3.043.148,6.1.04,9.478.04C989.71,545.206,989.589,545.476,989.521,545.476ZM961.1,544.52c2.02.108,4.053.013,6.086.013s4.053.081,6.086-.013c1.925-.107,2.006.727,1.266,2.114a7.964,7.964,0,0,1-7.311,4.632,8.123,8.123,0,0,1-7.446-4.456C958.959,545.368,958.959,544.4,961.1,544.52Zm32.152-4.457c-.121,2.464-1.885,1.589-3.03,1.589-7.768.081-15.55.04-23.319.04s-15.537.027-23.306-.027c-1.037,0-2.612.673-2.639-1.4-.04-1.723-.471-3.568,2.195-3.878,2.114-.242,4.174-.835,6.315-.875.983-.013,1.966-.31,1.858-1.521-.094-1.077-1.077-1.1-1.939-1.09-.363.013-.74.027-1.1.054-4.362.417-4.5.363-3.837-4,1.185-7.89,5.507-13.558,12.562-17.207,1.387-.7,2.047-.566,1.926,1.158a25.487,25.487,0,0,0,.04,3.043,1.234,1.234,0,0,0,1.172,1.32c.929.053,1.346-.579,1.36-1.4.053-2.221.121-4.443.027-6.651-.081-1.8.646-2.41,2.41-2.491,8.59-.377,8.576-.417,8.805,7.971.027,1.05-.283,2.572,1.333,2.531,1.589-.027,1.252-1.535,1.279-2.6.121-4.039.094-4.026,3.554-1.952,6.907,4.161,10.219,10.421,10.906,18.3.175,1.98-.377,2.639-2.45,2.248-1.468-.283-3.972-1.346-4.174.929-.2,2.154,2.41,1.117,3.783,1.454a22.577,22.577,0,0,0,3.541.592C993.036,536.414,993.346,537.949,993.251,540.063Z" transform="translate(-938.208 -504.33)" fill="#fff"/>
        <path id="Trazado_13790" data-name="Trazado 13790" d="M969.809,526.93c-.04.861-.78,1.225-1.575,1.239-2.221.027-4.43.013-6.638.013-2.033,0-4.052.014-6.086,0-.9,0-1.763-.337-1.79-1.32s.794-1.333,1.737-1.333h12.71C969.109,525.53,969.876,525.907,969.809,526.93Z" transform="translate(-933.388 -496.984)" fill="#fff"/>
      </g>
      <g id="Grupo_20851" data-name="Grupo 20851" transform="translate(-10146 -13500.56)">
        <text id="Powered_by" data-name="Powered by" transform="translate(0 7.001)" fill="#fff" font-size="7" font-family="DMSans-Bold, DM Sans" font-weight="700"><tspan x="0" y="0">Powered by</tspan></text>
        <text id="spain" transform="translate(107.137 26.303)" fill="#fff" font-size="11" font-family="FabfeltScript-Bold, FabfeltScript" font-weight="700"><tspan x="-11.556" y="0">Spain</tspan></text>
        <path id="Trazado_17876" data-name="Trazado 17876" d="M-36.9-19.241a4.859,4.859,0,0,0,3.557-1.366,4.656,4.656,0,0,0,1.389-3.466v-4.832h-4.832v3.071h1.671v1.761a1.7,1.7,0,0,1-.5,1.276,1.764,1.764,0,0,1-1.287.486,1.764,1.764,0,0,1-1.287-.486,1.7,1.7,0,0,1-.5-1.276v-6.594a1.7,1.7,0,0,1,.5-1.276,1.764,1.764,0,0,1,1.287-.485,1.764,1.764,0,0,1,1.287.485,1.7,1.7,0,0,1,.5,1.276v.813h3.161v-.813a4.656,4.656,0,0,0-1.389-3.466A4.859,4.859,0,0,0-36.9-35.5a4.859,4.859,0,0,0-3.557,1.366,4.657,4.657,0,0,0-1.389,3.466v6.594a4.656,4.656,0,0,0,1.389,3.466A4.859,4.859,0,0,0-36.9-19.241Zm6.978-.226h3.161V-35.274h-3.161Zm4.968-5.42v.813a4.656,4.656,0,0,0,1.389,3.466,4.859,4.859,0,0,0,3.557,1.366,4.859,4.859,0,0,0,3.557-1.366,4.656,4.656,0,0,0,1.389-3.466A4.69,4.69,0,0,0-16.491-27.6a3.792,3.792,0,0,0-1.66-.926,16.416,16.416,0,0,0-1.863-.406,2.656,2.656,0,0,1-1.265-.452,1.5,1.5,0,0,1-.519-1.287,1.7,1.7,0,0,1,.5-1.276,1.764,1.764,0,0,1,1.287-.485,1.764,1.764,0,0,1,1.287.485,1.7,1.7,0,0,1,.5,1.276v.813h3.161v-.813a4.656,4.656,0,0,0-1.389-3.466A4.859,4.859,0,0,0-20.013-35.5a4.859,4.859,0,0,0-3.557,1.366,4.656,4.656,0,0,0-1.389,3.466,4.69,4.69,0,0,0,1.423,3.523,4.016,4.016,0,0,0,1.648.915,15.989,15.989,0,0,0,1.863.429,2.955,2.955,0,0,1,1.276.44,1.5,1.5,0,0,1,.519,1.287,1.7,1.7,0,0,1-.5,1.276,1.764,1.764,0,0,1-1.287.486A1.764,1.764,0,0,1-21.3-22.8a1.7,1.7,0,0,1-.5-1.276v-.813Zm11.246,0v.813a4.656,4.656,0,0,0,1.389,3.466,4.859,4.859,0,0,0,3.557,1.366,4.859,4.859,0,0,0,3.557-1.366,4.656,4.656,0,0,0,1.389-3.466A4.69,4.69,0,0,0-5.245-27.6a3.792,3.792,0,0,0-1.66-.926,16.416,16.416,0,0,0-1.863-.406,2.656,2.656,0,0,1-1.265-.452,1.5,1.5,0,0,1-.519-1.287,1.7,1.7,0,0,1,.5-1.276,1.764,1.764,0,0,1,1.287-.485,1.764,1.764,0,0,1,1.287.485,1.7,1.7,0,0,1,.5,1.276v.813h3.161v-.813a4.656,4.656,0,0,0-1.389-3.466A4.859,4.859,0,0,0-8.768-35.5a4.859,4.859,0,0,0-3.557,1.366,4.656,4.656,0,0,0-1.389,3.466,4.69,4.69,0,0,0,1.423,3.523,4.016,4.016,0,0,0,1.648.915,15.99,15.99,0,0,0,1.863.429,2.955,2.955,0,0,1,1.276.44,1.5,1.5,0,0,1,.519,1.287,1.7,1.7,0,0,1-.5,1.276,1.764,1.764,0,0,1-1.287.486,1.764,1.764,0,0,1-1.287-.486,1.7,1.7,0,0,1-.5-1.276v-.813Z" transform="translate(99.021 35.5)" fill="#fff"/>
      </g>
    </g>
  </g>
</svg>
