<svg xmlns="http://www.w3.org/2000/svg" width="142.53" height="55.802" viewBox="0 0 142.53 55.802"><defs><style>.a{fill:#fff;}</style></defs><g transform="translate(-938.384 -504.33)"><path class="a" d="M967.632,526.741c-.035.745-.675,1.059-1.362,1.071-1.921.023-3.83.012-5.739.012-1.758,0-3.5.012-5.262,0-.78,0-1.525-.291-1.548-1.141s.687-1.152,1.5-1.152h10.99C967.027,525.53,967.69,525.856,967.632,526.741Z" transform="translate(3.01 3.481)"/><g transform="translate(1003.761 524.497)"><path class="a" d="M941.307,568.983c0,3.061-.524,3.717-3.486,4.381-5.189,1.163-9.79-1.594-10.353-6.225-.389-3.21.537-5.921,3.389-7.631a8.521,8.521,0,0,1,9.113-.055c.572.327,1.723.611.975,1.721-.6.892-1.239,1.129-2.354.413a5.361,5.361,0,0,0-6.5.285,4.872,4.872,0,0,0-1.725,5.377,5.485,5.485,0,0,0,7.242,3.614c1.249-.515.82-1.52,1.033-2.4.233-.954-.972-2.64,1.21-2.717,2.351-.083,1.151,1.742,1.452,2.756A1.774,1.774,0,0,1,941.307,568.983Z" transform="translate(-927.384 -558.159)"/><path class="a" d="M979.311,559.214c-.606-1.269-2.864-1.129-3.481.175-2.107,4.552-4.133,9.151-6.31,13.982,1.513-.058,2.969.582,3.411-1.258.478-2.026,1.816-2.328,3.586-2.154a18.581,18.581,0,0,0,3.12,0c1.188-.1,2.037.221,2.34,1.455.443,1.9,1.606,2.41,3.667,1.7C983.537,568.458,981.488,563.8,979.311,559.214Zm-3.97,8.068c-.675-.7.838-2.5,1.328-3.819.221-.594.512-1.153.85-1.933a26.6,26.6,0,0,1,2.608,5.914C978.391,567.806,976.365,568.33,975.341,567.282Z" transform="translate(-920.465 -558.131)"/><path class="a" d="M953.23,573.575a10.344,10.344,0,0,1-4.741-.927c-.746-.372-1.433-.684-.943-1.788.482-1.087,1.062-.871,1.881-.452a7.77,7.77,0,0,0,5.372.615,1.738,1.738,0,0,0,1.515-1.634,1.624,1.624,0,0,0-1.269-1.577c-1.439-.475-2.927-.805-4.37-1.271-1.9-.615-3.307-1.767-3.2-3.949s1.444-3.463,3.5-4.043a9.793,9.793,0,0,1,6.345.4c.778.3,1.193.678.8,1.616-.373.878-.816.993-1.661.632a6.5,6.5,0,0,0-4.213-.517c-.966.247-1.889.667-1.93,1.83-.039,1.08.851,1.474,1.7,1.751,1.062.347,2.162.574,3.233.894,2.9.869,4.083,2.238,3.843,4.409-.247,2.217-1.969,3.658-4.73,3.943C953.87,573.559,953.389,573.566,953.23,573.575Z" transform="translate(-924.1 -558.152)"/><path class="a" d="M964.832,573.568a10.073,10.073,0,0,1-4.553-.806c-.745-.362-1.746-.567-1.211-1.872s1.263-.773,2.078-.388a8,8,0,0,0,4.921.585c.945-.168,1.706-.654,1.772-1.665.062-.93-.654-1.433-1.452-1.684-1.293-.41-2.62-.709-3.919-1.107-1.979-.608-3.488-1.688-3.482-4,0-2.077,1.495-3.575,3.945-4.175a9.753,9.753,0,0,1,5.877.485c.743.278,1.27.605.851,1.582-.357.831-.738,1.081-1.63.7a6.314,6.314,0,0,0-4.666-.413,1.91,1.91,0,0,0-1.527,1.648c-.072.978.659,1.44,1.421,1.7,1.207.414,2.465.674,3.686,1.051,2.778.857,3.8,2.1,3.626,4.311-.172,2.158-1.788,3.62-4.413,3.958C965.525,573.56,964.882,573.564,964.832,573.568Z" transform="translate(-922.206 -558.152)"/><path class="a" d="M987.694,566.92q0-.959,0-1.918c.221-5.153,0-3.806-3.611-4.171-.865-.088-1.3-.3-1.308-1.257,0-1.027.564-1.157,1.376-1.154q5.033.023,10.067.006c.74,0,1.217.172,1.225,1.055s-.28,1.292-1.224,1.347c-1.164.069-2.687-.592-3.41.373-.79,1.052-.243,2.623-.273,3.964-.05,2.236-.056,4.475,0,6.712.029,1.121-.341,1.563-1.507,1.539-1.078-.022-1.375-.482-1.349-1.463C987.727,570.277,987.7,568.6,987.694,566.92Z" transform="translate(-918.288 -558.116)"/><path class="a" d="M945.239,565.888c0,1.99-.038,3.979.015,5.968.03,1.082-.278,1.572-1.468,1.573-1.26,0-1.406-.635-1.4-1.644.029-3.9.023-7.8,0-11.7-.005-.965.05-1.661,1.347-1.694,1.4-.036,1.548.657,1.517,1.765C945.2,562.068,945.24,563.979,945.239,565.888Z" transform="translate(-924.92 -558.119)"/></g><path class="a" d="M967.632,526.741c-.035.745-.675,1.059-1.362,1.071-1.921.023-3.83.012-5.739.012-1.758,0-3.5.012-5.262,0-.78,0-1.525-.291-1.548-1.141s.687-1.152,1.5-1.152h10.99C967.027,525.53,967.69,525.856,967.632,526.741Z" transform="translate(3.01 3.481)"/><g transform="translate(938.384 504.33)"><path class="a" d="M953.91,516.542c.007-1.15.419-1.562,1.492-1.391,1.29.2,1.593-.482,1.437-1.585-.178-1.259.567-1.36,1.546-1.336.909.023,1.78-.039,1.593,1.29-.171,1.189.218,1.85,1.546,1.632,1.228-.21,1.368.5,1.375,1.5,0,.987-.217,1.57-1.321,1.4-1.251-.194-1.8.3-1.608,1.577.194,1.251-.536,1.445-1.554,1.29-1.282.272-1.764-.3-1.578-1.562.163-1.088-.389-1.453-1.383-1.305C954.259,518.228,953.894,517.746,953.91,516.542Z" transform="translate(-933.867 -500.363)"/><path class="a" d="M985.721,529.907c-.745-.2-.512-1.094-.547-1.7-.419-9.209-4.54-15.984-13.016-19.943-.722-.338-1.676-.722-1.572-1.618.279-2.631-1.455-2.317-3.073-2.293-1.444.011-2.887,0-4.319,0-1.839,0-3.69.023-5.53-.012-1.013-.023-1.874.233-1.746,1.4.175,1.642-.815,2.13-2.049,2.736-7.835,3.772-11.922,10.152-12.585,18.732-.128,1.607-.07,2.98-2.014,3.47-.78.2-.966.978-.955,1.758.023,1.595-.314,3.295.105,4.773.547,2,3.085,2.876,3.469,5.157.012.093.745.1,1.141.116.641.023,1.281.035,1.921,0,1.863-.082,1.688,1.63,2.282,2.631a1.692,1.692,0,0,1-.117,2.328c-2.713,3.039-2.654,3.085.256,6.007a18.963,18.963,0,0,1,1.526,1.537c1.3,1.688,2.549,1.688,3.83-.012.233-.315.594-.547.826-.862.885-1.188,1.863-.536,2.783-.128.943.431,2.13.454,2.247,2.061.3,4.086.384,4.086,4.459,4.086.955,0,1.921-.035,2.875,0,1.42.046,2.061-.629,2-2.037-.035-.722.035-1.444,0-2.154-.081-1.5,1.188-1.548,2.073-1.9s1.723-1.025,2.84-.058c3.05,2.666,3.108,2.608,5.972-.268a14.991,14.991,0,0,1,1.374-1.339c1.851-1.42,1.9-2.759,0-4.179-1.164-.873-1.735-1.793-.943-3.423.734-1.513,1.3-2.6,3.248-2.3,1.746.268,3.295.035,2.945-2.41-.058-.384.012-.932.524-.92,2.783.059,2.189-1.991,2.165-3.551C988.084,533.411,988.993,530.792,985.721,529.907Zm-3.143,10c-5.181-.943-4.959,3.725-6.566,6.414-.629,1.059.594,1.77,1.292,2.282,1.944,1.432.768,2.317-.291,3.539-1.187,1.35-1.979,1.187-2.922-.151-1.036-1.479-2.282-1.863-3.842-.675a3.541,3.541,0,0,1-1.525.675c-2.4.419-3.656,1.548-3.225,4.226.326,2.072-1.385,1.432-2.445,1.5-1.129.081-2.27.221-2.189-1.595.047-1.048.594-2.491-.559-3.108a34.426,34.426,0,0,0-5.96-2.421c-.9-.268-1.549.78-2.061,1.444-1.385,1.793-2.2.489-3.19-.419-1.013-.932-1.665-1.723-.14-2.782,1.641-1.118,1.956-2.433.745-4.226-.827-1.222-.955-2.957-1.875-4.075-.966-1.187-2.9.047-4.2-.792,0-.233-.011-.466-.023-.71,2.142,0,4.284.128,6.415-.035,2.352-.174,3.807.175,4.715,2.876,1.234,3.679,5.041,5.635,9.046,5.39a8.716,8.716,0,0,0,8.266-6.228c.547-1.584,1.257-2.107,2.875-2.014,2.631.128,5.274.035,8.2.035C982.741,539.675,982.636,539.908,982.578,539.908ZM958,539.081c1.746.093,3.5.012,5.262.012s3.5.07,5.262-.012c1.665-.093,1.735.629,1.094,1.828a6.886,6.886,0,0,1-6.321,4,7.024,7.024,0,0,1-6.438-3.853C956.151,539.815,956.151,538.976,958,539.081Zm27.8-3.854c-.1,2.131-1.63,1.374-2.62,1.374-6.717.07-13.446.035-20.164.035s-13.435.023-20.152-.023c-.9,0-2.259.582-2.282-1.211-.035-1.49-.407-3.085,1.9-3.353,1.828-.21,3.609-.722,5.46-.757.85-.011,1.7-.268,1.607-1.315-.082-.931-.931-.954-1.677-.943-.314.011-.64.023-.955.047-3.772.361-3.889.314-3.318-3.458,1.025-6.822,4.761-11.724,10.862-14.878,1.2-.606,1.77-.489,1.665,1a22.055,22.055,0,0,0,.035,2.631,1.067,1.067,0,0,0,1.013,1.141c.8.046,1.164-.5,1.176-1.211.046-1.921.1-3.842.023-5.751-.07-1.56.559-2.084,2.084-2.154,7.427-.326,7.416-.361,7.614,6.892.024.908-.245,2.224,1.153,2.189,1.374-.023,1.083-1.327,1.106-2.247.1-3.492.081-3.481,3.073-1.688,5.972,3.6,8.836,9.011,9.43,15.822.151,1.712-.326,2.282-2.119,1.944-1.269-.244-3.435-1.164-3.609.8-.175,1.863,2.084.966,3.271,1.257a19.519,19.519,0,0,0,3.062.512C985.616,532.073,985.884,533.4,985.8,535.228Z" transform="translate(-938.208 -504.33)"/><path class="a" d="M967.632,526.741c-.035.745-.675,1.059-1.362,1.071-1.921.023-3.83.012-5.739.012-1.758,0-3.5.012-5.262,0-.78,0-1.525-.291-1.548-1.141s.687-1.152,1.5-1.152h10.99C967.027,525.53,967.69,525.856,967.632,526.741Z" transform="translate(-936.139 -500.847)"/></g></g></svg>