<svg id="e5xNHkmMwg91" xmlns="http://www.w3.org/2000/svg" xmlns:xlink="http://www.w3.org/1999/xlink" viewBox="0 0 43.880000 47.700000" shape-rendering="geometricPrecision" text-rendering="geometricPrecision"><style><![CDATA[#e5xNHkmMwg95_tr {animation: e5xNHkmMwg95_tr__tr 3000ms linear infinite normal forwards}@keyframes e5xNHkmMwg95_tr__tr { 0% {transform: translate(22.227212px,29.105001px) rotate(2880deg)} 50% {transform: translate(22.227212px,29.105001px) rotate(3240deg)} 100% {transform: translate(22.227212px,29.105001px) rotate(3600deg)}}]]></style><g id="e5xNHkmMwg92"><g id="e5xNHkmMwg93"><g id="e5xNHkmMwg94"><g id="e5xNHkmMwg95_tr" transform="translate(22.227212,29.105001) rotate(2880)"><path id="e5xNHkmMwg95" d="M25.680000,47.700000L19.840000,47.700000C18.245047,47.658006,16.961994,46.374953,16.920000,44.780000L16.920000,43.540000C15.602126,43.124247,14.352209,42.517818,13.210000,41.740000L11.860000,42.530000C10.439456,43.287667,8.674122,42.788960,7.860000,41.400000L4.940000,36.400000C4.103795,34.974647,4.577742,33.141457,6,32.300000L6.680000,31.850000C6.543015,30.956159,6.466176,30.054132,6.450000,29.150000C6.436503,28.587840,6.473317,28.025600,6.560000,27.470000L5.440000,26.790000C4.766294,26.405084,4.284108,25.756127,4.110000,25C3.877944,24.240396,4.002995,23.416532,4.450000,22.760000L7.370000,17.700000C8.189448,16.285677,9.990315,15.787660,11.420000,16.580000L12.320000,17.140000C13.411793,16.258619,14.624077,15.537984,15.920000,15L15.920000,13.430000C15.961994,11.835047,17.245047,10.551994,18.840000,10.510000L24.670000,10.510000C26.264953,10.551994,27.548006,11.835047,27.590000,13.430000L27.590000,15C28.720196,15.447274,29.780865,16.053370,30.740000,16.800000L32.650000,15.680000C34.067979,14.920618,35.832534,15.414693,36.650000,16.800000L39.580000,21.860000C39.943452,22.546960,40.089904,23.328035,40,24.100000C39.837122,24.869570,39.343181,25.528158,38.650000,25.900000L36.740000,26.900000C36.839787,27.645614,36.879915,28.398002,36.860000,29.150000L36.860000,30.150000L38.990000,31.390000C39.671881,31.774852,40.161469,32.427635,40.340000,33.190000C40.578744,33.958925,40.453551,34.794767,40,35.460000L37.080000,40.460000C36.262534,41.845307,34.497979,42.339382,33.080000,41.580000L31.500000,40.680000C30.601711,41.450111,29.622671,42.120687,28.580000,42.680000L28.580000,44.810000C28.590678,45.548101,28.306305,46.259933,27.789997,46.787506C27.273689,47.315079,26.568159,47.614747,25.830000,47.620000ZM13.210000,39.390000C13.541589,39.378210,13.864626,39.496657,14.110000,39.720000C15.300944,40.583159,16.634669,41.229711,18.050000,41.630000C18.703075,41.818446,19.157177,42.410401,19.170000,43.090000L19.170000,44.780000C19.189852,45.141489,19.478511,45.430148,19.840000,45.450000L25.680000,45.450000C26.043423,45.430624,26.335243,45.143096,26.360000,44.780000L26.360000,42.190000C26.380669,41.578410,26.722897,41.023240,27.260000,40.730000C28.413001,40.191012,29.472914,39.472027,30.400000,38.600000C30.881887,38.131155,31.615705,38.037390,32.200000,38.370000L34.200000,39.500000C34.454968,39.695496,34.819488,39.651042,35.020000,39.400000C35.052375,39.360449,35.079282,39.316724,35.100000,39.270000L38.020000,34.220000C38.120845,34.048198,38.159674,33.846990,38.130000,33.650000C38.130000,33.430000,38.020000,33.320000,37.790000,33.200000L37.790000,33.200000L35.320000,31.740000C34.807200,31.437711,34.506203,30.874306,34.540000,30.280000C34.540000,29.830000,34.650000,29.500000,34.650000,29.050000C34.628356,28.258939,34.551503,27.470354,34.420000,26.690000C34.296400,26.048010,34.620799,25.403319,35.210000,25.120000L37.340000,23.880000C37.480948,23.753013,37.596349,23.600278,37.680000,23.430000C37.790000,23.210000,37.680000,23.090000,37.570000,22.870000L34.570000,18.040000C34.418070,17.739459,34.054016,17.615148,33.750000,17.760000L33.670000,17.760000L31.310000,19C30.774657,19.301534,30.111739,19.258385,29.620000,18.890000C28.604004,18.085271,27.466454,17.447298,26.250000,17C25.655112,16.756581,25.262009,16.182651,25.250000,15.540000L25.250000,13.430000C25.230148,13.068511,24.941489,12.779852,24.580000,12.760000L18.720000,12.760000C18.360474,12.784209,18.074209,13.070474,18.050000,13.430000L18.050000,15.680000C18.040625,16.323490,17.646622,16.898734,17.050000,17.140000C15.692350,17.669460,14.437015,18.430782,13.340000,19.390000C12.828903,19.817074,12.099298,19.861661,11.540000,19.500000L10.190000,18.710000C9.935032,18.514504,9.570512,18.558958,9.370000,18.810000C9.337625,18.849551,9.310718,18.893276,9.290000,18.940000L6.360000,24C6.259891,24.168411,6.221033,24.366235,6.250000,24.560000C6.250000,24.790000,6.360000,24.900000,6.590000,25.010000L8.050000,25.910000C8.622190,26.214644,8.936096,26.850505,8.830000,27.490000C8.738347,28.045040,8.701503,28.607748,8.720000,29.170000C8.721160,30.123451,8.835289,31.073407,9.060000,32C9.217749,32.678092,8.891441,33.376145,8.270000,33.690000L7.150000,34.360000C6.850770,34.507916,6.725997,34.868868,6.870000,35.170000L6.870000,35.260000L9.800000,40.320000C9.870848,40.463938,9.996389,40.573509,10.148586,40.624241C10.300783,40.674974,10.466958,40.662642,10.610000,40.590000L10.700000,40.540000L12.380000,39.540000C12.600000,39.540000,12.940000,39.420000,13.160000,39.420000ZM22.210000,37.140000C17.791722,37.140000,14.210000,33.558278,14.210000,29.140000C14.210000,24.721722,17.791722,21.140000,22.210000,21.140000C26.628278,21.140000,30.210000,24.721722,30.210000,29.140000C30.210000,33.558278,26.628278,37.140000,22.210000,37.140000ZM22.210000,23.430000C19.045408,23.430000,16.480000,25.995408,16.480000,29.160000C16.480000,32.324592,19.045408,34.890000,22.210000,34.890000C25.374592,34.890000,27.940000,32.324592,27.940000,29.160000C27.934496,25.997691,25.372309,23.435504,22.210000,23.430000Z" transform="translate(-22.227212,-29.105001)" fill="rgb(255,255,255)" stroke="none" stroke-width="1"/></g><g id="e5xNHkmMwg96"><path id="e5xNHkmMwg97" d="M25.890000,13.150000C25.890000,14.020000,25.700000,14.520000,24.730000,14.370000C23.760000,14.220000,23.150000,14.630000,23.320000,15.760000C23.490000,16.890000,22.850000,17,22,16.890000C20.870000,17.130000,20.450000,16.620000,20.610000,15.520000C20.770000,14.420000,20.270000,14.240000,19.400000,14.370000C18.350000,14.530000,18.030000,14.110000,18.040000,13.050000C18.050000,11.990000,18.410000,11.680000,19.350000,11.830000C20.480000,12.010000,20.750000,11.410000,20.610000,10.440000C20.470000,9.470000,21.110000,9.240000,21.970000,9.270000C22.830000,9.300000,23.530000,9.270000,23.370000,10.400000C23.210000,11.530000,23.560000,12.020000,24.730000,11.830000C25.900000,11.640000,25.890000,12.270000,25.890000,13.150000Z" fill="rgb(255,255,255)" stroke="none" stroke-width="1"/><path id="e5xNHkmMwg98" d="M17.380000,30.500000C18.910000,30.580000,20.450000,30.500000,22,30.500000C23.550000,30.500000,25,30.560000,26.450000,30.500000ZM32.150000,30.430000L32.220000,30.430000C34.530000,30.540000,36.850000,30.430000,39.420000,30.430000ZM41.710000,22.430000C41.050000,22.260000,41.260000,21.430000,41.230000,20.940000C40.860000,12.860000,37.230000,6.940000,29.800000,3.440000C29.170000,3.140000,28.330000,2.810000,28.420000,2.020000C28.670000,-0.290000,27.150000,0.020000,25.720000,0.020000L21.930000,0.020000C20.320000,0.020000,18.690000,0.020000,17.080000,0.020000C16.190000,0.020000,15.430000,0.220000,15.550000,1.240000C15.700000,2.690000,14.830000,3.110000,13.750000,3.640000C6.870000,7,3.280000,12.540000,2.700000,20.080000C2.590000,21.490000,2.640000,22.690000,0.930000,23.080000C0.250000,23.250000,0.080000,23.940000,0.090000,24.620000C-0.056781,26.015164,-0.023170,27.423427,0.190000,28.810000C0.590000,30.020000,0.620000,30.120000,1.500000,30.390000L25.070000,30.460000L26.450000,30.460000C26.506215,30.470115,26.563785,30.470115,26.620000,30.460000L41.900000,30.510000C44.350000,30.570000,43.830000,28.770000,43.800000,27.400000C43.780000,25.520000,44.580000,23.220000,41.710000,22.440000ZM41.780000,27.100000C41.690000,28.970000,40.350000,28.310000,39.480000,28.310000C33.580000,28.370000,27.680000,28.310000,21.780000,28.310000C15.880000,28.310000,9.990000,28.310000,4.090000,28.310000C3.300000,28.310000,2.090000,28.820000,2.090000,27.250000C2.090000,25.940000,1.730000,24.540000,3.760000,24.300000C5.360000,24.120000,6.920000,23.670000,8.550000,23.640000C9.290000,23.640000,10.040000,23.410000,9.960000,22.490000C9.880000,21.570000,9.140000,21.650000,8.490000,21.660000L7.650000,21.660000C4.340000,21.980000,4.240000,21.930000,4.740000,18.660000C5.496109,12.977001,9.085020,8.066256,14.270000,5.620000C15.320000,5.090000,15.820000,5.200000,15.730000,6.500000C15.690002,7.269481,15.690002,8.040519,15.730000,8.810000C15.710773,9.058434,15.792044,9.304193,15.955595,9.492182C16.119146,9.680172,16.351295,9.794667,16.600000,9.810000L16.600000,9.810000C17.310000,9.810000,17.600000,9.370000,17.600000,8.750000C17.650000,7.060000,17.700000,5.380000,17.600000,3.750000C17.540000,2.380000,18.090000,1.920000,19.430000,1.860000C25.950000,1.570000,25.940000,1.540000,26.120000,7.910000C26.120000,8.710000,25.900000,9.910000,27.120000,9.830000C28.340000,9.750000,28.070000,8.670000,28.120000,7.830000C28.210000,4.760000,28.190000,4.770000,30.820000,6.350000C36.060000,9.500000,38.580000,14.260000,39.100000,20.230000C39.230000,21.730000,38.810000,22.230000,37.240000,21.940000C36.120000,21.730000,34.240000,20.940000,34.070000,22.640000C33.900000,24.340000,35.900000,23.490000,36.940000,23.740000C37.821449,23.969937,38.721706,24.120538,39.630000,24.190000C41.540000,24.360000,41.770000,25.530000,41.700000,27.130000Z" fill="rgb(255,255,255)" stroke="none" stroke-width="1"/><path id="e5xNHkmMwg99" d="M39.710000,24.170000C38.794981,24.101726,37.887979,23.951116,37,23.720000C36,23.470000,34,24.260000,34.130000,22.620000C34.260000,20.980000,36.180000,21.710000,37.300000,21.920000C38.870000,22.210000,39.300000,21.710000,39.160000,20.210000C38.640000,14.210000,36.160000,9.480000,30.880000,6.330000C28.250000,4.750000,28.270000,4.740000,28.180000,7.810000C28.180000,8.620000,28.410000,9.810000,27.180000,9.810000C25.950000,9.810000,26.180000,8.690000,26.180000,7.890000C26,1.520000,26.010000,1.550000,19.490000,1.840000C18.150000,1.900000,17.600000,2.360000,17.660000,3.730000C17.740000,5.410000,17.660000,7.090000,17.660000,8.780000C17.660000,9.400000,17.340000,9.880000,16.660000,9.840000L16.660000,9.840000C16.411295,9.824667,16.179146,9.710172,16.015595,9.522182C15.852044,9.334193,15.770773,9.088434,15.790000,8.840000C15.750002,8.070519,15.750002,7.299481,15.790000,6.530000C15.880000,5.230000,15.380000,5.120000,14.330000,5.650000C9.124540,8.078709,5.511427,12.987870,4.740000,18.680000C4.240000,21.990000,4.340000,22.040000,7.650000,21.680000L8.490000,21.680000C9.140000,21.680000,9.890000,21.680000,9.960000,22.510000C10.030000,23.340000,9.290000,23.650000,8.550000,23.660000C6.920000,23.660000,5.360000,24.140000,3.760000,24.320000C1.760000,24.560000,2.060000,25.960000,2.090000,27.270000C2.090000,28.840000,3.300000,28.330000,4.090000,28.330000C9.990000,28.330000,15.880000,28.330000,21.780000,28.330000C27.680000,28.330000,33.580000,28.330000,39.480000,28.330000C40.350000,28.330000,41.690000,28.990000,41.780000,27.120000C41.850000,25.510000,41.620000,24.340000,39.710000,24.170000ZM19.310000,11.830000C20.440000,12.010000,20.710000,11.410000,20.570000,10.440000C20.430000,9.470000,21.070000,9.240000,21.930000,9.270000C22.790000,9.300000,23.490000,9.270000,23.330000,10.400000C23.170000,11.530000,23.520000,12.020000,24.690000,11.830000C25.860000,11.640000,25.890000,12.270000,25.890000,13.150000C25.890000,14.030000,25.700000,14.520000,24.730000,14.370000C23.760000,14.220000,23.150000,14.630000,23.320000,15.760000C23.490000,16.890000,22.850000,17,22,16.890000C20.870000,17.130000,20.450000,16.620000,20.610000,15.520000C20.770000,14.420000,20.270000,14.240000,19.400000,14.370000C18.350000,14.530000,18.030000,14.110000,18.040000,13.050000C18.050000,11.990000,18.410000,11.680000,19.350000,11.830000ZM26.850000,22.520000C25.170000,22.520000,23.490000,22.520000,21.850000,22.520000L17.190000,22.520000C16.510000,22.520000,15.860000,22.260000,15.840000,21.520000C15.820000,20.780000,16.440000,20.520000,17.150000,20.520000L26.800000,20.520000C27.520000,20.520000,28.100000,20.800000,28.050000,21.580000C28,22.360000,27.460000,22.510000,26.850000,22.520000Z" fill="rgb(6,7,7)" stroke="none" stroke-width="1"/><path id="e5xNHkmMwg910" d="M28.050000,21.580000C28.050000,22.230000,27.460000,22.510000,26.850000,22.520000C25.170000,22.520000,23.490000,22.520000,21.850000,22.520000L17.190000,22.520000C16.510000,22.520000,15.860000,22.260000,15.840000,21.520000C15.820000,20.780000,16.440000,20.520000,17.150000,20.520000L26.800000,20.520000C27.520000,20.520000,28.100000,20.800000,28.050000,21.580000Z" fill="rgb(255,255,255)" stroke="none" stroke-width="1"/></g></g></g></g></svg>