<svg xmlns="http://www.w3.org/2000/svg" width="104.258" height="24.057" viewBox="0 0 104.258 24.057"><defs><style>.a{opacity:0.6;}.b{fill:#fff;}</style></defs><g class="a" transform="translate(-1195.988 -172.301)"><path class="b" d="M1212.19,184.774q1.185-2.427,2.369-4.853c1.14-2.331,2.293-4.655,3.41-7a.928.928,0,0,1,.994-.623q2.63.053,5.261,0c.584-.012.749.162.732.738q-.3,10.181-.565,20.362c0,.031,0,.063,0,.094-.055.737.3,1.714-.221,2.143-.44.364-1.372.151-2.087.161-1.19.017-2.383-.04-3.569.026-.759.042-.858-.247-.819-.919.19-3.248.329-6.5.484-9.749.008-.155,0-.31,0-.5-.42.108-.42.479-.536.728-1.486,3.2-2.965,6.411-4.411,9.633a1.141,1.141,0,0,1-1.251.807c-1.344-.053-2.693-.033-4.037.027-.658.03-.924-.136-.983-.837-.245-2.9-.551-5.794-.836-8.69a8.309,8.309,0,0,0-.323-1.783q-1.146,3.8-2.291,7.6c-.307,1.017-.64,2.028-.9,3.056a.719.719,0,0,1-.835.652c-1.691-.028-3.383-.037-5.074,0-.723.017-.832-.166-.594-.848,1.855-5.311,3.673-10.634,5.505-15.953.682-1.979,1.394-3.949,2.039-5.941.183-.563.413-.795,1.032-.779,1.722.044,3.448.071,5.167-.008.846-.039.891.412.955,1.008q.606,5.69,1.232,11.378Z" transform="translate(0)"/><path class="b" d="M1278.441,202.465a7.965,7.965,0,0,1-3.815,1.872,4.182,4.182,0,0,1-5.085-3.435,13.474,13.474,0,0,1,2.314-10.865,9.953,9.953,0,0,1,7.832-4.022,31.529,31.529,0,0,1,7.1.493c.623.105.676.362.581.876q-1.463,7.929-2.891,15.864c-.1.547-.288.711-.837.7-1.47-.021-2.942-.008-4.41.06-.788.037-1.212-.088-.839-.983A2.593,2.593,0,0,0,1278.441,202.465Zm-2.86-4.859c.083.334-.06.882.313,1.069.445.222.821-.213,1.108-.519a14.253,14.253,0,0,0,3.331-6.423c.1-.386-.02-.492-.388-.518a3.137,3.137,0,0,0-2.917,1.55A9.169,9.169,0,0,0,1275.581,197.606Zm2.877,4.79c-.017.017-.048.033-.049.05s.027.037.043.056c.018-.017.049-.033.05-.05S1278.474,202.415,1278.459,202.4Z" transform="translate(-44.051 -8.222)"/><path class="b" d="M1350.319,185.739c.632.06,1.533.154,2.436.228.439.036.584.186.459.656-.346,1.3-.651,2.606-.951,3.916-.1.446-.243.638-.754.447a5.14,5.14,0,0,0-2.22-.266c-.415.033-.86.083-1.032.511-.164.41.173.711.428.974.564.583,1.194,1.105,1.734,1.71a5.579,5.579,0,0,1-1.24,8.773c-2.692,1.668-5.641,1.616-8.632,1.148-.491-.077-.472-.4-.4-.766.293-1.408.614-2.811.857-4.227.094-.545.284-.571.728-.4a5.423,5.423,0,0,0,2.937.39c.958-.178,1.151-.7.491-1.421-.461-.506-1.023-.919-1.516-1.4a5.656,5.656,0,0,1,1.725-9.436A12.436,12.436,0,0,1,1350.319,185.739Z" transform="translate(-86.651 -8.08)"/><path class="b" d="M1384.469,187.5c0-.187-.007-.375,0-.562.026-.567.183-1.1.8-1.231.576-.12.83.394,1.017.8.544,1.192,1.064,2.4,1.531,3.622.241.632.395.774.958.233a55.567,55.567,0,0,1,9.876-7.731,29.992,29.992,0,0,1,10.657-4.192,16.528,16.528,0,0,1,2.331-.2c1.072-.019,1.847.479,1.918,1.145.073.687-.535,1.348-1.562,1.6a39.9,39.9,0,0,0-10.749,4.527,34.15,34.15,0,0,0-12.663,13.019c-.349.628-.625,1.507-1.574,1.377-.969-.133-1.2-1.032-1.406-1.8a47.912,47.912,0,0,1-.916-7.715c-.1-.963-.13-1.933-.193-2.9Z" transform="translate(-113.319 -3.575)"/><path class="b" d="M1320.513,185.9a21.082,21.082,0,0,1,3.021.19c.461.07.575.213.457.666-.339,1.3-.65,2.609-.949,3.92-.107.471-.291.6-.779.432a4.91,4.91,0,0,0-2.407-.244c-.917.156-1.109.66-.491,1.346.5.556,1.073,1.049,1.614,1.57,3.045,2.935,2.088,7.281-1.292,9.2-2.651,1.508-5.516,1.406-8.407.976-.386-.057-.437-.292-.372-.609.308-1.5.64-3,.915-4.5.1-.534.372-.372.666-.278a5.589,5.589,0,0,0,2.936.4c1.012-.22,1.183-.718.463-1.483-.492-.523-1.074-.96-1.583-1.467a5.628,5.628,0,0,1,1.415-9.105A9.844,9.844,0,0,1,1320.513,185.9Z" transform="translate(-69.079 -8.176)"/><path class="b" d="M1292.259,227.154c.016.019.044.039.043.056s-.032.034-.05.05c-.016-.019-.044-.038-.043-.056S1292.242,227.171,1292.259,227.154Z" transform="translate(-57.852 -32.98)"/></g></svg>