<svg xmlns="http://www.w3.org/2000/svg" width="96.65" height="48.848" viewBox="0 0 96.65 48.848"><defs><style>.a{opacity:0.6;}.b{fill:#fff;}</style></defs><g class="a" transform="translate(-278.159 -115.791)"><path class="b" d="M317.908,178.026a3.8,3.8,0,0,1,6.235.159c.085.016.112-.061.15-.106a4.465,4.465,0,0,1,4.278-1.542,3.755,3.755,0,0,1,3.395,3.44,8.932,8.932,0,0,1,.108,1.447q.005,2.3,0,4.6c0,.736-.208.956-.944,1.038a4.636,4.636,0,0,1-1.113-.006c-.657-.085-.857-.307-.859-.972q0-2.061,0-4.124a5.841,5.841,0,0,0-.1-1.31,1.846,1.846,0,0,0-1.858-1.557,1.913,1.913,0,0,0-2.04,1.329,3.428,3.428,0,0,0-.184,1.161q0,2.2,0,4.394c0,.8-.191,1-.993,1.091a4,4,0,0,1-1.342-.072.677.677,0,0,1-.574-.654c-.012-.134-.018-.27-.018-.4q0-2.214,0-4.428a2.946,2.946,0,0,0-.453-1.668,1.585,1.585,0,0,0-.944-.666,2.514,2.514,0,0,0-1.336.008,1.984,1.984,0,0,0-1.4,1.835,4.513,4.513,0,0,0-.044.741c0,1.431,0,2.862,0,4.293,0,.72-.207.935-.926,1.011a4.726,4.726,0,0,1-1.078,0c-.679-.084-.874-.3-.874-.984q0-4.073,0-8.146c0-.113,0-.226.012-.338a.713.713,0,0,1,.681-.745,4.384,4.384,0,0,1,1.446-.016c.567.085.713.246.741.811A.721.721,0,0,0,317.908,178.026Z" transform="translate(-23.116 -38.095)"/><path class="b" d="M354.481,126.2c.871-.782,1.672-1.5,2.472-2.22q3.037-2.739,6.073-5.479a17.02,17.02,0,0,1,2.688-2.178,2.713,2.713,0,0,1,1.187-.431,1.029,1.029,0,0,1,1.154.8,3.283,3.283,0,0,1,.091,1.471,26.136,26.136,0,0,1-.836,3.5q-.781,2.965-1.577,5.926c-.319,1.183-.654,2.361-.979,3.541-.08.292-.153.586-.226.879-.019.076-.016.18-.093.206-.1.035-.153-.074-.208-.14a18.2,18.2,0,0,0-1.626-1.71,17.155,17.155,0,0,0-8.117-4.17Z" transform="translate(-47.912 -0.06)"/><path class="b" d="M382.95,172.214c1.564-2.373,5.865-2.159,7.336,1a6.267,6.267,0,0,1-.368,6.369,4.484,4.484,0,0,1-6.138,1.274,5.715,5.715,0,0,1-.9-.86c-.019.1-.033.155-.036.207-.047.77-.189.915-.972.994a3.667,3.667,0,0,1-1.24-.07.706.706,0,0,1-.576-.661,3.257,3.257,0,0,1-.017-.4q0-5.929,0-11.858a1.818,1.818,0,0,1,.052-.535.566.566,0,0,1,.432-.427,4.317,4.317,0,0,1,1.907-.009.576.576,0,0,1,.472.507,2.632,2.632,0,0,1,.044.5C382.95,169.541,382.95,170.834,382.95,172.214Zm5.093,3.875a3.463,3.463,0,0,0-.338-1.6,2.334,2.334,0,0,0-2.176-1.4,2.255,2.255,0,0,0-2.187,1.317,3.622,3.622,0,0,0,0,3.379,2.225,2.225,0,0,0,2.019,1.306,2.32,2.32,0,0,0,2.248-1.217A3.4,3.4,0,0,0,388.044,176.089Z" transform="translate(-63.959 -32.233)"/><path class="b" d="M420.68,178.034c.012-.235.012-.4.031-.562a.62.62,0,0,1,.583-.636,4.821,4.821,0,0,1,1.748,0,.625.625,0,0,1,.546.632c.007.09.006.18.006.27q0,4.156,0,8.312c0,.753-.167.932-.912,1a5.151,5.151,0,0,1-.97,0c-.711-.071-.89-.264-.9-.984,0-.066,0-.132,0-.2-.129-.028-.136.08-.179.132a3.9,3.9,0,0,1-3.917,1.34,4.39,4.39,0,0,1-3.607-3.123,6.182,6.182,0,0,1,.771-5.971,4.465,4.465,0,0,1,5.6-1.3A3.936,3.936,0,0,1,420.68,178.034Zm.013,3.889a3.253,3.253,0,0,0-.353-1.607,2.3,2.3,0,0,0-2.082-1.379,2.247,2.247,0,0,0-2.193,1.19,3.533,3.533,0,0,0,.031,3.668,2.4,2.4,0,0,0,4.139-.041A3.31,3.31,0,0,0,420.693,181.923Z" transform="translate(-84.444 -38.083)"/><path class="b" d="M519.343,181.98a5.473,5.473,0,1,1-5.277-5.489A5.346,5.346,0,0,1,519.343,181.98Zm-2.858-.1a2.931,2.931,0,0,0-.286-1.345,2.4,2.4,0,0,0-2.069-1.512,2.353,2.353,0,0,0-2.437,1.237,3.309,3.309,0,0,0,.134,3.61,2.522,2.522,0,0,0,3.76.395A3.067,3.067,0,0,0,516.485,181.878Z" transform="translate(-144.534 -38.104)"/><path class="b" d="M450.521,178.033a3.5,3.5,0,0,1,2.557-1.508,4.008,4.008,0,0,1,4.543,3.354,7.4,7.4,0,0,1,.153,1.576q0,2.332,0,4.664c0,.682-.176.87-.858.951a5.268,5.268,0,0,1-1.146,0c-.669-.067-.87-.272-.874-.942-.007-1.081,0-2.163,0-3.244a15.135,15.135,0,0,0-.04-1.856,2.065,2.065,0,0,0-1.52-1.864,2.189,2.189,0,0,0-2.8,2.243c-.012,1.532,0,3.064,0,4.6,0,.807-.182,1-1,1.074a5.074,5.074,0,0,1-1.1-.019c-.584-.072-.784-.3-.806-.876,0-.067,0-.135,0-.2q0-4.055,0-8.111a2.227,2.227,0,0,1,.041-.5.615.615,0,0,1,.555-.508,5.071,5.071,0,0,1,1.581-.017c.542.086.71.268.73.824C450.525,177.788,450.521,177.911,450.521,178.033Z" transform="translate(-106.377 -38.112)"/><path class="b" d="M328.951,125.794a17.464,17.464,0,0,0-5.63,1.137,17.017,17.017,0,0,0-2.95,1.465c-.066.042-.134.121-.207.083-.1-.05-.047-.163-.041-.244.12-1.549.249-3.1.367-4.645.109-1.448.193-2.9.315-4.345a6.568,6.568,0,0,1,.638-2.737,1.2,1.2,0,0,1,1.783-.5,6.162,6.162,0,0,1,1.878,2.16c.939,1.5,1.842,3.025,2.769,4.534q.878,1.428,1.729,2.875c.1.17.067.218-.111.219S329.131,125.794,328.951,125.794Z" transform="translate(-26.331)"/><path class="b" d="M281.7,149.256a1.227,1.227,0,0,1,1.225-1.232,5.506,5.506,0,0,1,2.072.182c1.441.393,2.884.774,4.324,1.169,1.191.327,2.378.669,3.568,1,.151.042.308.061.459.1.212.059.322.133.091.339a12.5,12.5,0,0,0-1.308,1.4,16.655,16.655,0,0,0-3.2,5.975,1.338,1.338,0,0,1-.07.19c-.067.146-.017.4-.187.423-.143.016-.231-.219-.335-.347-1.305-1.6-2.6-3.2-3.9-4.8a27.932,27.932,0,0,1-2.115-2.745A3.73,3.73,0,0,1,281.7,149.256Z" transform="translate(-2.226 -20.216)"/><path class="b" d="M485.175,176.51a5.139,5.139,0,0,1,3.4,1.03c.8.64.874.88.213,1.674-.036.043-.062.1-.1.135-.7.7-.827.749-1.553.214a2.954,2.954,0,0,0-2.262-.57,2.479,2.479,0,0,0-2.136,1.856,3.453,3.453,0,0,0,.393,3.039,2.782,2.782,0,0,0,3.419.81,8,8,0,0,0,.808-.488.652.652,0,0,1,.99.053,4.965,4.965,0,0,1,.714.763.6.6,0,0,1-.012.906,3.973,3.973,0,0,1-2.169,1.289,6.02,6.02,0,0,1-4.695-.6,5.162,5.162,0,0,1-2.519-4.51,5.246,5.246,0,0,1,3.568-5.292A5.644,5.644,0,0,1,485.175,176.51Z" transform="translate(-126.497 -38.115)"/><path class="b" d="M286,185.9a21.847,21.847,0,0,0,.036,2.472,17.216,17.216,0,0,0,1.415,5.522c.135.307.289.607.438.908.031.062.073.129.026.186s-.125.028-.191.014l-3.929-.8q-1.9-.385-3.8-.775a3.611,3.611,0,0,1-1.366-.555,1.024,1.024,0,0,1-.346-1.368,2.7,2.7,0,0,1,.92-1.014q2.944-2.021,5.9-4.03A4.545,4.545,0,0,1,286,185.9Z" transform="translate(0 -44.01)"/><path class="b" d="M308.767,219.509c.543.491.979.974,1.47,1.4a17.765,17.765,0,0,0,3.238,2.233,15.24,15.24,0,0,0,1.994.9c.085.032.226.018.238.148.01.108-.111.132-.181.18q-2.445,1.673-4.895,3.339a6.318,6.318,0,0,1-1.443.792,1.137,1.137,0,0,1-1.649-.982,5.092,5.092,0,0,1,.118-1.742c.243-1.428.5-2.854.755-4.281C308.525,220.861,308.64,220.221,308.767,219.509Z" transform="translate(-18.42 -65.11)"/><path class="b" d="M369.388,182.443q0,2.043,0,4.086a1.579,1.579,0,0,1-.085.664.583.583,0,0,1-.5.343,7.244,7.244,0,0,1-1.651-.007.63.63,0,0,1-.637-.654,2.91,2.91,0,0,1-.015-.337q0-4.12,0-8.24c0-.749.188-.963.939-1.024a4.586,4.586,0,0,1,1.278.037.706.706,0,0,1,.676.809C369.391,179.562,369.388,181,369.388,182.443Z" transform="translate(-55.453 -38.58)"/><path class="b" d="M350.43,237.163a1.584,1.584,0,0,1-.971-.426,9.885,9.885,0,0,1-1.4-1.707q-.786-1.071-1.573-2.142c-.063-.087-.186-.176-.13-.288.046-.092.186-.056.281-.058a15.6,15.6,0,0,0,3.168-.428,14.916,14.916,0,0,0,2.373-.741c.239-.1.285-.073.24.195-.227,1.362-.408,2.731-.7,4.083a2.773,2.773,0,0,1-.505,1.126A1.017,1.017,0,0,1,350.43,237.163Z" transform="translate(-42.801 -72.524)"/><path class="b" d="M379.657,217.339a8.554,8.554,0,0,1-2.36-.439c-.43-.128-.861-.251-1.292-.374-.088-.025-.192-.043-.229-.125-.05-.111.084-.147.14-.2a16.679,16.679,0,0,0,2.994-3.626c.084-.137.165-.341.356-.087a11.551,11.551,0,0,1,1.811,2.74,2,2,0,0,1,.168,1.152,1.311,1.311,0,0,1-1.229.937C379.88,217.333,379.744,217.334,379.657,217.339Z" transform="translate(-61.273 -60.628)"/><path class="b" d="M367.593,165.778c1.361,0,1.719.371,1.673,1.639-.033.924-.333,1.236-1.262,1.308a3.526,3.526,0,0,1-1.138-.074.917.917,0,0,1-.715-.766,3.008,3.008,0,0,1-.028-1.106,1.027,1.027,0,0,1,1.021-.976C367.324,165.784,367.5,165.782,367.593,165.778Z" transform="translate(-55.196 -31.38)"/></g></svg>