<svg xmlns="http://www.w3.org/2000/svg" width="20.05" height="20.05" viewBox="0 0 20.05 20.05"><defs><style>.a{fill:#31c5f0;}.b{fill:#fff;}</style></defs><g transform="translate(-252 -496.999)"><path class="a" d="M6.5,0A6.5,6.5,0,1,1,0,6.5,6.5,6.5,0,0,1,6.5,0Z" transform="translate(256 500)"/><g transform="translate(243.55 488.449)"><path class="b" d="M25.565,11.485a10.027,10.027,0,1,0,0,14.18A10.031,10.031,0,0,0,25.565,11.485Zm-2.536,7.658a.844.844,0,0,1-.58.242h-3.14v3.14a.825.825,0,0,1-.821.821.815.815,0,0,1-.821-.821v-3.14h-3.14a.821.821,0,0,1,0-1.643h3.14V14.6a.815.815,0,0,1,.821-.821h0a.815.815,0,0,1,.821.821v3.14h3.14a.815.815,0,0,1,.821.821A.969.969,0,0,1,23.028,19.142Z" transform="translate(0 0)"/></g></g></svg>