<svg xmlns="http://www.w3.org/2000/svg" width="70.456" height="70.463" viewBox="0 0 70.456 70.463"><defs><style>.a{fill:#62c555;stroke:#fff;}</style></defs><g transform="translate(-10.2 -10.1)"><path class="a" d="M351.655,370.545a2.869,2.869,0,0,0-2.03-.845,2.84,2.84,0,0,0-2.03.845L335.59,382.488l-3.845-3.872a2.873,2.873,0,0,0-4.087,4.039l5.875,5.916a2.868,2.868,0,0,0,4.06.007l14.049-13.966a2.892,2.892,0,0,0,.021-4.053l-.007-.014Z" transform="translate(-294.236 -334.223)"/><path class="a" d="M77.426,31.826a34.889,34.889,0,0,0-18.49-18.49A34.418,34.418,0,0,0,45.428,10.6,34.731,34.731,0,1,0,80.156,45.335a34.412,34.412,0,0,0-2.729-13.509Zm-32,42.494A28.985,28.985,0,1,1,74.413,45.335,29.018,29.018,0,0,1,45.428,74.32Z" transform="translate(0 0)"/></g></svg>