<svg xmlns="http://www.w3.org/2000/svg" width="124.454" height="37.811" viewBox="0 0 124.454 37.811"><defs><style>.a{opacity:0.6;}.b{fill:#fff;}</style></defs><g class="a" transform="translate(-775.486 -174.009)"><path class="b" d="M794.181,202.662a7.372,7.372,0,0,1,3.97,2.28,10.923,10.923,0,0,1-1.651,17.643,14.51,14.51,0,0,1-16.561-.657,10.935,10.935,0,0,1,.585-18.014,12.255,12.255,0,0,1,2.371-1.312.92.92,0,0,1,.713-.145c-.59.538-1.3.82-1.877,1.305-3.112,2.624-4.537,5.9-3.452,9.891,1.1,4.03,3.993,6.367,8,7.246a10.93,10.93,0,0,0,12.32-5.78,9.491,9.491,0,0,0-3.352-11.725A6.507,6.507,0,0,1,794.181,202.662Z" transform="translate(0 -13.042)"/><path class="b" d="M962.106,215.278a55.877,55.877,0,0,0-.444-9.031c-.105-.562.149-.676.589-.6a5.144,5.144,0,0,1,2.1.861,1.067,1.067,0,0,1,.4,1.05c-.117,2.173-.258,4.345-.33,6.519-.1,2.969-.036,5.94.042,8.91.025.986-.083,1.067-.985.782-1.338-.424-1.5-.645-1.479-2.055,0-.253,0-.506,0-.821-1.268.379-2.341,1.1-3.575,1.432a9.777,9.777,0,0,1-4.256.459,2.491,2.491,0,0,1-2.186-3.258c.642-3.148,5.039-6.16,7.979-5.49A5.332,5.332,0,0,1,962.106,215.278Zm-.01,2.926c0-1.992-.1-2.158-1.593-2.687-3.046-1.078-5.451.379-5.676,3.437a2.189,2.189,0,0,0,2.41,2.579,8.419,8.419,0,0,0,3.111-.765C962.1,220.042,962.1,220.04,962.1,218.2Z" transform="translate(-80.961 -14.509)"/><path class="b" d="M791.183,192.716a9.887,9.887,0,0,0-3.4-7.53,18.328,18.328,0,0,1,1.946,5.45,14.6,14.6,0,0,1-7.178-9.384c-.221-.876-.377-1.768-.6-2.644-.115-.46.079-.5.427-.387a24.136,24.136,0,0,1,8.783,4.458C794.626,185.7,794,190.064,791.183,192.716Z" transform="translate(-2.951 -1.909)"/><path class="b" d="M828.836,208.528c2.2-.2,3.291.866,3.938,2.951a73.728,73.728,0,0,0,3.516,9.17c.425.917.683.967,1.288.181a22.6,22.6,0,0,0,4.821-10.508,4.993,4.993,0,0,0-.268-2.419c-.052-.15-.2-.322-.044-.465s.376-.071.562,0a3.176,3.176,0,0,1,1.87,4.327,35.859,35.859,0,0,1-8.541,11.707c-1.038.912-1.327.828-1.838-.478-1.586-4.049-3-8.166-4.842-12.114a2.617,2.617,0,0,0-1.551-1.682c-.18-.054-.393-.156-.325-.417a.376.376,0,0,1,.4-.253C828.159,208.52,828.5,208.528,828.836,208.528Z" transform="translate(-23.829 -15.302)"/><path class="b" d="M901.451,230.132h-.176c-1.282-.019-2.543-.157-3.245-1.42-.726-1.306-.175-2.507.595-3.553a9.065,9.065,0,0,1,5.752-3.763,2.425,2.425,0,0,1,2.46.748c.424.491.886.442,1.487.223,1.348-.489,1.288-.562,1.318.844a24.7,24.7,0,0,0,.533,4.379c.093.459.082,1.036.769,1.182.408.087.255.381.041.557a5.51,5.51,0,0,1-2.168,1.119.551.551,0,0,1-.765-.446c-.1-.469-.259-.928-.324-1.4-.092-.679-.272-.776-.9-.387C905.158,229.255,903.447,230.25,901.451,230.132Zm5.807-4.362a11.653,11.653,0,0,1-.168-1.426c0-1.02-.642-1.438-1.483-1.674a3.8,3.8,0,0,0-5.01,3.789,2.054,2.054,0,0,0,2.184,2.328,5.994,5.994,0,0,0,3.472-1.141A1.86,1.86,0,0,0,907.258,225.771Z" transform="translate(-56.083 -21.718)"/><path class="b" d="M987.521,221.323a2.72,2.72,0,0,1,2.171.836c.379.443.728.565,1.225.271a1.137,1.137,0,0,1,.235-.093c1.232-.4,1.232-.4,1.3.859a30.448,30.448,0,0,0,.557,4.543c.083.4.111.876.637,1,.544.13.4.389.106.624a5.891,5.891,0,0,1-2.1,1.076.593.593,0,0,1-.817-.5,12.9,12.9,0,0,1-.291-1.323c-.1-.674-.267-.882-.927-.391a8.868,8.868,0,0,1-5.932,1.9,5.07,5.07,0,0,1-1.412-.262,2.456,2.456,0,0,1-1.646-3.3C981.4,224.121,985.092,221.353,987.521,221.323Zm-1.208,7.449a5.086,5.086,0,0,0,3.483-1.779c.772-.882.156-1.949.1-2.935,0-.056-.031-.109-.038-.165A1.291,1.291,0,0,0,989,222.84a3.844,3.844,0,0,0-5.519,3.423C983.393,227.925,984.237,228.8,986.313,228.772Z" transform="translate(-94.073 -21.714)"/><path class="b" d="M929.423,227a16.8,16.8,0,0,1,3.178-4.144,5.233,5.233,0,0,1,2.213-1.2c.957-.209,1.5.062,1.729,1,.343,1.428.563,2.884.9,4.314.184.783.112,1.725,1.154,2.092.359.126.038.4-.116.5a7.728,7.728,0,0,1-2.146.994c-.511.156-.715-.175-.81-.612q-.406-1.863-.813-3.726c-.11-.5-.219-.993-.35-1.485-.32-1.2-.826-1.342-1.78-.495a10.24,10.24,0,0,0-2.276,3.042,14.681,14.681,0,0,0-.959,2.255c-.2.626-.531.825-1.12.658s-1.255-.162-1.194-1.1c.1-1.5.109-3,.144-4.5a5.679,5.679,0,0,0-.312-2.336c-.164-.4-.037-.581.4-.567a5.416,5.416,0,0,1,1.9.409c.68.278.617.878.569,1.448a29.759,29.759,0,0,0-.3,3.46l-.052.12Z" transform="translate(-69.44 -21.835)"/><path class="b" d="M800.626,189.148a21.145,21.145,0,0,0,.873-1.98,6.356,6.356,0,0,0-2.292-7.026c-.484-.35-.486-.584-.192-1a23,23,0,0,1,4.767-4.918c.235-.183.49-.408.569.106.574,3.706,1.032,7.416-.23,11.078A6.183,6.183,0,0,1,800.626,189.148Z" transform="translate(-10.706)"/><path class="b" d="M874.431,220.579c.222.018.419.044.616.048a2.621,2.621,0,0,1,2.823,2.221,28.326,28.326,0,0,0,1.464,3.964c.418,1.015.693,1.07,1.406.276a10.315,10.315,0,0,0,2.86-6.712c.009-.3-.138-.715.194-.851.313-.128.537.235.754.443,1.317,1.254,1.424,1.9.459,3.394a17.354,17.354,0,0,1-5.842,5.8c-1.146.663-1.313.6-1.809-.591-.714-1.72-1.394-3.455-2.11-5.174a3.954,3.954,0,0,0-1.468-2.118c-.17-.1-.33-.27-.182-.491C873.811,220.473,874.159,220.613,874.431,220.579Z" transform="translate(-44.999 -20.877)"/><path class="b" d="M863.559,226.306c-.035-1.539.252-3.111-.426-4.593-.131-.287,0-.485.359-.478a5.943,5.943,0,0,1,2.431.652c.344.162.341.5.319.812-.159,2.255-.3,4.51-.24,6.772.012.489-.194.638-.664.613-1.4-.076-1.8-.5-1.78-1.913C863.567,227.549,863.559,226.927,863.559,226.306Z" transform="translate(-40.201 -21.673)"/><path class="b" d="M864.136,212.87c-.021-1.779-.024-1.766,1.5-1.29.583.182.957.451.85,1.136a7.122,7.122,0,0,1-.013.76c-.126.442.485,1.213-.4,1.3a1.584,1.584,0,0,1-1.941-1.451C864.134,213.094,864.136,212.868,864.136,212.87Z" transform="translate(-40.682 -17.117)"/><path class="b" d="M931.618,231.593l-.039.132.052-.12Z" transform="translate(-71.636 -26.427)"/></g></svg>