<svg xmlns="http://www.w3.org/2000/svg" width="55" height="55" viewBox="0 0 55 55"><defs><style>.a{fill:#fff;stroke:#f7f7f7;}.b{fill:#aaa;}.c{stroke:none;}.d{fill:none;}</style></defs><g transform="translate(55) rotate(90)"><g class="a"><circle class="c" cx="27.5" cy="27.5" r="27.5"/><circle class="d" cx="27.5" cy="27.5" r="27"/></g><g transform="translate(34.04 22) rotate(90)"><g transform="translate(0 0)"><path class="b" d="M4.642.189.218,4.381A.784.784,0,0,0,.162,5.4a.727.727,0,0,0,1.017,0L4.424,2.321v10.02a.7.7,0,0,0,1.4,0V2.321L9.066,5.392a.712.712,0,0,0,1.017,0,.766.766,0,0,0-.056-1.015L5.6.189A.709.709,0,0,0,4.642.189Z"/></g></g></g></svg>