<svg id="Componente_61_3" data-name="Componente 61 – 3" xmlns="http://www.w3.org/2000/svg" width="55" height="55" viewBox="0 0 55 55">
  <g id="Elipse_428" data-name="Elipse 428" fill="#fff" stroke="#f7f7f7" stroke-width="1">
    <circle cx="27.5" cy="27.5" r="27.5" stroke="none"/>
    <circle cx="27.5" cy="27.5" r="27" fill="none"/>
  </g>
  <g id="Grupo_7021" data-name="Grupo 7021" transform="translate(34.04 22) rotate(90)">
    <g id="Grupo_7020" data-name="Grupo 7020">
      <path id="Trazado_4803" data-name="Trazado 4803" d="M4.642.189.218,4.381A.784.784,0,0,0,.162,5.4a.727.727,0,0,0,1.017,0L4.424,2.321v10.02a.7.7,0,0,0,1.4,0V2.321L9.066,5.392a.712.712,0,0,0,1.017,0,.766.766,0,0,0-.056-1.015L5.6.189a.709.709,0,0,0-.958,0Z" fill="#aaa"/>
    </g>
  </g>
</svg>
