<svg xmlns="http://www.w3.org/2000/svg" width="70.46" height="70.46" viewBox="0 0 70.46 70.46"><defs><style>.a,.b{fill:#ed6a5e;}.a{stroke:#fff;}.b{stroke:#ed6a5e;stroke-width:1.4px;}</style></defs><g transform="translate(-10.7 -10.6)"><path class="a" d="M77.43,31.825A34.889,34.889,0,0,0,58.94,13.336,34.423,34.423,0,0,0,45.43,10.6,34.73,34.73,0,1,0,80.16,45.333a34.408,34.408,0,0,0-2.73-13.508Zm-32,42.492A28.984,28.984,0,1,1,74.417,45.333,29.019,29.019,0,0,1,45.43,74.317Z" transform="translate(0.5 0.5)"/><path class="b" d="M39.307,19.15a1.583,1.583,0,0,0-2.239,0l-7.839,7.839L21.39,19.151a1.583,1.583,0,0,0-2.239,2.239l7.838,7.838-7.838,7.838a1.583,1.583,0,1,0,2.239,2.239l7.838-7.838,7.838,7.838a1.583,1.583,0,0,0,2.239-2.239l-7.838-7.838,7.838-7.838A1.584,1.584,0,0,0,39.307,19.15Z" transform="translate(16.513 16.413)"/></g></svg>